<svg width="456" height="290" viewBox="0 0 456 290" fill="none" xmlns="http://www.w3.org/2000/svg">
<rect x="0.5" y="0.5" width="455" height="289" rx="19.5" fill="#0D659D" fill-opacity="0.49" stroke="#0D659D"/>
<path fill-rule="evenodd" clip-rule="evenodd" d="M48.6646 92.4325C64.5764 85.1051 86.9008 78.4686 116.463 85.1147L116.773 77.0584C85.5793 73.3994 63.1972 84.0713 48.6602 91.6369V92.4325H48.6646Z" fill="#FBAA29"/>
<path fill-rule="evenodd" clip-rule="evenodd" d="M65.3027 71.1773L72.1987 46.7559H78.3497L71.4537 71.1773H65.3027Z" fill="#005A9C"/>
<path fill-rule="evenodd" clip-rule="evenodd" d="M62.5526 46.7607L57.018 57.1134C55.6078 59.8243 54.7874 61.1964 54.3882 62.9067H54.304C54.4015 60.7342 54.1177 58.0663 54.0955 56.5608L53.4835 46.7607H43.124L43.0176 47.4182C45.6784 47.4182 47.2572 48.8522 47.6918 51.7918L49.7096 71.1822H56.0823L68.9696 46.7655H62.5526V46.7607Z" fill="#005A9C"/>
<path fill-rule="evenodd" clip-rule="evenodd" d="M110.399 71.1765L110.23 67.5462L102.549 67.5414L100.979 71.1813H94.3008L106.412 46.8027H114.612L116.661 71.1813H110.399V71.1765ZM109.694 56.7695C109.627 54.9639 109.57 52.515 109.68 51.0334H109.592C109.219 52.2482 107.609 55.8881 106.9 57.6795L104.612 63.0345H110.004L109.694 56.7695Z" fill="#005A9C"/>
<path fill-rule="evenodd" clip-rule="evenodd" d="M84.8098 71.875C80.4682 71.875 77.5856 70.3933 75.5234 69.0736L78.4548 64.2665C80.3041 65.3766 81.7542 66.6581 85.0892 66.6581C86.1624 66.6581 87.1956 66.358 87.7855 65.267C88.6414 63.6805 87.5859 62.8229 85.1867 61.3603L83.9982 60.5313C80.4371 57.9158 78.8938 55.4336 80.5702 51.0934C81.6434 48.3206 84.4727 46.2148 89.1425 46.2148C92.3621 46.2148 95.3822 47.7108 97.1427 49.1734L93.7724 53.4184C92.0561 51.9272 90.6326 51.1744 89.005 51.1744C87.7056 51.1744 86.7211 51.7128 86.3797 52.4369C85.7366 53.7995 86.5881 54.7285 88.4595 55.9815L89.8698 56.9439C94.1937 59.8739 95.2269 62.9468 94.1404 65.8196C92.2778 70.7697 88.6281 71.875 84.8098 71.875Z" fill="#005A9C"/>
<path fill-rule="evenodd" clip-rule="evenodd" d="M118.342 50.5342H117.938V47.8853H118.874C119.468 47.8853 119.774 48.1093 119.774 48.6476C119.774 49.1288 119.499 49.3241 119.131 49.3718L119.823 50.5342H119.366L118.727 49.4004H118.346V50.5342H118.342ZM118.794 49.0288C119.095 49.0288 119.366 48.9954 119.366 48.6143C119.366 48.2951 119.073 48.2569 118.829 48.2569H118.342V49.0288H118.794ZM118.781 51.5538C117.499 51.5538 116.59 50.5247 116.59 49.1622C116.59 47.7234 117.601 46.7705 118.781 46.7705C119.947 46.7705 120.958 47.7234 120.958 49.1622C120.958 50.6009 119.947 51.5538 118.781 51.5538ZM118.781 47.1898C117.818 47.1898 117.064 47.9997 117.064 49.1669C117.064 50.2532 117.721 51.1441 118.781 51.1441C119.734 51.1441 120.484 50.3389 120.484 49.1669C120.484 47.9997 119.734 47.1898 118.781 47.1898Z" fill="#005A9C"/>
<mask id="mask0_1905_6560" style="mask-type:alpha" maskUnits="userSpaceOnUse" x="0" y="0" width="456" height="290">
<rect x="1" y="1" width="454" height="288" rx="17" fill="#0D659D" stroke="#2E3B3C" stroke-width="2"/>
</mask>
<g mask="url(#mask0_1905_6560)">
<path opacity="0.1" d="M515.584 12.132C515.584 101.047 448.82 170.638 369.424 170.638C290.028 170.638 223.264 101.047 223.264 12.132C223.264 -76.7826 290.028 -146.374 369.424 -146.374C448.82 -146.374 515.584 -76.7826 515.584 12.132Z" stroke="#2E3B3C" stroke-width="40"/>
<path opacity="0.15" d="M181.112 299.821C181.112 351.088 142.757 390.16 98.4048 390.16C54.0525 390.16 15.6973 351.088 15.6973 299.821C15.6973 248.554 54.0525 209.482 98.4048 209.482C142.757 209.482 181.112 248.554 181.112 299.821Z" stroke="#2E3B3C" stroke-width="40"/>
<ellipse opacity="0.15" rx="27.4245" ry="29.4622" transform="matrix(1 0 0 -1 155.405 133.446)" fill="#2E3B3C"/>
</g>
<path d="M361.23 165.702C361.23 166.715 361.12 167.595 360.902 168.342C360.683 169.088 360.382 169.707 359.998 170.198C359.614 170.683 359.158 171.046 358.63 171.286C358.107 171.52 357.542 171.638 356.934 171.638C356.326 171.638 355.76 171.52 355.238 171.286C354.715 171.046 354.264 170.683 353.886 170.198C353.507 169.707 353.208 169.088 352.99 168.342C352.776 167.595 352.67 166.715 352.67 165.702C352.67 164.688 352.776 163.811 352.99 163.07C353.208 162.323 353.507 161.707 353.886 161.222C354.264 160.731 354.715 160.368 355.238 160.134C355.76 159.894 356.326 159.774 356.934 159.774C357.542 159.774 358.107 159.894 358.63 160.134C359.158 160.368 359.614 160.731 359.998 161.222C360.382 161.707 360.683 162.323 360.902 163.07C361.12 163.811 361.23 164.688 361.23 165.702ZM358.95 165.702C358.95 164.88 358.891 164.203 358.774 163.67C358.662 163.136 358.512 162.715 358.326 162.406C358.139 162.096 357.923 161.88 357.678 161.758C357.438 161.635 357.19 161.574 356.934 161.574C356.678 161.574 356.43 161.635 356.19 161.758C355.955 161.88 355.744 162.096 355.558 162.406C355.376 162.715 355.23 163.136 355.118 163.67C355.006 164.203 354.95 164.88 354.95 165.702C354.95 166.528 355.006 167.208 355.118 167.742C355.23 168.275 355.376 168.696 355.558 169.006C355.744 169.315 355.955 169.531 356.19 169.654C356.43 169.776 356.678 169.838 356.934 169.838C357.19 169.838 357.438 169.776 357.678 169.654C357.923 169.531 358.139 169.315 358.326 169.006C358.512 168.696 358.662 168.275 358.774 167.742C358.891 167.208 358.95 166.528 358.95 165.702ZM368.391 163.414C368.391 164.027 368.54 164.494 368.839 164.814C369.143 165.134 369.585 165.294 370.167 165.294C370.46 165.294 370.721 165.248 370.951 165.158C371.185 165.062 371.38 164.931 371.535 164.766C371.689 164.6 371.807 164.403 371.887 164.174C371.972 163.944 372.015 163.694 372.015 163.422C372.015 163.118 371.969 162.851 371.879 162.622C371.788 162.387 371.66 162.19 371.495 162.03C371.335 161.87 371.143 161.75 370.919 161.67C370.695 161.584 370.447 161.542 370.175 161.542C369.897 161.542 369.649 161.59 369.431 161.686C369.212 161.776 369.025 161.907 368.871 162.078C368.716 162.243 368.596 162.44 368.511 162.67C368.431 162.899 368.391 163.147 368.391 163.414ZM370.719 167.054C370.799 166.952 370.876 166.854 370.951 166.758C371.025 166.662 371.1 166.566 371.175 166.47C370.919 166.619 370.639 166.734 370.335 166.814C370.036 166.888 369.719 166.926 369.383 166.926C368.993 166.926 368.607 166.856 368.223 166.718C367.844 166.579 367.503 166.371 367.199 166.094C366.895 165.816 366.649 165.47 366.463 165.054C366.276 164.632 366.183 164.139 366.183 163.574C366.183 163.056 366.279 162.568 366.471 162.11C366.663 161.646 366.935 161.243 367.287 160.902C367.639 160.555 368.06 160.28 368.551 160.078C369.047 159.875 369.596 159.774 370.199 159.774C370.807 159.774 371.353 159.87 371.839 160.062C372.324 160.248 372.735 160.512 373.071 160.854C373.407 161.195 373.665 161.603 373.847 162.078C374.028 162.547 374.119 163.064 374.119 163.63C374.119 163.998 374.089 164.347 374.031 164.678C373.972 165.008 373.887 165.323 373.775 165.622C373.663 165.92 373.527 166.211 373.367 166.494C373.212 166.776 373.036 167.054 372.839 167.326L370.255 171.014C370.148 171.152 369.993 171.27 369.791 171.366C369.593 171.462 369.367 171.51 369.111 171.51H367.079L370.719 167.054ZM381.408 171.478C381.307 171.744 381.144 171.944 380.92 172.078C380.701 172.216 380.477 172.286 380.248 172.286H379.312L383.928 160.342C384.019 160.102 384.163 159.915 384.36 159.782C384.557 159.648 384.784 159.582 385.04 159.582H385.984L381.408 171.478ZM398.251 169.486C398.491 169.486 398.678 169.552 398.811 169.686C398.95 169.819 399.019 169.995 399.019 170.214V171.51H390.971V170.79C390.971 170.651 391 170.502 391.059 170.342C391.118 170.176 391.216 170.027 391.355 169.894L394.795 166.446C395.088 166.152 395.347 165.872 395.571 165.606C395.795 165.334 395.982 165.07 396.131 164.814C396.28 164.552 396.392 164.288 396.467 164.022C396.542 163.755 396.579 163.475 396.579 163.182C396.579 162.664 396.446 162.272 396.179 162.006C395.912 161.734 395.536 161.598 395.051 161.598C394.838 161.598 394.64 161.63 394.459 161.694C394.283 161.752 394.123 161.835 393.979 161.942C393.84 162.048 393.72 162.174 393.619 162.318C393.518 162.462 393.443 162.619 393.395 162.79C393.299 163.056 393.168 163.235 393.003 163.326C392.843 163.411 392.614 163.43 392.315 163.382L391.147 163.174C391.232 162.608 391.392 162.112 391.627 161.686C391.862 161.259 392.155 160.904 392.507 160.622C392.859 160.339 393.262 160.128 393.715 159.99C394.168 159.846 394.656 159.774 395.179 159.774C395.728 159.774 396.227 159.856 396.675 160.022C397.128 160.182 397.515 160.408 397.835 160.702C398.155 160.99 398.403 161.339 398.579 161.75C398.755 162.16 398.843 162.614 398.843 163.11C398.843 163.536 398.782 163.931 398.659 164.294C398.536 164.656 398.368 165.003 398.155 165.334C397.947 165.659 397.704 165.976 397.427 166.286C397.15 166.595 396.856 166.907 396.547 167.222L394.083 169.742C394.355 169.662 394.624 169.6 394.891 169.558C395.158 169.51 395.408 169.486 395.643 169.486H398.251ZM409.332 167.078V163.622C409.332 163.44 409.338 163.248 409.348 163.046C409.364 162.838 409.386 162.622 409.412 162.398L406.052 167.078H409.332ZM412.596 167.078V168.326C412.596 168.443 412.556 168.544 412.476 168.63C412.402 168.71 412.295 168.75 412.156 168.75H411.252V171.51H409.332V168.75H404.54C404.402 168.75 404.274 168.707 404.156 168.622C404.044 168.536 403.975 168.424 403.948 168.286L403.716 167.182L409.156 159.894H411.252V167.078H412.596Z" fill="#2E3B3C"/>
<path d="M49.0595 222.87C48.9395 222.944 48.8162 223.007 48.6895 223.06C48.5695 223.107 48.4462 223.144 48.3195 223.17C48.5662 223.21 48.8129 223.307 49.0595 223.46L50.5895 224.37L49.9495 225.46L48.4195 224.55C48.2995 224.477 48.1862 224.404 48.0795 224.33C47.9729 224.25 47.8795 224.164 47.7995 224.07C47.8795 224.304 47.9195 224.557 47.9195 224.83V226.63H46.6095V224.85C46.6095 224.717 46.6162 224.587 46.6295 224.46C46.6495 224.327 46.6795 224.204 46.7195 224.09C46.5662 224.264 46.3662 224.417 46.1195 224.55L44.5995 225.44L43.9495 224.35L45.4795 223.46C45.6062 223.387 45.7295 223.327 45.8495 223.28C45.9762 223.227 46.1029 223.19 46.2295 223.17C46.1029 223.15 45.9762 223.114 45.8495 223.06C45.7229 223.007 45.5995 222.944 45.4795 222.87L43.9495 221.96L44.5895 220.88L46.1195 221.79C46.3662 221.924 46.5695 222.08 46.7295 222.26C46.6495 222.034 46.6095 221.784 46.6095 221.51V219.7H47.9195V221.49C47.9195 221.624 47.9095 221.757 47.8895 221.89C47.8762 222.017 47.8495 222.137 47.8095 222.25C47.8895 222.157 47.9795 222.074 48.0795 222C48.1862 221.927 48.2995 221.857 48.4195 221.79L49.9395 220.9L50.5895 221.98L49.0595 222.87ZM68.1556 222.87C68.0356 222.944 67.9123 223.007 67.7856 223.06C67.6656 223.107 67.5423 223.144 67.4156 223.17C67.6623 223.21 67.909 223.307 68.1556 223.46L69.6856 224.37L69.0456 225.46L67.5156 224.55C67.3956 224.477 67.2823 224.404 67.1756 224.33C67.069 224.25 66.9756 224.164 66.8956 224.07C66.9756 224.304 67.0156 224.557 67.0156 224.83V226.63H65.7056V224.85C65.7056 224.717 65.7123 224.587 65.7256 224.46C65.7456 224.327 65.7756 224.204 65.8156 224.09C65.6623 224.264 65.4623 224.417 65.2156 224.55L63.6956 225.44L63.0456 224.35L64.5756 223.46C64.7023 223.387 64.8256 223.327 64.9456 223.28C65.0723 223.227 65.199 223.19 65.3256 223.17C65.199 223.15 65.0723 223.114 64.9456 223.06C64.819 223.007 64.6956 222.944 64.5756 222.87L63.0456 221.96L63.6856 220.88L65.2156 221.79C65.4623 221.924 65.6656 222.08 65.8256 222.26C65.7456 222.034 65.7056 221.784 65.7056 221.51V219.7H67.0156V221.49C67.0156 221.624 67.0056 221.757 66.9856 221.89C66.9723 222.017 66.9456 222.137 66.9056 222.25C66.9856 222.157 67.0756 222.074 67.1756 222C67.2823 221.927 67.3956 221.857 67.5156 221.79L69.0356 220.9L69.6856 221.98L68.1556 222.87ZM87.2517 222.87C87.1317 222.944 87.0084 223.007 86.8817 223.06C86.7617 223.107 86.6384 223.144 86.5117 223.17C86.7584 223.21 87.0051 223.307 87.2517 223.46L88.7817 224.37L88.1417 225.46L86.6117 224.55C86.4917 224.477 86.3784 224.404 86.2717 224.33C86.1651 224.25 86.0717 224.164 85.9917 224.07C86.0717 224.304 86.1117 224.557 86.1117 224.83V226.63H84.8017V224.85C84.8017 224.717 84.8084 224.587 84.8217 224.46C84.8417 224.327 84.8717 224.204 84.9117 224.09C84.7584 224.264 84.5584 224.417 84.3117 224.55L82.7917 225.44L82.1417 224.35L83.6717 223.46C83.7984 223.387 83.9217 223.327 84.0417 223.28C84.1684 223.227 84.2951 223.19 84.4217 223.17C84.2951 223.15 84.1684 223.114 84.0417 223.06C83.9151 223.007 83.7917 222.944 83.6717 222.87L82.1417 221.96L82.7817 220.88L84.3117 221.79C84.5584 221.924 84.7617 222.08 84.9217 222.26C84.8417 222.034 84.8017 221.784 84.8017 221.51V219.7H86.1117V221.49C86.1117 221.624 86.1017 221.757 86.0817 221.89C86.0684 222.017 86.0417 222.137 86.0017 222.25C86.0817 222.157 86.1717 222.074 86.2717 222C86.3784 221.927 86.4917 221.857 86.6117 221.79L88.1317 220.9L88.7817 221.98L87.2517 222.87ZM106.348 222.87C106.228 222.944 106.104 223.007 105.978 223.06C105.858 223.107 105.734 223.144 105.608 223.17C105.854 223.21 106.101 223.307 106.348 223.46L107.878 224.37L107.238 225.46L105.708 224.55C105.588 224.477 105.474 224.404 105.368 224.33C105.261 224.25 105.168 224.164 105.088 224.07C105.168 224.304 105.208 224.557 105.208 224.83V226.63H103.898V224.85C103.898 224.717 103.904 224.587 103.918 224.46C103.938 224.327 103.968 224.204 104.008 224.09C103.854 224.264 103.654 224.417 103.408 224.55L101.888 225.44L101.238 224.35L102.768 223.46C102.894 223.387 103.018 223.327 103.138 223.28C103.264 223.227 103.391 223.19 103.518 223.17C103.391 223.15 103.264 223.114 103.138 223.06C103.011 223.007 102.888 222.944 102.768 222.87L101.238 221.96L101.878 220.88L103.408 221.79C103.654 221.924 103.858 222.08 104.018 222.26C103.938 222.034 103.898 221.784 103.898 221.51V219.7H105.208V221.49C105.208 221.624 105.198 221.757 105.178 221.89C105.164 222.017 105.138 222.137 105.098 222.25C105.178 222.157 105.268 222.074 105.368 222C105.474 221.927 105.588 221.857 105.708 221.79L107.228 220.9L107.878 221.98L106.348 222.87ZM140.79 222.87C140.67 222.944 140.547 223.007 140.42 223.06C140.3 223.107 140.177 223.144 140.05 223.17C140.297 223.21 140.543 223.307 140.79 223.46L142.32 224.37L141.68 225.46L140.15 224.55C140.03 224.477 139.917 224.404 139.81 224.33C139.703 224.25 139.61 224.164 139.53 224.07C139.61 224.304 139.65 224.557 139.65 224.83V226.63H138.34V224.85C138.34 224.717 138.347 224.587 138.36 224.46C138.38 224.327 138.41 224.204 138.45 224.09C138.297 224.264 138.097 224.417 137.85 224.55L136.33 225.44L135.68 224.35L137.21 223.46C137.337 223.387 137.46 223.327 137.58 223.28C137.707 223.227 137.833 223.19 137.96 223.17C137.833 223.15 137.707 223.114 137.58 223.06C137.453 223.007 137.33 222.944 137.21 222.87L135.68 221.96L136.32 220.88L137.85 221.79C138.097 221.924 138.3 222.08 138.46 222.26C138.38 222.034 138.34 221.784 138.34 221.51V219.7H139.65V221.49C139.65 221.624 139.64 221.757 139.62 221.89C139.607 222.017 139.58 222.137 139.54 222.25C139.62 222.157 139.71 222.074 139.81 222C139.917 221.927 140.03 221.857 140.15 221.79L141.67 220.9L142.32 221.98L140.79 222.87ZM159.886 222.87C159.766 222.944 159.643 223.007 159.516 223.06C159.396 223.107 159.273 223.144 159.146 223.17C159.393 223.21 159.639 223.307 159.886 223.46L161.416 224.37L160.776 225.46L159.246 224.55C159.126 224.477 159.013 224.404 158.906 224.33C158.799 224.25 158.706 224.164 158.626 224.07C158.706 224.304 158.746 224.557 158.746 224.83V226.63H157.436V224.85C157.436 224.717 157.443 224.587 157.456 224.46C157.476 224.327 157.506 224.204 157.546 224.09C157.393 224.264 157.193 224.417 156.946 224.55L155.426 225.44L154.776 224.35L156.306 223.46C156.433 223.387 156.556 223.327 156.676 223.28C156.803 223.227 156.929 223.19 157.056 223.17C156.929 223.15 156.803 223.114 156.676 223.06C156.549 223.007 156.426 222.944 156.306 222.87L154.776 221.96L155.416 220.88L156.946 221.79C157.193 221.924 157.396 222.08 157.556 222.26C157.476 222.034 157.436 221.784 157.436 221.51V219.7H158.746V221.49C158.746 221.624 158.736 221.757 158.716 221.89C158.703 222.017 158.676 222.137 158.636 222.25C158.716 222.157 158.806 222.074 158.906 222C159.013 221.927 159.126 221.857 159.246 221.79L160.766 220.9L161.416 221.98L159.886 222.87ZM178.982 222.87C178.862 222.944 178.739 223.007 178.612 223.06C178.492 223.107 178.369 223.144 178.242 223.17C178.489 223.21 178.736 223.307 178.982 223.46L180.512 224.37L179.872 225.46L178.342 224.55C178.222 224.477 178.109 224.404 178.002 224.33C177.896 224.25 177.802 224.164 177.722 224.07C177.802 224.304 177.842 224.557 177.842 224.83V226.63H176.532V224.85C176.532 224.717 176.539 224.587 176.552 224.46C176.572 224.327 176.602 224.204 176.642 224.09C176.489 224.264 176.289 224.417 176.042 224.55L174.522 225.44L173.872 224.35L175.402 223.46C175.529 223.387 175.652 223.327 175.772 223.28C175.899 223.227 176.026 223.19 176.152 223.17C176.026 223.15 175.899 223.114 175.772 223.06C175.646 223.007 175.522 222.944 175.402 222.87L173.872 221.96L174.512 220.88L176.042 221.79C176.289 221.924 176.492 222.08 176.652 222.26C176.572 222.034 176.532 221.784 176.532 221.51V219.7H177.842V221.49C177.842 221.624 177.832 221.757 177.812 221.89C177.799 222.017 177.772 222.137 177.732 222.25C177.812 222.157 177.902 222.074 178.002 222C178.109 221.927 178.222 221.857 178.342 221.79L179.862 220.9L180.512 221.98L178.982 222.87ZM198.078 222.87C197.958 222.944 197.835 223.007 197.708 223.06C197.588 223.107 197.465 223.144 197.338 223.17C197.585 223.21 197.832 223.307 198.078 223.46L199.608 224.37L198.968 225.46L197.438 224.55C197.318 224.477 197.205 224.404 197.098 224.33C196.992 224.25 196.898 224.164 196.818 224.07C196.898 224.304 196.938 224.557 196.938 224.83V226.63H195.628V224.85C195.628 224.717 195.635 224.587 195.648 224.46C195.668 224.327 195.698 224.204 195.738 224.09C195.585 224.264 195.385 224.417 195.138 224.55L193.618 225.44L192.968 224.35L194.498 223.46C194.625 223.387 194.748 223.327 194.868 223.28C194.995 223.227 195.122 223.19 195.248 223.17C195.122 223.15 194.995 223.114 194.868 223.06C194.742 223.007 194.618 222.944 194.498 222.87L192.968 221.96L193.608 220.88L195.138 221.79C195.385 221.924 195.588 222.08 195.748 222.26C195.668 222.034 195.628 221.784 195.628 221.51V219.7H196.938V221.49C196.938 221.624 196.928 221.757 196.908 221.89C196.895 222.017 196.868 222.137 196.828 222.25C196.908 222.157 196.998 222.074 197.098 222C197.205 221.927 197.318 221.857 197.438 221.79L198.958 220.9L199.608 221.98L198.078 222.87ZM232.52 222.87C232.4 222.944 232.277 223.007 232.15 223.06C232.03 223.107 231.907 223.144 231.78 223.17C232.027 223.21 232.274 223.307 232.52 223.46L234.05 224.37L233.41 225.46L231.88 224.55C231.76 224.477 231.647 224.404 231.54 224.33C231.434 224.25 231.34 224.164 231.26 224.07C231.34 224.304 231.38 224.557 231.38 224.83V226.63H230.07V224.85C230.07 224.717 230.077 224.587 230.09 224.46C230.11 224.327 230.14 224.204 230.18 224.09C230.027 224.264 229.827 224.417 229.58 224.55L228.06 225.44L227.41 224.35L228.94 223.46C229.067 223.387 229.19 223.327 229.31 223.28C229.437 223.227 229.564 223.19 229.69 223.17C229.564 223.15 229.437 223.114 229.31 223.06C229.184 223.007 229.06 222.944 228.94 222.87L227.41 221.96L228.05 220.88L229.58 221.79C229.827 221.924 230.03 222.08 230.19 222.26C230.11 222.034 230.07 221.784 230.07 221.51V219.7H231.38V221.49C231.38 221.624 231.37 221.757 231.35 221.89C231.337 222.017 231.31 222.137 231.27 222.25C231.35 222.157 231.44 222.074 231.54 222C231.647 221.927 231.76 221.857 231.88 221.79L233.4 220.9L234.05 221.98L232.52 222.87ZM251.617 222.87C251.497 222.944 251.373 223.007 251.247 223.06C251.127 223.107 251.003 223.144 250.877 223.17C251.123 223.21 251.37 223.307 251.617 223.46L253.147 224.37L252.507 225.46L250.977 224.55C250.857 224.477 250.743 224.404 250.637 224.33C250.53 224.25 250.437 224.164 250.357 224.07C250.437 224.304 250.477 224.557 250.477 224.83V226.63H249.167V224.85C249.167 224.717 249.173 224.587 249.187 224.46C249.207 224.327 249.237 224.204 249.277 224.09C249.123 224.264 248.923 224.417 248.677 224.55L247.157 225.44L246.507 224.35L248.037 223.46C248.163 223.387 248.287 223.327 248.407 223.28C248.533 223.227 248.66 223.19 248.787 223.17C248.66 223.15 248.533 223.114 248.407 223.06C248.28 223.007 248.157 222.944 248.037 222.87L246.507 221.96L247.147 220.88L248.677 221.79C248.923 221.924 249.127 222.08 249.287 222.26C249.207 222.034 249.167 221.784 249.167 221.51V219.7H250.477V221.49C250.477 221.624 250.467 221.757 250.447 221.89C250.433 222.017 250.407 222.137 250.367 222.25C250.447 222.157 250.537 222.074 250.637 222C250.743 221.927 250.857 221.857 250.977 221.79L252.497 220.9L253.147 221.98L251.617 222.87ZM270.713 222.87C270.593 222.944 270.469 223.007 270.343 223.06C270.223 223.107 270.099 223.144 269.973 223.17C270.219 223.21 270.466 223.307 270.713 223.46L272.243 224.37L271.603 225.46L270.073 224.55C269.953 224.477 269.839 224.404 269.733 224.33C269.626 224.25 269.533 224.164 269.453 224.07C269.533 224.304 269.573 224.557 269.573 224.83V226.63H268.263V224.85C268.263 224.717 268.269 224.587 268.283 224.46C268.303 224.327 268.333 224.204 268.373 224.09C268.219 224.264 268.019 224.417 267.773 224.55L266.253 225.44L265.603 224.35L267.133 223.46C267.259 223.387 267.383 223.327 267.503 223.28C267.629 223.227 267.756 223.19 267.883 223.17C267.756 223.15 267.629 223.114 267.503 223.06C267.376 223.007 267.253 222.944 267.133 222.87L265.603 221.96L266.243 220.88L267.773 221.79C268.019 221.924 268.223 222.08 268.383 222.26C268.303 222.034 268.263 221.784 268.263 221.51V219.7H269.573V221.49C269.573 221.624 269.563 221.757 269.543 221.89C269.529 222.017 269.503 222.137 269.463 222.25C269.543 222.157 269.633 222.074 269.733 222C269.839 221.927 269.953 221.857 270.073 221.79L271.593 220.9L272.243 221.98L270.713 222.87ZM289.809 222.87C289.689 222.944 289.565 223.007 289.439 223.06C289.319 223.107 289.195 223.144 289.069 223.17C289.315 223.21 289.562 223.307 289.809 223.46L291.339 224.37L290.699 225.46L289.169 224.55C289.049 224.477 288.935 224.404 288.829 224.33C288.722 224.25 288.629 224.164 288.549 224.07C288.629 224.304 288.669 224.557 288.669 224.83V226.63H287.359V224.85C287.359 224.717 287.365 224.587 287.379 224.46C287.399 224.327 287.429 224.204 287.469 224.09C287.315 224.264 287.115 224.417 286.869 224.55L285.349 225.44L284.699 224.35L286.229 223.46C286.355 223.387 286.479 223.327 286.599 223.28C286.725 223.227 286.852 223.19 286.979 223.17C286.852 223.15 286.725 223.114 286.599 223.06C286.472 223.007 286.349 222.944 286.229 222.87L284.699 221.96L285.339 220.88L286.869 221.79C287.115 221.924 287.319 222.08 287.479 222.26C287.399 222.034 287.359 221.784 287.359 221.51V219.7H288.669V221.49C288.669 221.624 288.659 221.757 288.639 221.89C288.625 222.017 288.599 222.137 288.559 222.25C288.639 222.157 288.729 222.074 288.829 222C288.935 221.927 289.049 221.857 289.169 221.79L290.689 220.9L291.339 221.98L289.809 222.87ZM323.631 225.6L323.191 226.13C323.444 226.017 323.718 225.93 324.011 225.87C324.304 225.81 324.621 225.78 324.961 225.78C325.501 225.78 326.028 225.87 326.541 226.05C327.054 226.23 327.511 226.5 327.911 226.86C328.311 227.22 328.631 227.674 328.871 228.22C329.118 228.76 329.241 229.397 329.241 230.13C329.241 230.804 329.114 231.44 328.861 232.04C328.614 232.64 328.261 233.164 327.801 233.61C327.348 234.057 326.801 234.41 326.161 234.67C325.528 234.93 324.821 235.06 324.041 235.06C323.248 235.06 322.538 234.937 321.911 234.69C321.284 234.437 320.751 234.084 320.311 233.63C319.871 233.177 319.534 232.637 319.301 232.01C319.068 231.377 318.951 230.68 318.951 229.92C318.951 229.22 319.088 228.51 319.361 227.79C319.641 227.07 320.064 226.33 320.631 225.57L324.001 221.03C324.134 220.857 324.331 220.707 324.591 220.58C324.851 220.454 325.148 220.39 325.481 220.39H327.931L323.631 225.6ZM323.991 232.84C324.351 232.84 324.684 232.777 324.991 232.65C325.298 232.524 325.561 232.347 325.781 232.12C326.001 231.894 326.174 231.63 326.301 231.33C326.428 231.024 326.491 230.69 326.491 230.33C326.491 229.937 326.431 229.584 326.311 229.27C326.191 228.957 326.021 228.694 325.801 228.48C325.581 228.26 325.318 228.094 325.011 227.98C324.704 227.867 324.364 227.81 323.991 227.81C323.638 227.81 323.314 227.874 323.021 228C322.728 228.12 322.474 228.294 322.261 228.52C322.054 228.74 321.891 229.004 321.771 229.31C321.658 229.617 321.601 229.954 321.601 230.32C321.601 230.7 321.651 231.047 321.751 231.36C321.851 231.667 322.001 231.93 322.201 232.15C322.401 232.37 322.648 232.54 322.941 232.66C323.241 232.78 323.591 232.84 323.991 232.84ZM341.403 224.48C341.509 223.774 341.709 223.154 342.003 222.62C342.296 222.087 342.663 221.644 343.103 221.29C343.543 220.937 344.043 220.674 344.603 220.5C345.169 220.32 345.779 220.23 346.433 220.23C347.126 220.23 347.746 220.33 348.293 220.53C348.846 220.724 349.313 220.99 349.693 221.33C350.073 221.67 350.363 222.067 350.563 222.52C350.769 222.974 350.873 223.46 350.873 223.98C350.873 224.44 350.823 224.847 350.723 225.2C350.629 225.547 350.486 225.85 350.293 226.11C350.106 226.37 349.873 226.59 349.593 226.77C349.319 226.95 349.003 227.1 348.643 227.22C350.309 227.767 351.143 228.877 351.143 230.55C351.143 231.29 351.006 231.944 350.733 232.51C350.459 233.07 350.093 233.54 349.633 233.92C349.173 234.3 348.636 234.587 348.023 234.78C347.416 234.967 346.779 235.06 346.113 235.06C345.406 235.06 344.783 234.98 344.243 234.82C343.703 234.66 343.226 234.42 342.813 234.1C342.406 233.78 342.056 233.38 341.763 232.9C341.469 232.414 341.213 231.847 340.993 231.2L342.213 230.7C342.533 230.567 342.829 230.53 343.103 230.59C343.383 230.65 343.583 230.797 343.703 231.03C343.836 231.284 343.976 231.517 344.123 231.73C344.276 231.944 344.446 232.13 344.633 232.29C344.819 232.444 345.029 232.564 345.263 232.65C345.503 232.737 345.776 232.78 346.083 232.78C346.469 232.78 346.806 232.717 347.093 232.59C347.379 232.464 347.619 232.3 347.813 232.1C348.006 231.894 348.149 231.664 348.243 231.41C348.343 231.15 348.393 230.894 348.393 230.64C348.393 230.307 348.363 230.007 348.303 229.74C348.243 229.467 348.103 229.237 347.883 229.05C347.669 228.857 347.349 228.71 346.923 228.61C346.503 228.504 345.929 228.45 345.203 228.45V226.51C345.809 226.51 346.306 226.46 346.693 226.36C347.079 226.26 347.383 226.12 347.603 225.94C347.823 225.76 347.973 225.544 348.053 225.29C348.139 225.037 348.183 224.76 348.183 224.46C348.183 223.827 348.016 223.344 347.683 223.01C347.356 222.677 346.889 222.51 346.283 222.51C346.016 222.51 345.769 222.55 345.543 222.63C345.323 222.704 345.123 222.807 344.943 222.94C344.769 223.074 344.619 223.23 344.493 223.41C344.366 223.59 344.273 223.787 344.213 224C344.086 224.334 343.923 224.557 343.723 224.67C343.523 224.777 343.233 224.8 342.853 224.74L341.403 224.48ZM369.654 229.36V225.04C369.654 224.814 369.661 224.574 369.674 224.32C369.694 224.06 369.721 223.79 369.754 223.51L365.554 229.36H369.654ZM373.734 229.36V230.92C373.734 231.067 373.684 231.194 373.584 231.3C373.491 231.4 373.357 231.45 373.184 231.45H372.054V234.9H369.654V231.45H363.664C363.491 231.45 363.331 231.397 363.184 231.29C363.044 231.184 362.957 231.044 362.924 230.87L362.634 229.49L369.434 220.38H372.054V229.36H373.734ZM385.806 224.48C385.912 223.774 386.112 223.154 386.406 222.62C386.699 222.087 387.066 221.644 387.506 221.29C387.946 220.937 388.446 220.674 389.006 220.5C389.572 220.32 390.182 220.23 390.836 220.23C391.529 220.23 392.149 220.33 392.696 220.53C393.249 220.724 393.716 220.99 394.096 221.33C394.476 221.67 394.766 222.067 394.966 222.52C395.172 222.974 395.276 223.46 395.276 223.98C395.276 224.44 395.226 224.847 395.126 225.2C395.032 225.547 394.889 225.85 394.696 226.11C394.509 226.37 394.276 226.59 393.996 226.77C393.722 226.95 393.406 227.1 393.046 227.22C394.712 227.767 395.546 228.877 395.546 230.55C395.546 231.29 395.409 231.944 395.136 232.51C394.862 233.07 394.496 233.54 394.036 233.92C393.576 234.3 393.039 234.587 392.426 234.78C391.819 234.967 391.182 235.06 390.516 235.06C389.809 235.06 389.186 234.98 388.646 234.82C388.106 234.66 387.629 234.42 387.216 234.1C386.809 233.78 386.459 233.38 386.166 232.9C385.872 232.414 385.616 231.847 385.396 231.2L386.616 230.7C386.936 230.567 387.232 230.53 387.506 230.59C387.786 230.65 387.986 230.797 388.106 231.03C388.239 231.284 388.379 231.517 388.526 231.73C388.679 231.944 388.849 232.13 389.036 232.29C389.222 232.444 389.432 232.564 389.666 232.65C389.906 232.737 390.179 232.78 390.486 232.78C390.872 232.78 391.209 232.717 391.496 232.59C391.782 232.464 392.022 232.3 392.216 232.1C392.409 231.894 392.552 231.664 392.646 231.41C392.746 231.15 392.796 230.894 392.796 230.64C392.796 230.307 392.766 230.007 392.706 229.74C392.646 229.467 392.506 229.237 392.286 229.05C392.072 228.857 391.752 228.71 391.326 228.61C390.906 228.504 390.332 228.45 389.606 228.45V226.51C390.212 226.51 390.709 226.46 391.096 226.36C391.482 226.26 391.786 226.12 392.006 225.94C392.226 225.76 392.376 225.544 392.456 225.29C392.542 225.037 392.586 224.76 392.586 224.46C392.586 223.827 392.419 223.344 392.086 223.01C391.759 222.677 391.292 222.51 390.686 222.51C390.419 222.51 390.172 222.55 389.946 222.63C389.726 222.704 389.526 222.807 389.346 222.94C389.172 223.074 389.022 223.23 388.896 223.41C388.769 223.59 388.676 223.787 388.616 224C388.489 224.334 388.326 224.557 388.126 224.67C387.926 224.777 387.636 224.8 387.256 224.74L385.806 224.48Z" fill="#2E3B3C"/>
</svg>
