<svg width="15" height="12" viewBox="0 0 15 12" fill="none" xmlns="http://www.w3.org/2000/svg">
<path d="M3.28184 1.34375C3.28184 1.21943 3.23246 1.1002 3.14455 1.01229C3.05664 0.924386 2.93741 0.875 2.81309 0.875C2.68877 0.875 2.56954 0.924386 2.48164 1.01229C2.39373 1.1002 2.34434 1.21943 2.34434 1.34375V9.58719L1.26997 8.51187C1.18195 8.42386 1.06257 8.37441 0.938092 8.37441C0.813615 8.37441 0.694236 8.42386 0.606217 8.51187C0.518198 8.59989 0.46875 8.71927 0.46875 8.84375C0.46875 8.96823 0.518198 9.08761 0.606217 9.17562L2.48122 11.0497L2.48778 11.0562C2.57579 11.1421 2.69414 11.1896 2.81706 11.1886C2.93998 11.1875 3.0575 11.1379 3.14403 11.0506L5.01903 9.17562C5.06261 9.1321 5.0972 9.08042 5.12081 9.02354C5.14442 8.96665 5.15659 8.90567 5.15663 8.84408C5.15668 8.78249 5.14459 8.72149 5.12106 8.66457C5.09753 8.60765 5.06302 8.55592 5.0195 8.51234C4.97598 8.46876 4.9243 8.43418 4.86741 8.41057C4.81053 8.38696 4.74955 8.37478 4.68795 8.37474C4.62636 8.37469 4.56537 8.38678 4.50845 8.41031C4.45153 8.43384 4.3998 8.46835 4.35622 8.51187L3.28184 9.58719V1.34375ZM6.56309 2.28125C6.56309 2.15693 6.61248 2.0377 6.70039 1.94979C6.78829 1.86189 6.90752 1.8125 7.03184 1.8125H13.5943C13.7187 1.8125 13.8379 1.86189 13.9258 1.94979C14.0137 2.0377 14.0631 2.15693 14.0631 2.28125C14.0631 2.40557 14.0137 2.5248 13.9258 2.61271C13.8379 2.70061 13.7187 2.75 13.5943 2.75H7.03184C6.90752 2.75 6.78829 2.70061 6.70039 2.61271C6.61248 2.5248 6.56309 2.40557 6.56309 2.28125ZM7.03184 4.625C6.90752 4.625 6.78829 4.67439 6.70039 4.76229C6.61248 4.8502 6.56309 4.96943 6.56309 5.09375C6.56309 5.21807 6.61248 5.3373 6.70039 5.42521C6.78829 5.51311 6.90752 5.5625 7.03184 5.5625H11.7193C11.8437 5.5625 11.9629 5.51311 12.0508 5.42521C12.1387 5.3373 12.1881 5.21807 12.1881 5.09375C12.1881 4.96943 12.1387 4.8502 12.0508 4.76229C11.9629 4.67439 11.8437 4.625 11.7193 4.625H7.03184ZM7.03184 7.4375C6.90752 7.4375 6.78829 7.48688 6.70039 7.57479C6.61248 7.6627 6.56309 7.78193 6.56309 7.90625C6.56309 8.03057 6.61248 8.1498 6.70039 8.23771C6.78829 8.32561 6.90752 8.375 7.03184 8.375H9.84434C9.96866 8.375 10.0879 8.32561 10.1758 8.23771C10.2637 8.1498 10.3131 8.03057 10.3131 7.90625C10.3131 7.78193 10.2637 7.6627 10.1758 7.57479C10.0879 7.48688 9.96866 7.4375 9.84434 7.4375H7.03184ZM7.03184 10.25C6.90752 10.25 6.78829 10.2994 6.70039 10.3873C6.61248 10.4752 6.56309 10.5944 6.56309 10.7187C6.56309 10.8431 6.61248 10.9623 6.70039 11.0502C6.78829 11.1381 6.90752 11.1875 7.03184 11.1875H7.96934C8.09366 11.1875 8.21289 11.1381 8.3008 11.0502C8.38871 10.9623 8.43809 10.8431 8.43809 10.7187C8.43809 10.5944 8.38871 10.4752 8.3008 10.3873C8.21289 10.2994 8.09366 10.25 7.96934 10.25H7.03184Z" fill="#2E3B3C"/>
</svg>
