<svg width="24" height="25" viewBox="0 0 24 25" fill="none" xmlns="http://www.w3.org/2000/svg">
<path d="M12 13.8984C12.5523 13.8984 13 13.4507 13 12.8984C13 12.3462 12.5523 11.8984 12 11.8984C11.4477 11.8984 11 12.3462 11 12.8984C11 13.4507 11.4477 13.8984 12 13.8984Z" stroke="#2E3B3C" stroke-width="2" stroke-linecap="round" stroke-linejoin="round"/>
<path d="M12 6.89844C12.5523 6.89844 13 6.45072 13 5.89844C13 5.34615 12.5523 4.89844 12 4.89844C11.4477 4.89844 11 5.34615 11 5.89844C11 6.45072 11.4477 6.89844 12 6.89844Z" stroke="#2E3B3C" stroke-width="2" stroke-linecap="round" stroke-linejoin="round"/>
<path d="M12 20.8984C12.5523 20.8984 13 20.4507 13 19.8984C13 19.3462 12.5523 18.8984 12 18.8984C11.4477 18.8984 11 19.3462 11 19.8984C11 20.4507 11.4477 20.8984 12 20.8984Z" stroke="#2E3B3C" stroke-width="2" stroke-linecap="round" stroke-linejoin="round"/>
</svg>
