<svg width="55" height="59" viewBox="0 0 55 59" fill="none" xmlns="http://www.w3.org/2000/svg">
<path d="M25.6242 8.94316V19.8116C25.6242 20.1842 25.9347 20.4947 26.3073 20.4947H28.6673C29.0399 20.4947 29.3505 20.1842 29.3505 19.8116V8.94316H33.2631C33.5736 8.94316 33.8221 8.81895 33.9463 8.50842C34.0705 8.26 34.0705 7.94947 33.8842 7.70105L28.1084 0.310526C27.9842 0.124211 27.7357 0 27.5494 0C27.3631 0 27.0526 0.124211 26.9284 0.310526L21.1526 7.76316C20.9663 8.01158 20.9663 8.26 21.0905 8.57053C21.2147 8.81895 21.4631 9.00526 21.7736 9.00526H25.6242V8.94316Z" fill="#2E3B3C"/>
<path d="M13.0179 26.2711L14.819 24.7806C15.1295 24.5322 15.1295 24.0974 14.8811 23.7869L7.92529 15.4027L10.9063 12.9185C11.1548 12.7322 11.2169 12.4837 11.1548 12.1732C11.0927 11.8627 10.9063 11.6764 10.5958 11.6143L1.34213 9.6269C1.09371 9.5648 0.907393 9.6269 0.721077 9.75111C0.534762 9.87532 0.472656 10.1237 0.472656 10.3722L0.845288 19.8743C0.845288 20.1848 1.0316 20.3711 1.28002 20.4953C1.52845 20.6195 1.83897 20.5574 2.02529 20.3711L5.00634 17.8869L11.9621 26.209C12.2727 26.4574 12.7074 26.5195 13.0179 26.2711Z" fill="#2E3B3C"/>
<path d="M54.2552 9.75077C54.0689 9.62656 53.8205 9.56445 53.6342 9.56445L44.3805 11.5518C44.07 11.6139 43.8837 11.8002 43.8216 12.1108C43.7595 12.4213 43.8216 12.6697 44.07 12.856L47.051 15.3402L40.0331 23.7245C39.7847 24.035 39.8468 24.4697 40.0953 24.7181L41.8963 26.2708C42.2068 26.5192 42.6416 26.4571 42.89 26.2087L49.9079 17.8866L52.8889 20.3708C53.1374 20.5571 53.3858 20.6192 53.6342 20.495C53.8826 20.3708 54.0689 20.1223 54.0689 19.8739L54.4416 10.4339C54.5037 10.1234 54.4416 9.93709 54.2552 9.75077Z" fill="#2E3B3C"/>
<path d="M27.4875 24.3447C17.9233 24.3447 10.1602 32.1079 10.1602 41.6721C10.1602 51.2363 17.9233 58.9995 27.4875 58.9995C37.0517 58.9995 44.8149 51.2363 44.8149 41.6721C44.8149 32.1079 37.0517 24.3447 27.4875 24.3447ZM27.4875 55.1489C20.097 55.1489 14.0107 49.1247 14.0107 41.6721C14.0107 34.2816 20.0349 28.1953 27.4875 28.1953C34.9402 28.1953 40.9644 34.2195 40.9644 41.6721C40.9644 49.0626 34.9402 55.1489 27.4875 55.1489Z" fill="#2E3B3C"/>
<path d="M28.1713 40.1817H26.805C26.3702 40.1817 25.9976 39.9954 25.6871 39.6848C25.3766 39.3743 25.2524 38.9396 25.3145 38.5048C25.3766 37.7596 26.1218 37.1385 26.9292 37.1385H28.4818C28.9166 37.1385 29.3513 37.4491 29.4134 37.8838C29.4755 38.1322 29.7239 38.3806 30.0345 38.3806H31.8355C32.0218 38.3806 32.2081 38.3185 32.3323 38.1943C32.4566 38.0701 32.5187 37.8838 32.4566 37.7596C32.2702 35.8964 30.8418 34.468 28.9787 34.2196V32.667C28.9787 32.2943 28.7302 32.0459 28.3576 32.0459H26.5566C26.1839 32.0459 25.9355 32.3564 25.9355 32.667V34.2196C23.6376 34.6543 22.0229 36.7659 22.2713 39.1259C22.5197 41.4238 24.5692 43.2248 26.9913 43.2248H28.1713C28.606 43.2248 28.9787 43.4112 29.2892 43.7217C29.5997 44.0322 29.7239 44.467 29.6618 44.9017C29.5997 45.647 28.8545 46.268 28.0471 46.268H26.4945C26.0597 46.268 25.625 45.9575 25.5629 45.5227C25.5008 45.2743 25.2524 45.0259 24.9418 45.0259H23.1408C22.9545 45.0259 22.7681 45.088 22.6439 45.2122C22.5818 45.2743 22.5197 45.4606 22.5197 45.647C22.706 47.5101 24.1345 48.9385 25.9976 49.187V50.7396C25.9976 51.1122 26.246 51.3606 26.6187 51.3606H28.4197C28.7924 51.3606 29.0408 51.1122 29.0408 50.7396V49.1248C31.0281 48.6901 32.5187 47.0754 32.705 45.1501C32.8292 43.8459 32.3945 42.6038 31.525 41.6722C30.6555 40.6785 29.4755 40.1817 28.1713 40.1817Z" fill="#2E3B3C"/>
</svg>
