<svg width="78" height="82" viewBox="0 0 78 82" fill="none" xmlns="http://www.w3.org/2000/svg">
<path d="M61.9117 41.4088L64.2028 35.9497C64.7126 34.7351 64.1411 33.3371 62.9265 32.8275C61.7119 32.3178 60.3141 32.8894 59.8043 34.1037L57.4722 39.6606C57.4158 39.7708 57.3658 39.8843 57.3286 40.0026L55.038 45.4609C54.5282 46.6755 55.0997 48.0735 56.3143 48.5831C56.6158 48.7096 56.9286 48.7696 57.2362 48.7696C58.1682 48.7696 59.0533 48.2199 59.4365 47.3069L61.7688 41.7496C61.8251 41.6397 61.8747 41.5266 61.9117 41.4088Z" fill="#2E3B3C"/>
<path d="M77.8286 40.705C77.8286 31.4731 70.9224 23.8247 62.0053 22.6528V2.38506C62.0053 1.06787 60.9374 0 59.6202 0H16.8589C16.2262 0 15.6196 0.251385 15.1723 0.698822L0.698504 15.1745C0.251385 15.6217 0 16.2284 0 16.8608V79.0249C0 80.3421 1.06787 81.41 2.38506 81.41H59.6202C60.9374 81.41 62.0053 80.3421 62.0053 79.0249V58.7572C70.9224 57.5853 77.8286 49.9369 77.8286 40.705ZM14.4738 8.1437V14.474H8.1445L14.4738 8.1437ZM4.77012 76.6399V19.2439H16.8589C18.176 19.2439 19.2439 18.1761 19.2439 16.8589V4.77012H57.2352V22.6528C48.3181 23.8247 41.4118 31.4731 41.4118 40.705C41.4118 49.9369 48.3179 57.5853 57.2352 58.7572V76.6399H4.77012ZM59.6202 54.1434C52.2103 54.1434 46.1819 48.1151 46.1819 40.705C46.1819 33.2949 52.2103 27.2666 59.6202 27.2666C67.0301 27.2666 73.0585 33.2949 73.0585 40.705C73.0585 48.1151 67.0301 54.1434 59.6202 54.1434Z" fill="#2E3B3C"/>
<path d="M53.0277 35.0605C51.7801 35.0605 50.5849 36.1575 50.6426 37.4456C50.7005 38.7378 51.6906 39.8307 53.0277 39.8307C54.2752 39.8307 55.4705 38.7337 55.4128 37.4456C55.3549 36.1534 54.3648 35.0605 53.0277 35.0605Z" fill="#2E3B3C"/>
<path d="M66.2113 41.5791C64.9637 41.5791 63.7685 42.6761 63.8262 43.9642C63.8841 45.2564 64.8742 46.3492 66.2113 46.3492C67.4588 46.3492 68.6541 45.2523 68.5963 43.9642C68.5385 42.6719 67.5483 41.5791 66.2113 41.5791Z" fill="#2E3B3C"/>
<path d="M13.5101 28.7838H40.1019C41.4191 28.7838 42.4869 27.7159 42.4869 26.3987C42.4869 25.0815 41.4191 24.0137 40.1019 24.0137H13.5101C12.1929 24.0137 11.125 25.0815 11.125 26.3987C11.125 27.7159 12.1927 28.7838 13.5101 28.7838Z" fill="#2E3B3C"/>
<path d="M13.5101 38.3258H34.8543C36.1715 38.3258 37.2393 37.2579 37.2393 35.9407C37.2393 34.6235 36.1715 33.5557 34.8543 33.5557H13.5101C12.1929 33.5557 11.125 34.6235 11.125 35.9407C11.125 37.2579 12.1927 38.3258 13.5101 38.3258Z" fill="#2E3B3C"/>
<path d="M13.5101 47.8668H34.8543C36.1715 47.8668 37.2393 46.7989 37.2393 45.4817C37.2393 44.1645 36.1715 43.0967 34.8543 43.0967H13.5101C12.1929 43.0967 11.125 44.1645 11.125 45.4817C11.125 46.7989 12.1927 47.8668 13.5101 47.8668Z" fill="#2E3B3C"/>
<path d="M42.4868 55.0218C42.4868 53.7046 41.4189 52.6367 40.1017 52.6367H13.5101C12.1929 52.6367 11.125 53.7046 11.125 55.0218C11.125 56.339 12.1929 57.4068 13.5101 57.4068H40.1019C41.4191 57.4068 42.4868 56.339 42.4868 55.0218Z" fill="#2E3B3C"/>
<path d="M50.0164 66.9482H39.0081C37.6909 66.9482 36.623 68.0161 36.623 69.3333C36.623 70.6505 37.6909 71.7184 39.0081 71.7184H50.0164C51.3336 71.7184 52.4015 70.6505 52.4015 69.3333C52.4015 68.0161 51.3338 66.9482 50.0164 66.9482Z" fill="#2E3B3C"/>
</svg>
