<svg width="42" height="58" viewBox="0 0 42 58" fill="none" xmlns="http://www.w3.org/2000/svg">
<path d="M37.1881 8.69126H31.6366L31.1475 6.21129C30.9996 5.46048 30.3398 4.91443 29.5776 4.91443H26.6653C26.2672 2.13869 23.8782 0 21.0001 0C18.122 0 15.733 2.13869 15.3348 4.91443H12.4226C11.649 4.91443 10.9892 5.46048 10.8527 6.21129L10.3635 8.69126H4.81205C2.16144 8.69126 0 10.8527 0 13.5033V52.978C0 55.6286 2.16144 57.7901 4.81205 57.7901H37.1881C39.8387 57.7901 42.0002 55.6286 42.0002 52.978V13.5033C42.0002 10.8527 39.8387 8.69126 37.1881 8.69126ZM21.0001 3.20803C22.1036 3.20803 23.0478 3.92472 23.3891 4.91443H18.6111C18.9524 3.92472 19.8966 3.20803 21.0001 3.20803ZM13.7422 8.12246H28.258L29.0998 12.4567H12.9004L13.7422 8.12246ZM38.7922 52.978C38.7922 53.8653 38.0755 54.582 37.1881 54.582H4.81205C3.92472 54.582 3.20803 53.8653 3.20803 52.978V13.5033C3.20803 12.616 3.92472 11.8993 4.81205 11.8993H9.73785L9.37382 13.7536C9.21456 14.7888 9.954 15.6647 10.9437 15.6647H31.0451C31.0565 15.6647 31.0565 15.6647 31.0565 15.6647C32.1941 15.6647 32.9449 14.5158 32.5695 13.5261L32.251 11.8879H37.1768C38.0641 11.8879 38.7808 12.6046 38.7808 13.4919V52.978H38.7922Z" fill="#2E3B3C"/>
<path d="M34.3905 27.917H7.33839C6.45106 27.917 5.73438 28.6337 5.73438 29.521C5.73438 30.4083 6.45106 31.125 7.33839 31.125H34.3905C35.2778 31.125 35.9945 30.4083 35.9945 29.521C35.9945 28.6337 35.2778 27.917 34.3905 27.917Z" fill="#2E3B3C"/>
<path d="M34.3881 21.0225H20.9985C20.1112 21.0225 19.3945 21.7391 19.3945 22.6265C19.3945 23.5138 20.1112 24.2305 20.9985 24.2305H34.3881C35.2754 24.2305 35.9921 23.5138 35.9921 22.6265C35.9921 21.7391 35.2754 21.0225 34.3881 21.0225Z" fill="#2E3B3C"/>
<path d="M19.2263 34.7988H7.33839C6.45106 34.7988 5.73438 35.5155 5.73438 36.4028C5.73438 37.2902 6.45106 38.0069 7.33839 38.0069H19.2263C20.1136 38.0069 20.8303 37.2902 20.8303 36.4028C20.8303 35.5155 20.1136 34.7988 19.2263 34.7988Z" fill="#2E3B3C"/>
<path d="M19.2263 41.6816H7.33839C6.45106 41.6816 5.73438 42.3983 5.73438 43.2857C5.73438 44.173 6.45106 44.8897 7.33839 44.8897H19.2263C20.1136 44.8897 20.8303 44.173 20.8303 43.2857C20.8303 42.4097 20.1136 41.6816 19.2263 41.6816Z" fill="#2E3B3C"/>
<path d="M19.2263 48.5752H7.33839C6.45106 48.5752 5.73438 49.2919 5.73438 50.1792C5.73438 51.0665 6.45106 51.7832 7.33839 51.7832H19.2263C20.1136 51.7832 20.8303 51.0665 20.8303 50.1792C20.8303 49.2919 20.1136 48.5752 19.2263 48.5752Z" fill="#2E3B3C"/>
<path d="M8.14697 23.1958V24.4927C8.14697 25.38 8.86366 26.0967 9.75099 26.0967C10.6383 26.0967 11.355 25.38 11.355 24.4927V23.1958H12.6519C13.5392 23.1958 14.2559 22.4791 14.2559 21.5918C14.2559 20.7045 13.5392 19.9878 12.6519 19.9878H11.355V18.6909C11.355 17.8036 10.6383 17.0869 9.75099 17.0869C8.86366 17.0869 8.14697 17.8036 8.14697 18.6909V19.9878H6.85011C5.96278 19.9878 5.24609 20.7045 5.24609 21.5918C5.24609 22.4791 5.96278 23.1958 6.85011 23.1958H8.14697Z" fill="#2E3B3C"/>
<path d="M28.8949 37.1087C29.8391 37.1087 30.6013 37.8595 30.6013 38.7696C30.6013 39.6342 31.318 40.3281 32.2053 40.3281C33.0926 40.3281 33.8093 39.6228 33.8093 38.7696C33.8093 36.6764 32.4215 34.9018 30.4989 34.2533V33.4911C30.4989 32.6266 29.7822 31.9326 28.8949 31.9326C28.0076 31.9326 27.2909 32.6266 27.2909 33.4911V34.2533C25.3683 34.9018 23.9805 36.6764 23.9805 38.7696C23.9805 41.4088 26.1874 43.5589 28.8949 43.5589C29.8391 43.5589 30.6013 44.3097 30.6013 45.2198C30.6013 46.1299 29.8391 46.8807 28.8949 46.8807C27.9507 46.8807 27.1885 46.1299 27.1885 45.2198C27.1885 44.3552 26.4718 43.6613 25.5845 43.6613C24.6972 43.6613 23.9805 44.3552 23.9805 45.2198C23.9805 47.313 25.3683 49.0876 27.2909 49.7361V50.4982C27.2909 51.3628 28.0076 52.0568 28.8949 52.0568C29.7822 52.0568 30.4989 51.3514 30.4989 50.4982V49.7361C32.4215 49.0876 33.8093 47.313 33.8093 45.2198C33.8093 42.5805 31.6024 40.4305 28.8949 40.4305C27.9507 40.4305 27.1885 39.6797 27.1885 38.7696C27.1885 37.8481 27.9507 37.1087 28.8949 37.1087Z" fill="#2E3B3C"/>
</svg>
