<svg width="72" height="84" viewBox="0 0 72 84" fill="none" xmlns="http://www.w3.org/2000/svg">
<path d="M58.9091 51.7091V7.91804L49.0909 0L42.5455 5.29969L36 0L29.4545 5.29985L22.9091 0L16.3636 5.29969L9.81818 0L0 7.91804V73.9636C0 79.3774 4.40444 83.7818 9.81818 83.7818H62.1818C67.5956 83.7818 72 79.3774 72 73.9636V51.7091H58.9091ZM9.81818 77.2364C8.0136 77.2364 6.54545 75.7682 6.54545 73.9636V11.0639L9.81818 8.44576L16.3636 13.6821L22.9091 8.44576L29.4545 13.6821L36 8.44576L42.5455 13.6821L49.0909 8.44576L52.3636 11.0639V73.9636C52.3636 75.1106 52.5613 76.2123 52.9244 77.2364H9.81818ZM65.4545 73.9636C65.4545 75.7682 63.9864 77.2364 62.1818 77.2364C60.3772 77.2364 58.9091 75.7682 58.9091 73.9636V58.2545H65.4545V73.9636Z" fill="#2E3B3C"/>
<path d="M17.3164 46.1211L36.9497 26.4878L41.5774 31.1154L21.944 50.7487L17.3164 46.1211Z" fill="#2E3B3C"/>
<path d="M19.636 32.0723C21.4435 32.0723 22.9087 30.6071 22.9087 28.7996C22.9087 26.9921 21.4435 25.5269 19.636 25.5269C17.8285 25.5269 16.3633 26.9921 16.3633 28.7996C16.3633 30.6071 17.8285 32.0723 19.636 32.0723Z" fill="#2E3B3C"/>
<path d="M39.2727 51.709C41.0802 51.709 42.5455 50.2438 42.5455 48.4363C42.5455 46.6288 41.0802 45.1636 39.2727 45.1636C37.4652 45.1636 36 46.6288 36 48.4363C36 50.2438 37.4652 51.709 39.2727 51.709Z" fill="#2E3B3C"/>
<path d="M16.3633 61.5269H42.5451V68.0723H16.3633V61.5269Z" fill="#2E3B3C"/>
</svg>
