<svg width="62" height="51" viewBox="0 0 62 51" fill="none" xmlns="http://www.w3.org/2000/svg">
<path d="M61.1505 13.3269L48.805 0.981428C48.2959 0.472337 47.5323 0.472337 47.0232 0.981428L42.6959 5.3087C42.0596 5.94506 41.4232 6.32688 40.6596 6.7087L37.8596 5.94506C35.3141 5.3087 32.6414 5.43597 30.2232 6.32688C28.5687 6.96325 27.0414 7.85415 25.7687 9.12688C25.1323 8.87234 24.4959 8.74506 23.9869 8.61779C22.205 8.36325 20.5505 7.47234 19.2778 6.19961L14.9505 1.87234C14.6959 1.61779 14.4414 1.49052 14.0596 1.49052C13.6778 1.49052 13.4232 1.61779 13.1687 1.87234L0.823224 14.2178C0.314134 14.7269 0.314134 15.4905 0.823224 15.9996L5.1505 20.3269C6.42322 21.5996 7.31413 23.2542 7.56868 25.036C7.82322 26.436 8.33231 27.836 8.96868 28.9814L7.44141 30.7632C5.91413 32.6723 6.16868 35.4723 8.07777 36.9996C8.8414 37.636 9.85959 38.0178 10.8778 38.0178C11.005 38.0178 11.1323 38.0178 11.3869 38.0178C11.5141 39.1632 12.0232 40.3087 13.0414 41.0723C13.805 41.7087 14.8232 42.0905 15.8414 42.0905C15.9687 42.0905 16.096 42.0905 16.3505 42.0905C16.4778 43.236 16.9869 44.3814 18.005 45.1451C18.7687 45.7814 19.7869 46.1632 20.805 46.1632C20.9323 46.1632 21.0596 46.1632 21.3141 46.1632C21.4414 47.3087 21.9505 48.3269 22.9687 49.0905C23.7323 49.7269 24.7505 50.1087 25.7687 50.1087C26.7869 50.1087 27.805 49.7269 28.5687 49.0905L29.0778 49.5996C29.9687 50.4905 31.2414 50.9996 32.3869 50.9996C33.405 50.9996 34.4232 50.6178 35.3141 49.8541C36.0778 49.0905 36.5869 48.1996 36.7141 47.1814C36.9687 47.1814 37.2232 47.3087 37.4778 47.3087C38.6232 47.3087 39.7687 46.7996 40.5323 46.036C41.0414 45.5269 41.4232 45.0178 41.5505 44.3814C42.3141 44.8905 43.205 45.1451 44.0959 45.1451C45.2414 45.1451 46.3869 44.7632 47.1505 43.8723C48.0414 42.9814 48.4232 41.836 48.4232 40.6905C48.4232 40.6905 48.4232 40.6905 48.5505 40.6905C49.5687 40.6905 50.5869 40.3087 51.4778 39.5451C52.3687 38.7814 52.8778 37.636 52.8778 36.3632C52.8778 35.2178 52.4959 33.9451 51.605 33.1814L50.3323 31.9087L51.7323 30.5087C53.3869 28.8542 54.5323 26.6905 54.9141 24.3996C55.1687 22.6178 56.0596 20.9632 57.3323 19.6905L61.6596 15.3632C61.6596 14.5996 61.6596 13.836 61.1505 13.3269ZM9.73231 35.0905C8.96868 34.4542 8.8414 33.3087 9.47777 32.5451L13.296 27.9632C13.6778 27.5814 14.1869 27.3269 14.6959 27.3269C15.0778 27.3269 15.5869 27.4542 15.8414 27.7087C16.605 28.3451 16.7323 29.4905 16.096 30.2542L12.2778 34.836C11.7687 35.5996 10.496 35.7269 9.73231 35.0905ZM14.5687 39.036C13.805 38.3996 13.6778 37.2542 14.3141 36.4905L18.1323 31.9087L20.1687 29.4905C20.5505 29.1087 21.0596 28.8542 21.5687 28.8542C21.9505 28.8542 22.4596 28.9814 22.7141 29.236C23.0959 29.4905 23.3505 29.9996 23.3505 30.5087C23.3505 31.0178 23.2232 31.5269 22.9687 31.9087L22.3323 32.6723L17.2414 38.9087C16.605 39.5451 15.3323 39.6723 14.5687 39.036ZM19.405 43.1087C19.0232 42.8542 18.7687 42.3451 18.7687 41.836C18.7687 41.3269 18.896 40.8178 19.1505 40.436L24.2414 34.1996C24.6232 33.8178 25.1323 33.5632 25.6414 33.5632C26.0232 33.5632 26.5323 33.6905 26.7869 33.9451C27.1687 34.1996 27.4232 34.7087 27.4232 35.2178C27.4232 35.7269 27.2959 36.236 27.0414 36.6178L21.9505 42.8542C21.4414 43.4905 20.1687 43.6178 19.405 43.1087ZM24.2414 47.0541C23.8596 46.7996 23.605 46.2905 23.605 45.7814C23.605 45.2723 23.7323 44.7632 23.9869 44.3814L27.805 39.7996C28.1869 39.4178 28.6959 39.1632 29.205 39.1632C29.5869 39.1632 30.0959 39.2905 30.3505 39.5451C30.7323 39.7996 30.9869 40.3087 30.9869 40.8178C30.9869 41.3269 30.8596 41.836 30.605 42.2178L26.7869 46.7996C26.2778 47.5632 25.005 47.6905 24.2414 47.0541ZM33.1505 47.8178C32.3869 48.4542 31.2414 48.3269 30.4778 47.5632L29.9687 47.0541L32.2596 44.1269L33.2778 45.1451C33.6596 45.5269 33.7869 46.036 33.7869 46.5451C33.7869 46.9269 33.5323 47.436 33.1505 47.8178ZM49.4414 37.3814C48.6778 38.0178 47.5323 37.8905 46.7687 37.1269L33.6596 24.1451C33.1505 23.636 32.3869 23.636 31.8778 24.1451C31.3687 24.6542 31.3687 25.4178 31.8778 25.9269L44.9869 39.036L45.1141 39.1632C45.8778 39.9269 45.8778 41.0723 45.1141 41.836C44.3505 42.5996 43.205 42.5996 42.4414 41.836L37.4778 36.8723L29.205 28.5996C28.6959 28.0905 27.9323 28.0905 27.4232 28.5996C26.9141 29.1087 26.9141 29.8723 27.4232 30.3814L35.6959 38.6542L38.4959 41.4542C38.8778 41.836 39.005 42.2178 39.005 42.7269C39.005 43.236 38.7505 43.7451 38.4959 43.9996C37.7323 44.7632 36.5869 44.7632 35.8232 43.9996L33.5323 41.7087C33.6596 41.3269 33.6596 40.9451 33.6596 40.436C33.5323 39.2905 33.0232 38.2723 32.005 37.5087C31.3687 36.9996 30.7323 36.7451 29.9687 36.6178C30.0959 36.1087 30.2232 35.4723 30.0959 34.9632C29.9687 33.8178 29.4596 32.7996 28.4414 32.036C27.6778 31.3996 26.7869 31.1451 25.8959 31.0178C25.8959 30.7632 25.8959 30.5087 25.8959 30.2542C25.7687 29.1087 25.2596 28.0905 24.2414 27.3269C23.4778 26.6905 22.4596 26.3087 21.4414 26.3087C20.4232 26.3087 19.405 26.6905 18.6414 27.3269C18.3869 26.6905 18.005 26.1814 17.4959 25.6723C16.7323 25.036 15.7141 24.6542 14.6959 24.6542C13.4232 24.6542 12.1505 25.2905 11.2596 26.3087L10.7505 26.9451C10.3687 26.1814 10.2414 25.4178 10.1141 24.6542C9.73231 22.3632 8.58686 20.1996 6.93231 18.5451L3.49595 15.1087L14.0596 4.54506L17.4959 7.98143C19.1505 9.63597 21.3141 10.7814 23.605 11.1632L18.5141 15.8723C17.7505 16.5087 17.3687 17.5269 17.3687 18.4178C17.3687 19.436 17.7505 20.3269 18.3869 21.0905C19.5323 22.3632 21.3141 22.6178 22.8414 21.8542L28.8232 18.7996C29.7141 18.4178 30.605 18.1632 31.6232 18.4178C32.5141 18.5451 33.2778 18.9269 33.9141 19.5632L49.6959 34.836C50.0778 35.2178 50.205 35.7269 50.205 36.236C50.0778 36.6178 49.8232 37.1269 49.4414 37.3814ZM55.0414 17.5269C53.3869 19.1814 52.2414 21.3451 51.8596 23.636C51.605 25.4178 50.7141 27.0723 49.4414 28.3451L48.0414 29.7451L35.4414 17.5269C34.4232 16.5087 33.2778 15.9996 31.8778 15.7451C30.3505 15.4905 28.8232 15.7451 27.4232 16.3814L21.4414 19.436C20.9323 19.6905 20.4232 19.5632 20.0414 19.1814C19.7869 18.9269 19.6596 18.6723 19.7869 18.2905C19.7869 17.9087 19.9141 17.6542 20.1687 17.5269L27.5505 10.7814C28.5687 9.76324 29.8414 8.99961 31.2414 8.49052C33.2778 7.72688 35.3141 7.72688 37.3505 8.23597L40.1505 8.99961C40.2778 8.99961 40.2778 8.99961 40.405 8.99961C40.7869 9.25415 41.1687 9.25415 41.5505 8.99961C42.6959 8.49052 43.7141 7.72688 44.605 6.83597L48.0414 3.39961L58.605 13.9632L55.0414 17.5269Z" fill="#2E3B3C"/>
</svg>
