<svg width="84" height="84" viewBox="0 0 84 84" fill="none" xmlns="http://www.w3.org/2000/svg">
<path d="M81.5379 31.6644H72.0224V18.3755C72.0224 17.7173 71.7512 17.0848 71.3017 16.6355C71.3017 16.6191 55.4875 0.656495 55.3928 0.576926C55.0264 0.269149 54.5682 0.0714566 54.088 0.0171526C53.8864 -0.0053236 55.9109 0.000746627 16.8982 0.000746627C14.1843 0.000746627 11.9764 2.20867 11.9764 4.92255V31.6644H2.4609C1.10183 31.6644 0 32.7662 0 34.1253V70.8748C0 72.2338 1.10183 73.3357 2.4609 73.3357H11.9764V79.0778C11.9764 81.7916 14.1843 83.9996 16.8982 83.9996H67.1006C69.8145 83.9996 72.0224 81.7916 72.0224 79.0778V73.3357H81.5379C82.897 73.3357 83.9988 72.2338 83.9988 70.8748V34.1253C83.9988 32.766 82.897 31.6644 81.5379 31.6644ZM56.2727 8.56682L63.6204 15.9146H56.2727V8.56682ZM16.8982 4.92255H51.3508V18.3755C51.3508 19.7346 52.4527 20.8364 53.8117 20.8364H67.1006V31.6644H16.8982V4.92255ZM67.1006 79.0778H16.8982V73.3357H67.1006V79.0778ZM79.077 68.4138H4.92181V36.5862H79.077V68.4138Z" fill="#2E3B3C"/>
<path d="M27.5623 40.8516H14.4375C13.0784 40.8516 11.9766 41.9534 11.9766 43.3125C11.9766 44.6715 13.0784 45.7734 14.4375 45.7734H18.539V61.6872C18.539 63.0463 19.6408 64.1481 20.9999 64.1481C22.3589 64.1481 23.4608 63.0463 23.4608 61.6872V45.7734H27.5623C28.9214 45.7734 30.0232 44.6715 30.0232 43.3125C30.0232 41.9534 28.9214 40.8516 27.5623 40.8516Z" fill="#2E3B3C"/>
<path d="M44.7205 42.7099C44.3246 41.6392 43.2708 40.8516 42.0248 40.8516C40.8496 40.8516 39.8006 41.5542 39.3549 42.6438C39.3352 42.692 39.6471 41.8686 32.4799 60.8165C31.8677 62.435 33.0737 64.1488 34.7812 64.1488C35.7749 64.1488 36.7109 63.5424 37.0833 62.5579L37.9712 60.2107H46.0357L46.9153 62.5525C47.393 63.8249 48.8124 64.4688 50.0841 63.9911C51.3565 63.5132 52.0006 62.0944 51.5227 60.8221L44.7205 42.7099ZM39.8329 55.289L42.0179 49.5128L44.1873 55.289H39.8329Z" fill="#2E3B3C"/>
<path d="M67.5593 41.8823L62.9994 48.266L58.4395 41.8823C57.6496 40.7762 56.1125 40.5203 55.0066 41.3101C53.9007 42.1 53.6444 43.6369 54.4345 44.743L59.9751 52.5L54.4345 60.2569C53.2656 61.8932 54.4557 64.1484 56.4349 64.1484C57.2027 64.1484 57.9592 63.7901 58.4395 63.1176L62.9994 56.7339L67.5593 63.1176C68.0397 63.7901 68.796 64.1484 69.564 64.1484C71.543 64.1484 72.7335 61.8935 71.5644 60.2569L66.0237 52.5L71.5644 44.743C72.3543 43.6371 72.0982 42.1002 70.9923 41.3101C69.8867 40.5203 68.3494 40.7764 67.5593 41.8823Z" fill="#2E3B3C"/>
<path d="M36.7499 10.6646H24.9375C23.5784 10.6646 22.4766 11.7664 22.4766 13.1255C22.4766 14.4846 23.5784 15.5864 24.9375 15.5864H36.7499C38.109 15.5864 39.2109 14.4846 39.2109 13.1255C39.2109 11.7664 38.109 10.6646 36.7499 10.6646Z" fill="#2E3B3C"/>
<path d="M36.7499 21.1646H24.9375C23.5784 21.1646 22.4766 22.2664 22.4766 23.6255C22.4766 24.9846 23.5784 26.0864 24.9375 26.0864H36.7499C38.109 26.0864 39.2109 24.9846 39.2109 23.6255C39.2109 22.2664 38.109 21.1646 36.7499 21.1646Z" fill="#2E3B3C"/>
</svg>
