<svg width="43" height="44" viewBox="0 0 43 44" fill="none" xmlns="http://www.w3.org/2000/svg">
<path d="M31.8195 32.6078C37.6773 26.7498 37.6773 17.2522 31.8195 11.3942C25.9617 5.53624 16.4643 5.53624 10.6065 11.3942C4.74869 17.2522 4.74869 26.7498 10.6065 32.6078C16.4643 38.4657 25.9617 38.4657 31.8195 32.6078Z" fill="#3C5B9A"/>
<path fill-rule="evenodd" clip-rule="evenodd" d="M18.8616 26.528C18.8616 25.1238 18.856 23.7204 18.8664 22.3171C18.8679 22.0808 18.8013 22.0062 18.5651 22.0158C18.1274 22.0332 17.689 22.0142 17.2513 22.0237C17.0737 22.0284 17.0087 21.9793 17.0103 21.7914C17.019 20.9153 17.0182 20.0391 17.0111 19.163C17.0095 18.9949 17.0602 18.9394 17.2307 18.9426C17.6787 18.9529 18.1274 18.9299 18.5746 18.9521C18.8338 18.9648 18.887 18.8728 18.8822 18.6326C18.8664 17.9658 18.8664 17.2982 18.8814 16.6314C18.8989 15.8171 19.1177 15.0567 19.6029 14.3947C20.2166 13.5566 21.0895 13.1728 22.0957 13.1284C23.1295 13.0824 24.1658 13.1078 25.2013 13.0967C25.3456 13.0951 25.3884 13.1467 25.3884 13.287C25.3836 14.1726 25.3828 15.0591 25.3892 15.9447C25.3908 16.1025 25.3392 16.1509 25.1846 16.1477C24.6867 16.1398 24.1888 16.1437 23.6917 16.1453C23.0288 16.1477 22.6324 16.4886 22.5912 17.1443C22.5579 17.67 22.5825 18.1989 22.5698 18.7269C22.565 18.9148 22.6768 18.9021 22.8013 18.9021C23.5577 18.9014 24.3148 18.9093 25.0712 18.8966C25.2932 18.8926 25.3662 18.9442 25.3408 19.1773C25.2457 20.0574 25.164 20.939 25.0887 21.8215C25.0712 22.0205 24.9808 22.0586 24.8017 22.0554C24.2046 22.0459 23.6076 22.0491 23.0098 22.053C22.5809 22.0554 22.6229 21.9904 22.6229 22.4281C22.6205 25.1754 22.6173 27.9235 22.6292 30.6708C22.6308 30.961 22.5563 31.0331 22.2693 31.0276C21.2441 31.0085 20.2182 31.0078 19.193 31.0284C18.9044 31.0339 18.8568 30.9364 18.8592 30.6787C18.8671 29.2959 18.8616 27.9124 18.8616 26.528Z" fill="#FEFEFE"/>
</svg>
