<svg width="40" height="46" viewBox="0 0 40 46" fill="none" xmlns="http://www.w3.org/2000/svg">
<path fill-rule="evenodd" clip-rule="evenodd" d="M0 23.1398C0 10.8454 8.9543 0.878906 20 0.878906H40L37.7778 8.2992H20C12.6362 8.2992 6.66667 14.9435 6.66667 23.1398C6.66667 31.336 12.6362 37.9804 20 37.9804H37.7778L40 45.4006H20C8.9543 45.4006 0 35.4341 0 23.1398Z" fill="#2E465C"/>
<path fill-rule="evenodd" clip-rule="evenodd" d="M11.3042 23.1401C11.3042 17.5275 14.9206 12.9775 19.3816 12.9775H36.5216L34.3095 20.4136H19.3816C18.1848 20.4136 17.2145 21.6343 17.2145 23.1401C17.2145 24.6459 18.1848 25.8667 19.3816 25.8667H34.3095L36.5216 33.3027H19.3816C14.9206 33.3027 11.3042 28.7527 11.3042 23.1401Z" fill="#2E465C"/>
</svg>
