<svg width="52" height="52" viewBox="0 0 52 52" fill="none" xmlns="http://www.w3.org/2000/svg">
<path d="M9.14062 8.37891C8.71995 8.37891 8.37891 8.71995 8.37891 9.14062V18.2812C8.37891 18.7019 8.71995 19.043 9.14062 19.043H18.2812C18.7019 19.043 19.043 18.7019 19.043 18.2812V9.14062C19.043 8.71995 18.7019 8.37891 18.2812 8.37891H9.14062ZM17.5195 17.5195H9.90234V9.90234H17.5195V17.5195Z" fill="#2E465C"/>
<path d="M9.14062 32.7539C8.71995 32.7539 8.37891 33.095 8.37891 33.5156V42.6562C8.37891 43.0769 8.71995 43.418 9.14062 43.418H18.2812C18.7019 43.418 19.043 43.0769 19.043 42.6562V33.5156C19.043 33.095 18.7019 32.7539 18.2812 32.7539H9.14062ZM17.5195 41.8945H9.90234V34.2773H17.5195V41.8945Z" fill="#2E465C"/>
<path d="M21.4297 32.7539C21.009 32.7539 20.668 33.095 20.668 33.5156V42.6562C20.668 43.0769 21.009 43.418 21.4297 43.418H30.5703C30.991 43.418 31.332 43.0769 31.332 42.6562V33.5156C31.332 33.095 30.991 32.7539 30.5703 32.7539H21.4297ZM29.8086 41.8945H22.1914V34.2773H29.8086V41.8945Z" fill="#2E465C"/>
<path d="M42.8594 32.7539H33.7188C33.2981 32.7539 32.957 33.095 32.957 33.5156V42.6562C32.957 43.0769 33.2981 43.418 33.7188 43.418H42.8594C43.28 43.418 43.6211 43.0769 43.6211 42.6562V33.5156C43.6211 33.095 43.28 32.7539 42.8594 32.7539ZM42.0977 41.8945H34.4805V34.2773H42.0977V41.8945Z" fill="#2E465C"/>
<path d="M29.6886 17.5195C29.268 17.5195 28.9269 17.8606 28.9269 18.2812C28.9269 18.7019 29.268 19.043 29.6886 19.043H42.8594C43.28 19.043 43.6211 18.7019 43.6211 18.2812V9.14062C43.6211 8.71995 43.28 8.37891 42.8594 8.37891H21.3281C20.9075 8.37891 20.5664 8.71995 20.5664 9.14062V18.2812C20.5664 18.7019 20.9075 19.043 21.3281 19.043H26.134C26.5546 19.043 26.8957 18.7019 26.8957 18.2812C26.8957 17.8606 26.5546 17.5195 26.134 17.5195H22.0898V9.90234H42.0977V17.5195H29.6886Z" fill="#2E465C"/>
<path d="M8.37891 21.3281V30.4688C8.37891 30.8894 8.71995 31.2305 9.14062 31.2305H42.8594C43.28 31.2305 43.6211 30.8894 43.6211 30.4688V21.3281C43.6211 20.9075 43.28 20.5664 42.8594 20.5664H9.14062C8.71995 20.5664 8.37891 20.9075 8.37891 21.3281ZM9.90234 22.0898H42.0977V29.707H9.90234V22.0898Z" fill="#2E465C"/>
<path d="M50.7297 0H47.175C46.4749 0 45.9055 0.569461 45.9055 1.26953V2.28516H21.3145C20.8938 2.28516 20.5527 2.6262 20.5527 3.04688C20.5527 3.46755 20.8938 3.80859 21.3145 3.80859H45.9055V4.82422C45.9055 5.52429 46.4749 6.09375 47.175 6.09375H48.1906V25.7012C48.1906 26.1219 48.5317 26.4629 48.9524 26.4629C49.373 26.4629 49.7141 26.1219 49.7141 25.7012V6.09375H50.7297C51.4298 6.09375 51.9992 5.52429 51.9992 4.82422V1.26953C51.9992 0.569461 51.4298 0 50.7297 0ZM50.4758 4.57031H47.4289V1.52344H50.4758V4.57031Z" fill="#2E465C"/>
<path d="M50.7305 45.9062H49.7148V29.2559C49.7148 28.8352 49.3738 28.4941 48.9531 28.4941C48.5325 28.4941 48.1914 28.8352 48.1914 29.2559V45.9062H47.1758C46.4757 45.9062 45.9062 46.4757 45.9062 47.1757V48.1914H6.09375V47.1757C6.09375 46.4757 5.52429 45.9062 4.82422 45.9062H3.80859V37.7228C3.80859 37.3021 3.46755 36.9611 3.04688 36.9611C2.6262 36.9611 2.28516 37.3021 2.28516 37.7228V45.9062H1.26953C0.569461 45.9062 0 46.4757 0 47.1757V50.7304C0 51.4305 0.569461 52 1.26953 52H4.82422C5.52429 52 6.09375 51.4305 6.09375 50.7304V49.7148H45.9062V50.7304C45.9062 51.4305 46.4757 52 47.1758 52H50.7305C51.4305 52 52 51.4305 52 50.7304V47.1757C52 46.4757 51.4305 45.9062 50.7305 45.9062ZM4.57031 50.4765H1.52344V47.4297H4.57031V50.4765ZM50.4766 50.4765H47.4297V47.4297H50.4766V50.4765Z" fill="#2E465C"/>
<path d="M1.26953 6.09375H2.28516V34.1682C2.28516 34.5888 2.6262 34.9299 3.04688 34.9299C3.46755 34.9299 3.80859 34.5888 3.80859 34.1682V6.09375H4.82422C5.52429 6.09375 6.09375 5.52429 6.09375 4.82422V3.80859H17.7605C18.1812 3.80859 18.5223 3.46755 18.5223 3.04688C18.5223 2.6262 18.1812 2.28516 17.7605 2.28516H6.09375V1.26953C6.09375 0.569461 5.52429 0 4.82422 0H1.26953C0.569461 0 0 0.569461 0 1.26953V4.82422C0 5.52429 0.569461 6.09375 1.26953 6.09375ZM1.52344 1.52344H4.57031V4.57031H1.52344V1.52344Z" fill="#2E465C"/>
<path d="M12.1875 12.9492H15.2344C15.655 12.9492 15.9961 12.6082 15.9961 12.1875C15.9961 11.7668 15.655 11.4258 15.2344 11.4258H12.1875C11.7668 11.4258 11.4258 11.7668 11.4258 12.1875C11.4258 12.6082 11.7668 12.9492 12.1875 12.9492Z" fill="#2E465C"/>
<path d="M12.1875 15.9961H15.2344C15.655 15.9961 15.9961 15.655 15.9961 15.2344C15.9961 14.8137 15.655 14.4727 15.2344 14.4727H12.1875C11.7668 14.4727 11.4258 14.8137 11.4258 15.2344C11.4258 15.655 11.7668 15.9961 12.1875 15.9961Z" fill="#2E465C"/>
<path d="M39.7617 23.6133H12.1875C11.7668 23.6133 11.4258 23.9543 11.4258 24.375C11.4258 24.7957 11.7668 25.1367 12.1875 25.1367H39.7617C40.1824 25.1367 40.5234 24.7957 40.5234 24.375C40.5234 23.9543 40.1824 23.6133 39.7617 23.6133Z" fill="#2E465C"/>
<path d="M39.7617 26.6602H12.1875C11.7668 26.6602 11.4258 27.0012 11.4258 27.4219C11.4258 27.8425 11.7668 28.1836 12.1875 28.1836H39.7617C40.1824 28.1836 40.5234 27.8425 40.5234 27.4219C40.5234 27.0012 40.1824 26.6602 39.7617 26.6602Z" fill="#2E465C"/>
<path d="M24.4766 37.3242H27.5234C27.9441 37.3242 28.2852 36.9832 28.2852 36.5625C28.2852 36.1418 27.9441 35.8008 27.5234 35.8008H24.4766C24.0559 35.8008 23.7148 36.1418 23.7148 36.5625C23.7148 36.9832 24.0559 37.3242 24.4766 37.3242Z" fill="#2E465C"/>
<path d="M24.4766 40.3711H27.5234C27.9441 40.3711 28.2852 40.03 28.2852 39.6094C28.2852 39.1887 27.9441 38.8477 27.5234 38.8477H24.4766C24.0559 38.8477 23.7148 39.1887 23.7148 39.6094C23.7148 40.03 24.0559 40.3711 24.4766 40.3711Z" fill="#2E465C"/>
</svg>
