<svg width="50" height="50" viewBox="0 0 50 50" fill="none" xmlns="http://www.w3.org/2000/svg">
<path d="M25 50C20.0555 50 15.222 48.5338 11.1108 45.7867C6.99952 43.0397 3.79521 39.1352 1.90302 34.5671C0.0108322 29.9989 -0.484251 24.9723 0.480379 20.1227C1.44501 15.2732 3.82603 10.8187 7.32234 7.32234C10.8187 3.82603 15.2732 1.44501 20.1227 0.480379C24.9723 -0.484251 29.9989 0.0108322 34.5671 1.90302C39.1352 3.79521 43.0397 6.99952 45.7867 11.1108C48.5338 15.222 50 20.0555 50 25C49.9924 31.6281 47.3561 37.9825 42.6693 42.6693C37.9825 47.3561 31.6281 49.9924 25 50ZM25 1.42858C20.338 1.42858 15.7807 2.81102 11.9044 5.40108C8.02812 7.99114 5.00692 11.6725 3.22285 15.9796C1.43878 20.2867 0.971992 25.0262 1.8815 29.5986C2.79101 34.171 5.03597 38.371 8.33249 41.6675C11.629 44.964 15.829 47.209 20.4014 48.1185C24.9739 49.028 29.7133 48.5612 34.0204 46.7772C38.3275 44.9931 42.0089 41.9719 44.5989 38.0956C47.189 34.2193 48.5714 29.662 48.5714 25C48.5642 18.7507 46.0785 12.7594 41.6596 8.34043C37.2406 3.92148 31.2493 1.43577 25 1.42858Z" fill="#2E465C"/>
<path d="M13.4278 41.6429C13.2789 41.6427 13.1338 41.596 13.0128 41.5094C12.4098 41.0772 11.835 40.607 11.292 40.1015C11.2234 40.0376 11.168 39.9607 11.129 39.8754C11.09 39.7901 11.0683 39.6979 11.0649 39.6041C11.0616 39.5104 11.0767 39.4169 11.1095 39.329C11.1423 39.2411 11.1921 39.1605 11.256 39.0919C11.3199 39.0232 11.3967 38.9678 11.4821 38.9288C11.5674 38.8898 11.6596 38.8681 11.7533 38.8647C11.8471 38.8614 11.9406 38.8765 12.0285 38.9093C12.1164 38.9421 12.197 38.9919 12.2656 39.0558C12.7637 39.5198 13.2909 39.9514 13.8442 40.3479C13.9672 40.436 14.0591 40.5609 14.1065 40.7046C14.154 40.8482 14.1546 41.0033 14.1083 41.1473C14.062 41.2913 13.9711 41.417 13.8488 41.506C13.7265 41.5951 13.5791 41.643 13.4278 41.6429Z" fill="#2E465C"/>
<path d="M25.0002 45.4145C22.5246 45.4204 20.0693 44.9683 17.7581 44.0809C17.6691 44.0483 17.5875 43.9983 17.518 43.9338C17.4485 43.8693 17.3926 43.7917 17.3534 43.7053C17.3143 43.619 17.2927 43.5258 17.2899 43.431C17.2872 43.3363 17.3033 43.2419 17.3374 43.1535C17.3715 43.065 17.4228 42.9842 17.4885 42.9158C17.5541 42.8474 17.6327 42.7928 17.7196 42.755C17.8066 42.7173 17.9002 42.6973 17.9949 42.6961C18.0897 42.6949 18.1838 42.7126 18.2717 42.7481C20.419 43.5721 22.7003 43.9917 25.0002 43.9859C28.7553 43.9859 32.426 42.8725 35.5481 40.7863C38.6703 38.7001 41.1038 35.7349 42.5408 32.2657C43.9777 28.7966 44.3537 24.9792 43.6212 21.2963C42.8886 17.6134 41.0804 14.2305 38.4252 11.5753C35.77 8.9201 32.387 7.11189 28.7042 6.37932C25.0213 5.64676 21.2039 6.02274 17.7347 7.45972C14.2655 8.8967 11.3004 11.3301 9.21421 14.4523C7.12803 17.5745 6.01454 21.2452 6.01454 25.0002C6.0124 26.1771 6.1229 27.3515 6.34454 28.5074C6.38063 28.6934 6.34134 28.8862 6.23531 29.0432C6.12929 29.2003 5.96521 29.3088 5.77918 29.3449C5.59315 29.381 5.4004 29.3417 5.24334 29.2356C5.08628 29.1296 4.97777 28.9655 4.94168 28.7795C4.70289 27.534 4.58378 26.2685 4.58597 25.0002C4.58597 20.9627 5.78324 17.0158 8.02639 13.6587C10.2695 10.3016 13.4578 7.685 17.188 6.13989C20.9183 4.59478 25.0229 4.19051 28.9829 4.9782C32.9429 5.76589 36.5803 7.71016 39.4353 10.5652C42.2903 13.4201 44.2346 17.0576 45.0223 21.0176C45.81 24.9776 45.4057 29.0822 43.8606 32.8124C42.3155 36.5427 39.6989 39.7309 36.3418 41.9741C32.9847 44.2172 29.0378 45.4145 25.0002 45.4145Z" fill="#2E465C"/>
<path d="M8.51388 36.4854C8.39576 36.4855 8.27945 36.4563 8.17536 36.4005C8.07127 36.3446 7.98266 36.2639 7.91746 36.1654C7.50767 35.5453 7.13534 34.9013 6.80245 34.2368C6.75966 34.1528 6.73391 34.0612 6.7267 33.9672C6.71949 33.8732 6.73096 33.7787 6.76044 33.6891C6.78992 33.5996 6.83684 33.5168 6.89848 33.4455C6.96012 33.3741 7.03527 33.3157 7.1196 33.2736C7.20393 33.2314 7.29576 33.2064 7.38981 33.1999C7.48385 33.1935 7.57825 33.2057 7.66756 33.2358C7.75687 33.266 7.83932 33.3136 7.91016 33.3758C7.981 33.438 8.03883 33.5136 8.08031 33.5982C8.38684 34.2124 8.73008 34.8075 9.10817 35.3804C9.17936 35.4879 9.22011 35.6127 9.22609 35.7416C9.23206 35.8704 9.20304 35.9985 9.1421 36.1121C9.08116 36.2258 8.99058 36.3209 8.87997 36.3872C8.76937 36.4535 8.64286 36.4887 8.51388 36.4889V36.4854Z" fill="#2E465C"/>
<path d="M21.1916 23.334H15.0008C14.622 23.334 14.2586 23.1835 13.9907 22.9156C13.7228 22.6477 13.5723 22.2843 13.5723 21.9054V15.7147C13.5723 15.3358 13.7228 14.9725 13.9907 14.7046C14.2586 14.4366 14.622 14.2861 15.0008 14.2861H21.1916C21.5704 14.2861 21.9338 14.4366 22.2017 14.7046C22.4696 14.9725 22.6201 15.3358 22.6201 15.7147V21.9054C22.6201 22.2843 22.4696 22.6477 22.2017 22.9156C21.9338 23.1835 21.5704 23.334 21.1916 23.334ZM15.0008 15.7147V21.9054H21.1916V15.7147H15.0008Z" fill="#2E465C"/>
<path d="M35.0001 23.334H28.8094C28.4305 23.334 28.0672 23.1835 27.7993 22.9156C27.5314 22.6477 27.3809 22.2843 27.3809 21.9054V15.7147C27.3809 15.3358 27.5314 14.9725 27.7993 14.7046C28.0672 14.4366 28.4305 14.2861 28.8094 14.2861H35.0001C35.379 14.2861 35.7424 14.4366 36.0103 14.7046C36.2782 14.9725 36.4287 15.3358 36.4287 15.7147V21.9054C36.4287 22.2843 36.2782 22.6477 36.0103 22.9156C35.7424 23.1835 35.379 23.334 35.0001 23.334ZM35.0001 15.7147H28.8094V21.9054H35.0001V15.7147Z" fill="#2E465C"/>
<path d="M21.1916 35.7148H15.0008C14.622 35.7148 14.2586 35.5643 13.9907 35.2964C13.7228 35.0285 13.5723 34.6652 13.5723 34.2863V28.0956C13.5723 27.7167 13.7228 27.3533 13.9907 27.0854C14.2586 26.8175 14.622 26.667 15.0008 26.667H21.1916C21.5704 26.667 21.9338 26.8175 22.2017 27.0854C22.4696 27.3533 22.6201 27.7167 22.6201 28.0956V34.2863C22.6201 34.6652 22.4696 35.0285 22.2017 35.2964C21.9338 35.5643 21.5704 35.7148 21.1916 35.7148ZM15.0008 28.0956V34.2863H21.1916V28.0956H15.0008Z" fill="#2E465C"/>
</svg>
