<svg width="12" height="14" viewBox="0 0 12 14" fill="none" xmlns="http://www.w3.org/2000/svg">
<path d="M11.9467 9.08C11.9129 8.99921 11.8656 8.9248 11.8067 8.86L9.80667 6.86C9.68113 6.73446 9.51087 6.66394 9.33333 6.66394C9.1558 6.66394 8.98554 6.73446 8.86 6.86C8.73446 6.98554 8.66394 7.1558 8.66394 7.33333C8.66394 7.51087 8.73446 7.68113 8.86 7.80667L9.72667 8.66667H6C5.82319 8.66667 5.65362 8.73691 5.5286 8.86193C5.40357 8.98695 5.33333 9.15652 5.33333 9.33333C5.33333 9.51015 5.40357 9.67972 5.5286 9.80474C5.65362 9.92976 5.82319 10 6 10H9.72667L8.86 10.86C8.79751 10.922 8.74792 10.9957 8.71407 11.0769C8.68023 11.1582 8.6628 11.2453 8.6628 11.3333C8.6628 11.4213 8.68023 11.5085 8.71407 11.5897C8.74792 11.671 8.79751 11.7447 8.86 11.8067C8.92198 11.8692 8.99571 11.9187 9.07695 11.9526C9.15819 11.9864 9.24533 12.0039 9.33333 12.0039C9.42134 12.0039 9.50848 11.9864 9.58972 11.9526C9.67096 11.9187 9.74469 11.8692 9.80667 11.8067L11.8067 9.80667C11.8684 9.74409 11.9161 9.6691 11.9467 9.58667C12.0133 9.42436 12.0133 9.24231 11.9467 9.08ZM7.33333 12H2C1.82319 12 1.65362 11.9298 1.5286 11.8047C1.40357 11.6797 1.33333 11.5101 1.33333 11.3333V2C1.33333 1.82319 1.40357 1.65362 1.5286 1.5286C1.65362 1.40357 1.82319 1.33333 2 1.33333H5.33333V3.33333C5.33333 3.86377 5.54405 4.37247 5.91912 4.74755C6.29419 5.12262 6.8029 5.33333 7.33333 5.33333H10C10.1316 5.33268 10.2601 5.29308 10.3692 5.21952C10.4784 5.14596 10.5633 5.04175 10.6133 4.92C10.6644 4.79859 10.6783 4.66478 10.6534 4.53546C10.6285 4.40613 10.5658 4.28708 10.4733 4.19333L6.47333 0.193333C6.41822 0.141477 6.35521 0.0987207 6.28667 0.0666666H6.22667L6.04 0H2C1.46957 0 0.960859 0.210714 0.585787 0.585787C0.210714 0.960859 0 1.46957 0 2V11.3333C0 11.8638 0.210714 12.3725 0.585787 12.7475C0.960859 13.1226 1.46957 13.3333 2 13.3333H7.33333C7.51014 13.3333 7.67971 13.2631 7.80474 13.1381C7.92976 13.013 8 12.8435 8 12.6667C8 12.4899 7.92976 12.3203 7.80474 12.1953C7.67971 12.0702 7.51014 12 7.33333 12ZM6.66667 2.27333L8.39333 4H7.33333C7.15652 4 6.98695 3.92976 6.86193 3.80474C6.7369 3.67971 6.66667 3.51014 6.66667 3.33333V2.27333Z" fill="white"/>
</svg>
