<svg width="32" height="32" viewBox="0 0 32 32" fill="none" xmlns="http://www.w3.org/2000/svg">
<g filter="url(#filter0_d_3129_5830)">
<path d="M26.9993 16.7594V15.9994V15.2294L28.9193 13.5494C29.2732 13.2375 29.5055 12.8105 29.575 12.3438C29.6445 11.8772 29.5469 11.401 29.2993 10.9994L26.9393 6.99943C26.7639 6.69569 26.5118 6.44341 26.2081 6.26789C25.9045 6.09237 25.56 5.99979 25.2093 5.99943C24.9919 5.99776 24.7758 6.03154 24.5693 6.09943L22.1393 6.91943C21.7197 6.64064 21.2821 6.39008 20.8293 6.16943L20.3193 3.64943C20.2278 3.18903 19.9774 2.77547 19.6117 2.48113C19.2461 2.18679 18.7886 2.03044 18.3193 2.03943H13.6393C13.17 2.03044 12.7125 2.18679 12.3468 2.48113C11.9812 2.77547 11.7307 3.18903 11.6393 3.64943L11.1293 6.16943C10.6732 6.39003 10.2322 6.64058 9.80928 6.91943L7.42928 6.05943C7.22057 6.00505 7.00445 5.98479 6.78928 5.99943C6.43855 5.99979 6.09409 6.09237 5.79044 6.26789C5.48679 6.44341 5.23464 6.69569 5.05928 6.99943L2.69928 10.9994C2.46586 11.4004 2.37913 11.8701 2.45393 12.328C2.52872 12.7859 2.7604 13.2036 3.10928 13.5094L4.99928 15.2394V16.7694L3.10928 18.4494C2.75054 18.7574 2.51253 19.1826 2.43747 19.6494C2.36242 20.1162 2.45517 20.5945 2.69928 20.9994L5.05928 24.9994C5.23464 25.3032 5.48679 25.5555 5.79044 25.731C6.09409 25.9065 6.43855 25.9991 6.78928 25.9994C7.00663 26.0011 7.22279 25.9673 7.42928 25.8994L9.85928 25.0794C10.2788 25.3582 10.7165 25.6088 11.1693 25.8294L11.6793 28.3494C11.7707 28.8098 12.0212 29.2234 12.3868 29.5177C12.7525 29.8121 13.21 29.9684 13.6793 29.9594H18.3993C18.8686 29.9684 19.3261 29.8121 19.6917 29.5177C20.0574 29.2234 20.3078 28.8098 20.3993 28.3494L20.9093 25.8294C21.3653 25.6088 21.8063 25.3583 22.2293 25.0794L24.6493 25.8994C24.8558 25.9673 25.0719 26.0011 25.2893 25.9994C25.64 25.9991 25.9845 25.9065 26.2881 25.731C26.5918 25.5555 26.8439 25.3032 27.0193 24.9994L29.2993 20.9994C29.5327 20.5984 29.6194 20.1288 29.5446 19.6709C29.4698 19.213 29.2382 18.7953 28.8893 18.4894L26.9993 16.7594ZM25.2093 23.9994L21.7793 22.8394C20.9763 23.5195 20.0587 24.0512 19.0693 24.4094L18.3593 27.9994H13.6393L12.9293 24.4494C11.9477 24.081 11.035 23.5503 10.2293 22.8794L6.78928 23.9994L4.42928 19.9994L7.14928 17.5994C6.96437 16.5643 6.96437 15.5046 7.14928 14.4694L4.42928 11.9994L6.78928 7.99943L10.2193 9.15943C11.0222 8.47932 11.9399 7.94768 12.9293 7.58943L13.6393 3.99943H18.3593L19.0693 7.54943C20.0509 7.91785 20.9636 8.44857 21.7693 9.11943L25.2093 7.99943L27.5693 11.9994L24.8493 14.3994C25.0342 15.4346 25.0342 16.4943 24.8493 17.5294L27.5693 19.9994L25.2093 23.9994Z" fill="#2E3B3C"/>
<path d="M16 22C14.8133 22 13.6533 21.6481 12.6666 20.9888C11.6799 20.3295 10.9109 19.3925 10.4567 18.2961C10.0026 17.1997 9.88378 15.9933 10.1153 14.8295C10.3468 13.6656 10.9182 12.5965 11.7574 11.7574C12.5965 10.9182 13.6656 10.3468 14.8295 10.1153C15.9933 9.88378 17.1997 10.0026 18.2961 10.4567C19.3925 10.9109 20.3295 11.6799 20.9888 12.6666C21.6481 13.6533 22 14.8133 22 16C22.008 16.7902 21.8583 17.574 21.5596 18.3056C21.2609 19.0371 20.8193 19.7018 20.2605 20.2605C19.7018 20.8193 19.0371 21.2609 18.3056 21.5596C17.574 21.8583 16.7902 22.008 16 22ZM16 12C15.4713 11.9877 14.9457 12.0827 14.4548 12.2794C13.9639 12.4761 13.5181 12.7702 13.1442 13.1442C12.7702 13.5181 12.4761 13.9639 12.2794 14.4548C12.0827 14.9457 11.9877 15.4713 12 16C11.9877 16.5287 12.0827 17.0543 12.2794 17.5452C12.4761 18.0361 12.7702 18.4819 13.1442 18.8559C13.5181 19.2298 13.9639 19.524 14.4548 19.7206C14.9457 19.9173 15.4713 20.0123 16 20C16.5287 20.0123 17.0543 19.9173 17.5452 19.7206C18.0361 19.524 18.4819 19.2298 18.8559 18.8559C19.2298 18.4819 19.524 18.0361 19.7206 17.5452C19.9173 17.0543 20.0123 16.5287 20 16C20.0123 15.4713 19.9173 14.9457 19.7206 14.4548C19.524 13.9639 19.2298 13.5181 18.8559 13.1442C18.4819 12.7702 18.0361 12.4761 17.5452 12.2794C17.0543 12.0827 16.5287 11.9877 16 12Z" fill="#2E3B3C"/>
</g>
<defs>
<filter id="filter0_d_3129_5830" x="-1" y="0" width="34" height="34" filterUnits="userSpaceOnUse" color-interpolation-filters="sRGB">
<feFlood flood-opacity="0" result="BackgroundImageFix"/>
<feColorMatrix in="SourceAlpha" type="matrix" values="0 0 0 0 0 0 0 0 0 0 0 0 0 0 0 0 0 0 127 0" result="hardAlpha"/>
<feOffset dy="1"/>
<feGaussianBlur stdDeviation="0.5"/>
<feComposite in2="hardAlpha" operator="out"/>
<feColorMatrix type="matrix" values="0 0 0 0 0 0 0 0 0 0 0 0 0 0 0 0 0 0 0.25 0"/>
<feBlend mode="normal" in2="BackgroundImageFix" result="effect1_dropShadow_3129_5830"/>
<feBlend mode="normal" in="SourceGraphic" in2="effect1_dropShadow_3129_5830" result="shape"/>
</filter>
</defs>
</svg>
