<svg width="25" height="25" viewBox="0 0 25 25" fill="none" xmlns="http://www.w3.org/2000/svg">
<path d="M5.46778 3.90625C5.46778 3.69905 5.38547 3.50034 5.23896 3.35382C5.09245 3.20731 4.89373 3.125 4.68653 3.125C4.47933 3.125 4.28062 3.20731 4.13411 3.35382C3.98759 3.50034 3.90528 3.69905 3.90528 3.90625V17.6453L2.11466 15.8531C1.96796 15.7064 1.769 15.624 1.56153 15.624C1.35407 15.624 1.15511 15.7064 1.00841 15.8531C0.861711 15.9998 0.779297 16.1988 0.779297 16.4062C0.779297 16.6137 0.861711 16.8127 1.00841 16.9594L4.13341 20.0828L4.14435 20.0937C4.29103 20.2368 4.48829 20.316 4.69315 20.3143C4.89802 20.3125 5.09389 20.2299 5.2381 20.0844L8.3631 16.9594C8.43573 16.8868 8.49337 16.8007 8.53272 16.7059C8.57207 16.6111 8.59237 16.5095 8.59244 16.4068C8.59251 16.3041 8.57236 16.2025 8.53315 16.1076C8.49393 16.0128 8.43641 15.9265 8.36388 15.8539C8.29134 15.7813 8.20521 15.7236 8.1104 15.6843C8.01559 15.6449 7.91396 15.6246 7.81131 15.6246C7.70865 15.6245 7.60699 15.6446 7.51213 15.6839C7.41726 15.7231 7.33105 15.7806 7.25841 15.8531L5.46778 17.6453V3.90625ZM10.9365 5.46875C10.9365 5.26155 11.0188 5.06284 11.1654 4.91632C11.3119 4.76981 11.5106 4.6875 11.7178 4.6875H22.6553C22.8625 4.6875 23.0612 4.76981 23.2077 4.91632C23.3542 5.06284 23.4365 5.26155 23.4365 5.46875C23.4365 5.67595 23.3542 5.87466 23.2077 6.02118C23.0612 6.16769 22.8625 6.25 22.6553 6.25H11.7178C11.5106 6.25 11.3119 6.16769 11.1654 6.02118C11.0188 5.87466 10.9365 5.67595 10.9365 5.46875ZM11.7178 9.375C11.5106 9.375 11.3119 9.45731 11.1654 9.60382C11.0188 9.75033 10.9365 9.94905 10.9365 10.1562C10.9365 10.3634 11.0188 10.5622 11.1654 10.7087C11.3119 10.8552 11.5106 10.9375 11.7178 10.9375H19.5303C19.7375 10.9375 19.9362 10.8552 20.0827 10.7087C20.2292 10.5622 20.3115 10.3634 20.3115 10.1562C20.3115 9.94905 20.2292 9.75033 20.0827 9.60382C19.9362 9.45731 19.7375 9.375 19.5303 9.375H11.7178ZM11.7178 14.0625C11.5106 14.0625 11.3119 14.1448 11.1654 14.2913C11.0188 14.4378 10.9365 14.6365 10.9365 14.8437C10.9365 15.0509 11.0188 15.2497 11.1654 15.3962C11.3119 15.5427 11.5106 15.625 11.7178 15.625H16.4053C16.6125 15.625 16.8112 15.5427 16.9577 15.3962C17.1042 15.2497 17.1865 15.0509 17.1865 14.8437C17.1865 14.6365 17.1042 14.4378 16.9577 14.2913C16.8112 14.1448 16.6125 14.0625 16.4053 14.0625H11.7178ZM11.7178 18.75C11.5106 18.75 11.3119 18.8323 11.1654 18.9788C11.0188 19.1253 10.9365 19.324 10.9365 19.5312C10.9365 19.7384 11.0188 19.9372 11.1654 20.0837C11.3119 20.2302 11.5106 20.3125 11.7178 20.3125H13.2803C13.4875 20.3125 13.6862 20.2302 13.8327 20.0837C13.9792 19.9372 14.0615 19.7384 14.0615 19.5312C14.0615 19.324 13.9792 19.1253 13.8327 18.9788C13.6862 18.8323 13.4875 18.75 13.2803 18.75H11.7178Z" fill="#2E3B3C"/>
</svg>
