<svg width="140" height="43" viewBox="0 0 140 43" fill="none" xmlns="http://www.w3.org/2000/svg">
<g clip-path="url(#clip0_1905_5939)">
<path d="M40.1337 30.4767C39.9141 29.9527 39.7082 29.4017 39.4886 28.9314L38.4729 26.6874L38.4317 26.647C35.4121 20.197 32.1866 13.6395 28.769 7.18954L28.6317 6.92079C28.2886 6.28923 27.9455 5.59047 27.5886 4.94547C27.1494 4.17954 26.7239 3.35985 26.0239 2.58047C25.3416 1.76499 24.4828 1.10798 23.5097 0.656836C22.5365 0.205694 21.4732 -0.0283203 20.3964 -0.0283203C19.3197 -0.0283203 18.2564 0.205694 17.2832 0.656836C16.31 1.10798 15.4513 1.76499 14.769 2.58047C14.1239 3.35985 13.6435 4.17954 13.2043 4.94547C12.8611 5.64422 12.518 6.32954 12.1611 6.9611L12.0239 7.22985C8.66114 13.6799 5.38074 20.2374 2.36114 26.6874L2.27878 26.768C1.97682 27.4667 1.61996 28.1923 1.27682 28.9717C1.05721 29.442 0.837606 29.9527 0.617998 30.517C0.0251013 31.9949 -0.164229 33.5985 0.0686655 35.1698C0.30156 36.741 0.948642 38.2258 1.94614 39.4777C2.94363 40.7296 4.25711 41.7054 5.75713 42.309C7.25715 42.9126 8.89193 43.1232 10.5004 42.9198C12.0424 42.7211 13.5272 42.2183 14.8651 41.4417C16.6494 40.4608 18.3651 39.0364 20.2866 36.9805C22.2082 39.0364 23.9651 40.4608 25.7082 41.4552C27.3845 42.4184 29.2828 42.9501 31.2258 43.0005C33.4759 43.0096 35.6534 42.2215 37.3563 40.7816C39.0592 39.3416 40.1724 37.3472 40.4906 35.1664C40.8582 33.5993 40.7338 31.96 40.1337 30.4633V30.4767ZM20.4239 32.7074C18.0631 29.7511 16.5258 27.0367 16.0043 24.712C15.7882 23.8506 15.7416 22.9568 15.867 22.0783C15.9631 21.393 16.2239 20.7883 16.5807 20.2777C17.4043 19.1086 18.8455 18.383 20.4239 18.383C21.1735 18.3606 21.917 18.5207 22.5878 18.8491C23.2586 19.1774 23.8356 19.6637 24.267 20.2642C24.6239 20.8017 24.8847 21.393 24.967 22.0783C25.1043 22.8577 25.0494 23.758 24.8298 24.712C24.3082 26.9964 22.7709 29.7377 20.4239 32.7074ZM37.9102 34.6961C37.7542 35.8033 37.3047 36.8511 36.6063 37.7352C35.9079 38.6194 34.9851 39.3089 33.9298 39.7352C32.8866 40.1652 31.7337 40.2861 30.6082 40.1652C29.5102 40.0308 28.4121 39.6814 27.2866 39.0364C25.4179 37.9056 23.7376 36.5007 22.3043 34.8708C25.1866 31.377 26.9298 28.1924 27.5886 25.357C27.9043 24.0133 27.9455 22.8039 27.8082 21.6886C27.6368 20.6315 27.2342 19.623 26.6278 18.7323C25.9355 17.7665 25.0114 16.982 23.9368 16.4478C22.8622 15.9136 21.67 15.646 20.4651 15.6686C17.9258 15.6686 15.6611 16.8242 14.2886 18.7189C13.6707 19.6073 13.2714 20.6238 13.1219 21.6886C12.9435 22.8173 12.9847 24.067 13.3415 25.357C14.0004 28.1924 15.7847 31.4173 18.6258 34.8977C17.2169 36.5588 15.5326 37.976 13.6435 39.0902C12.5043 39.7352 11.42 40.0711 10.3219 40.2055C8.61431 40.4196 6.88938 39.9653 5.52206 38.9412C4.15474 37.9171 3.25556 36.406 3.01996 34.7364C2.8827 33.6614 2.97878 32.5864 3.418 31.377C3.55525 30.947 3.76114 30.517 3.98074 30.0064C4.2827 29.3077 4.63957 28.582 4.9827 27.8564L5.03761 27.7624C8.00231 21.3527 11.2415 14.8086 14.6043 8.39891L14.7415 8.13016C15.0847 7.48516 15.4278 6.79985 15.7847 6.15485C16.1415 5.46954 16.5258 4.8111 17.02 4.2736C17.4477 3.77375 17.9821 3.37177 18.5856 3.09596C19.1891 2.82015 19.8471 2.67721 20.5131 2.67721C21.1791 2.67721 21.8371 2.82015 22.4406 3.09596C23.0441 3.37177 23.5785 3.77375 24.0062 4.2736C24.4866 4.8111 24.8847 5.46954 25.2415 6.15485C25.5847 6.79985 25.9278 7.4986 26.2847 8.13016L26.4219 8.39891C29.7709 14.8086 33.0102 21.3527 36.0298 27.7624L36.0709 27.8027C36.4278 28.5014 36.7298 29.2808 37.0729 29.9527C37.2925 30.4767 37.5121 30.8933 37.6494 31.3367C37.9102 32.5461 38.0474 33.6211 37.9102 34.6961ZM57.016 32.4117C55.9818 32.4265 54.9574 32.2132 54.0188 31.7875C53.0803 31.3618 52.2517 30.7347 51.5945 29.9527C50.1177 28.2864 49.3339 26.1379 49.3984 23.9327C49.3758 21.6795 50.1849 19.4941 51.6768 17.7783C52.3669 16.9863 53.226 16.3521 54.1935 15.9202C55.1611 15.4884 56.2135 15.2695 57.2768 15.2789C58.2773 15.2521 59.2683 15.4748 60.1567 15.9262C61.0451 16.3775 61.8017 17.0426 62.3553 17.8589L62.4925 15.7492H66.5004V31.9817H62.4788L62.3415 29.6167C61.7708 30.4884 60.9819 31.2027 60.0498 31.6919C59.1178 32.1811 58.0735 32.4289 57.016 32.4117ZM58.0592 28.5417C58.8553 28.5417 59.5553 28.3267 60.2141 27.937C60.818 27.507 61.3121 26.9427 61.6964 26.2574C62.0396 25.572 62.218 24.7523 62.218 23.8386C62.2715 23.045 62.1137 22.2513 61.7601 21.5353C61.4064 20.8193 60.869 20.2054 60.2004 19.7536C59.5579 19.3617 58.8161 19.154 58.0592 19.154C57.3022 19.154 56.5605 19.3617 55.918 19.7536C55.3141 20.1836 54.82 20.748 54.4356 21.4333C54.0727 22.1891 53.8941 23.0171 53.9141 23.852C53.8606 24.6457 54.0184 25.4393 54.372 26.1553C54.7257 26.8714 55.2631 27.4853 55.9317 27.937C56.5768 28.3267 57.2768 28.5417 58.0592 28.5417ZM73.3631 11.3686C73.3631 11.8389 73.2807 12.2689 73.0611 12.6183C72.8415 12.9542 72.5396 13.2633 72.1415 13.4783C71.7435 13.6933 71.318 13.7739 70.8788 13.7739C70.4396 13.7739 70.0004 13.6933 69.6023 13.4783C69.2259 13.2731 68.9093 12.9771 68.6827 12.6183C68.4701 12.2355 68.3659 11.8041 68.3808 11.3686C68.3808 10.8848 68.4768 10.4549 68.6827 10.1189C68.9023 9.71579 69.218 9.47391 69.6023 9.25891C70.0004 9.04391 70.4258 8.94985 70.8788 8.94985C71.3157 8.93999 71.7477 9.0413 72.1326 9.24386C72.5176 9.44641 72.8422 9.74329 73.0749 10.1055C73.2746 10.4972 73.3736 10.9309 73.3631 11.3686ZM68.6964 31.928V15.7224H73.0611V31.9549H68.6827L68.6964 31.928ZM84.7278 19.9686V20.0224C84.5219 19.9283 84.2474 19.888 84.0415 19.8477C83.767 19.7939 83.5474 19.7939 83.2866 19.7939C82.0651 19.7939 81.1455 20.1433 80.5415 20.8689C79.8827 21.608 79.5807 22.6427 79.5807 23.973V31.9414H75.2023V15.7089H79.2239L79.3611 18.168C79.8004 17.308 80.3219 16.663 81.0631 16.1792C81.8003 15.7092 82.6683 15.4745 83.5474 15.5073C83.8631 15.5073 84.1651 15.5342 84.4258 15.588C84.5631 15.6283 84.6455 15.6283 84.7278 15.6686V19.9686ZM86.4847 31.928V9.05735H90.8494V17.7917C91.467 17.0124 92.167 16.4077 93.0455 15.9373C94.4361 15.2698 96.0159 15.0805 97.53 15.3998C99.0441 15.7192 100.404 16.5287 101.391 17.6977C102.871 19.3674 103.655 21.5213 103.587 23.7311C103.609 25.9843 102.8 28.1697 101.308 29.8855C100.618 30.6775 99.759 31.3117 98.7915 31.7435C97.824 32.1753 96.7715 32.3943 95.7082 32.3848C94.7077 32.4117 93.7167 32.1889 92.8283 31.7376C91.9399 31.2863 91.1834 30.6212 90.6298 29.8048L90.4925 31.9145L86.4847 31.9549V31.928ZM94.9259 28.5417C95.7082 28.5417 96.4082 28.3267 97.067 27.937C97.671 27.507 98.1651 26.9427 98.5494 26.2574C98.9062 25.572 99.071 24.7523 99.071 23.8386C99.071 22.9383 98.9062 22.1186 98.5494 21.4333C98.1889 20.7725 97.6825 20.1987 97.067 19.7536C96.4246 19.3617 95.6828 19.154 94.9259 19.154C94.1689 19.154 93.4271 19.3617 92.7847 19.7536C92.167 20.1836 91.6866 20.748 91.2886 21.4333C90.9256 22.1891 90.7471 23.0171 90.767 23.852C90.7135 24.6457 90.8713 25.4393 91.225 26.1553C91.5786 26.8714 92.1161 27.4853 92.7847 27.937C93.4298 28.3267 94.1298 28.5417 94.9259 28.5417ZM105.234 31.9414V15.7089H109.255L109.393 17.8186C109.898 17.0099 110.615 16.3481 111.469 15.9016C112.323 15.4551 113.284 15.2401 114.251 15.2789C115.358 15.2602 116.445 15.5613 117.378 16.1444C118.31 16.7276 119.047 17.567 119.494 18.5577C119.975 19.5789 120.236 20.842 120.236 22.253V31.9817H115.857V22.8173C115.857 21.6886 115.596 20.8017 115.075 20.1433C114.553 19.4983 113.84 19.1489 112.934 19.1489C112.275 19.1489 111.698 19.2833 111.191 19.5789C110.71 19.888 110.312 20.2777 110.01 20.8286C109.705 21.3855 109.553 22.0108 109.571 22.6427V31.9414H105.234ZM122.418 31.9414V9.04391H126.796V17.7783C127.389 16.9946 128.161 16.357 129.05 15.9161C129.938 15.4753 130.92 15.2433 131.916 15.2386C132.95 15.2238 133.975 15.4371 134.913 15.8628C135.852 16.2885 136.68 16.9156 137.338 17.6977C138.807 19.3673 139.586 21.5147 139.52 23.7177C139.544 25.9711 138.735 28.1569 137.242 29.872C136.551 30.664 135.692 31.2983 134.725 31.7301C133.757 32.1619 132.705 32.3808 131.642 32.3714C130.641 32.3982 129.65 32.1755 128.762 31.7242C127.873 31.2728 127.117 30.6077 126.563 29.7914L126.44 31.9011L122.418 31.9414ZM130.9 28.5417C131.696 28.5417 132.396 28.3267 133.042 27.937C133.659 27.507 134.14 26.9427 134.538 26.2574C134.881 25.572 135.059 24.7523 135.059 23.8386C135.113 23.045 134.955 22.2513 134.601 21.5353C134.248 20.8193 133.71 20.2054 133.042 19.7536C132.399 19.3617 131.657 19.154 130.9 19.154C130.143 19.154 129.402 19.3617 128.759 19.7536C128.155 20.1836 127.661 20.748 127.277 21.4333C126.894 22.1823 126.714 23.0153 126.755 23.852C126.702 24.6457 126.86 25.4393 127.213 26.1553C127.567 26.8714 128.104 27.4853 128.773 27.937C129.418 28.3267 130.077 28.5417 130.9 28.5417Z" fill="#FF385C"/>
</g>
<defs>
<clipPath id="clip0_1905_5939">
<rect width="140" height="43" fill="white"/>
</clipPath>
</defs>
</svg>
