<svg width="49" height="50" viewBox="0 0 49 50" fill="none" xmlns="http://www.w3.org/2000/svg">
<path d="M24.2612 19.2812C18.2895 19.2812 13.4312 24.1396 13.4312 30.1113C13.4312 36.083 18.2895 40.9415 24.2612 40.9415C30.2329 40.9415 35.0913 36.0832 35.0913 30.1114C35.0913 24.1396 30.233 19.2812 24.2612 19.2812ZM24.2612 39.0261C19.3457 39.0261 15.3465 35.0269 15.3465 30.1114C15.3465 25.1958 19.3457 21.1967 24.2612 21.1967C29.1767 21.1967 33.1759 25.1959 33.1759 30.1114C33.1759 35.0269 29.1767 39.0261 24.2612 39.0261Z" fill="#D0D277"/>
<path d="M25.7511 29.3362C25.5903 29.2793 25.4376 29.2248 25.2929 29.1727V26.0955C25.672 26.211 25.9346 26.404 26.0634 26.5876C26.3672 27.0205 26.9646 27.1253 27.3974 26.8213C27.8304 26.5176 27.9351 25.9202 27.6312 25.4873C27.1797 24.8438 26.3611 24.3067 25.2929 24.1327V23.9303C25.2929 23.4014 24.8641 22.9727 24.3352 22.9727C23.8064 22.9727 23.3775 23.4014 23.3775 23.9303V24.2055C23.2321 24.2378 23.0842 24.2763 22.9342 24.3215C21.7326 24.6835 20.8255 25.8508 20.7285 27.1602C20.6326 28.4531 21.3211 29.5766 22.57 30.1656C22.747 30.2491 23.0245 30.3645 23.3776 30.5022V34.1871C22.8849 34.04 22.4325 33.7933 22.1385 33.4283C21.8064 33.0163 21.2038 32.9515 20.7918 33.2833C20.3799 33.615 20.3149 34.218 20.6467 34.6299C21.3446 35.4962 22.3747 35.9595 23.3776 36.1565V36.2917C23.3776 36.8206 23.8065 37.2493 24.3353 37.2493C24.8642 37.2493 25.293 36.8206 25.293 36.2917V36.2296C27.4092 35.9617 28.333 34.5851 28.4891 33.3563C28.7075 31.6364 27.5815 29.9833 25.7511 29.3362ZM22.6386 27.302C22.6739 26.8257 22.9833 26.3719 23.3775 26.1963V28.4289C22.7212 28.1155 22.6132 27.6435 22.6386 27.302ZM26.5889 33.1151C26.5127 33.715 26.0472 34.1307 25.2929 34.2889V31.2124C26.2932 31.6417 26.6692 32.4828 26.5889 33.1151Z" fill="#D0D277"/>
<path d="M47.5623 47.1184H47.4949V44.2527C47.4949 43.7238 47.066 43.295 46.5372 43.295H46.2847V39.7621C46.2847 39.2332 45.8559 38.8044 45.3271 38.8044H44.1414V21.4079H45.3271C45.8559 21.4079 46.2847 20.9792 46.2847 20.4503V16.9173H46.5372C47.066 16.9173 47.4949 16.4886 47.4949 15.9596V12.1362C47.4949 11.6073 47.066 11.1786 46.5372 11.1786H44.5266L24.7269 0.121531C24.4366 -0.0405103 24.0833 -0.0405103 23.793 0.121531L3.99338 11.1785H1.9828C1.45397 11.1785 1.02511 11.6072 1.02511 12.1362V15.9595C1.02511 16.4885 1.45397 16.9172 1.9828 16.9172H2.23525V20.4502C2.23525 20.9791 2.66411 21.4079 3.19294 21.4079H4.37857V38.8043H3.19294C2.66411 38.8043 2.23525 39.2331 2.23525 39.762V43.2949H1.9828C1.45397 43.2949 1.02511 43.7237 1.02511 44.2526V47.1184H0.957691C0.428854 47.1184 0 47.5472 0 48.0761C0 48.605 0.428854 49.0338 0.957691 49.0338H47.5623C48.0911 49.0338 48.52 48.605 48.52 48.0761C48.52 47.5472 48.0911 47.1184 47.5623 47.1184ZM44.3694 43.295H37.4241V40.7198H44.3694V43.295ZM13.0113 43.295V39.7621C13.0113 39.2332 12.5824 38.8044 12.0536 38.8044H10.8679V21.4079H12.0536C12.5824 21.4079 13.0113 20.9792 13.0113 20.4503V16.9173H35.5086V20.4503C35.5086 20.9792 35.9375 21.4079 36.4663 21.4079H37.652V38.8044H36.4663C35.9375 38.8044 35.5086 39.2332 35.5086 39.7621V43.295H13.0113ZM42.2261 38.8044H39.5674V21.4079H42.2261V38.8044ZM44.3694 19.4926H37.4241V16.9173H44.3694V19.4926ZM24.26 2.05463L40.5981 11.1786H7.92183L24.26 2.05463ZM2.9405 13.0938H45.5795V15.0019H2.9405V13.0938ZM4.15063 16.9173H11.0959V19.4926H4.15063V16.9173ZM6.29385 21.4079H8.9525V38.8044H6.29385V21.4079ZM4.15063 40.7198H11.0959V43.295H4.15063V40.7198ZM2.9405 47.1184V45.2104H45.5795V47.1184H2.9405Z" fill="#D0D277"/>
</svg>
