<svg width="140" height="42" viewBox="0 0 140 42" fill="none" xmlns="http://www.w3.org/2000/svg">
<path fill-rule="evenodd" clip-rule="evenodd" d="M87.8701 12.775L85.5936 8.95731L81.553 10.8661L79.2766 7.03718L75.2359 8.95731L72.9709 5.11705L68.9302 7.03718L66.6538 3.20822L62.6131 5.12834L60.3481 1.28809L56.2961 3.20822L47.7253 30.9033L58.14 34.0658C58.5323 32.8175 59.3616 31.7497 60.4781 31.0552C61.5946 30.3607 62.9246 30.0855 64.2277 30.2792C65.5309 30.4729 66.7212 31.1228 67.5836 32.1114C68.4461 33.1 68.9237 34.3621 68.9302 35.6697V35.7826C68.953 36.2796 68.8961 36.7766 68.7481 37.2736L79.3335 40.4926L87.8701 12.775Z" fill="#D61920"/>
<path fill-rule="evenodd" clip-rule="evenodd" d="M56.6602 28.6213C56.397 28.578 56.158 28.4426 55.9868 28.2395C55.8155 28.0364 55.7233 27.7791 55.7269 27.5144V13.9605C55.7254 13.8118 55.7538 13.6642 55.8105 13.5265C55.8671 13.3888 55.9509 13.2637 56.0569 13.1585C56.1629 13.0533 56.289 12.9701 56.4278 12.9139C56.5665 12.8577 56.7152 12.8295 56.8651 12.831H66.7334C67.3149 12.8295 67.8909 12.9417 68.4287 13.1611C68.9664 13.3806 69.4554 13.703 69.8676 14.1099C70.2798 14.5169 70.6072 15.0004 70.8311 15.5329C71.0549 16.0654 71.171 16.6364 71.1724 17.2134V27.5144C71.1721 27.6807 71.1348 27.8449 71.0631 27.9953C70.9915 28.1457 70.8872 28.2785 70.7578 28.3842C70.6284 28.49 70.4771 28.5661 70.3146 28.607C70.1521 28.648 69.9826 28.6529 69.818 28.6213C69.5568 28.5756 69.3205 28.4392 69.1516 28.2363C68.9826 28.0335 68.892 27.7775 68.896 27.5144V17.2247C68.896 16.6556 68.6682 16.1097 68.2626 15.7073C67.857 15.3048 67.307 15.0787 66.7334 15.0787H64.5822V27.5031C64.5831 27.6544 64.5533 27.8044 64.4947 27.9441C64.436 28.0838 64.3497 28.2104 64.2407 28.3163C64.1111 28.4438 63.9523 28.5382 63.7778 28.5913C63.6033 28.6444 63.4185 28.6547 63.2391 28.6213C62.9758 28.578 62.7369 28.4426 62.5656 28.2395C62.3944 28.0364 62.3022 27.7791 62.3058 27.5144V15.0787H58.0033V27.5031C58.0044 27.6692 57.9685 27.8335 57.8982 27.9844C57.8279 28.1352 57.725 28.2687 57.5967 28.3755C57.4684 28.4823 57.318 28.5597 57.1561 28.6022C56.9943 28.6447 56.8249 28.6512 56.6602 28.6213ZM73.0733 34.5285C72.808 34.485 72.5675 34.3479 72.396 34.1425C72.2245 33.937 72.1336 33.677 72.1399 33.4103C72.1412 33.114 72.2597 32.83 72.47 32.6196C72.6802 32.4068 72.9665 32.285 73.2668 32.2808C74.2342 32.2808 75.0651 31.6709 75.3383 30.756L76.5107 26.8818L72.6749 14.1525C72.6291 14.0102 72.6123 13.8602 72.6254 13.7113C72.6385 13.5625 72.6812 13.4177 72.751 13.2853C72.8209 13.1529 72.9165 13.0356 73.0324 12.9402C73.1483 12.8448 73.2821 12.7731 73.4261 12.7294C73.7128 12.6505 74.0191 12.6839 74.2817 12.8226C74.5444 12.9613 74.7433 13.1948 74.8375 13.4748L77.683 22.9625L80.5741 13.4748C80.7107 12.9553 81.2912 12.6051 81.883 12.7181L81.9627 12.7294C82.5773 12.9214 82.9188 13.5652 82.7367 14.1638L78.7871 27.2207L77.5351 31.3998C77.2541 32.2992 76.697 33.089 75.9416 33.6588C75.1732 34.2306 74.2386 34.5398 73.2781 34.5398C73.2096 34.5424 73.141 34.5386 73.0733 34.5285Z" fill="#FEFEFE"/>
<path fill-rule="evenodd" clip-rule="evenodd" d="M3.50578 26.1486H5.73667C6.33136 26.1486 6.90169 25.9141 7.3222 25.4969C7.74271 25.0796 7.97895 24.5136 7.97895 23.9235V17.4063C7.98045 17.1141 7.92393 16.8245 7.81263 16.554C7.70133 16.2834 7.53742 16.0373 7.33026 15.8296C7.1231 15.622 6.87675 15.4568 6.60527 15.3436C6.3338 15.2304 6.04251 15.1714 5.74805 15.1699H3.50578V26.126V26.1486ZM2.10578 28.4753C1.83248 28.4295 1.58471 28.2882 1.40727 28.0769C1.22983 27.8656 1.13442 27.5983 1.1383 27.3232V7.08282C1.13629 6.92796 1.16545 6.77426 1.22409 6.63073C1.28272 6.48721 1.36965 6.35675 1.47976 6.247C1.61298 6.10972 1.77815 6.00703 1.96074 5.94794C2.14333 5.88886 2.33775 5.87519 2.52692 5.90815C3.09602 6.0211 3.50578 6.49548 3.50578 7.07152V12.8319H5.73667C6.3415 12.8304 6.94067 12.9474 7.49989 13.176C8.0591 13.4047 8.56737 13.7405 8.99557 14.1644C9.42378 14.5883 9.76351 15.0918 9.99531 15.6462C10.2271 16.2006 10.3464 16.7948 10.3464 17.395V23.9122C10.3434 25.1215 9.85799 26.2804 8.99628 27.1355C8.13456 27.9906 6.96669 28.4723 5.74805 28.4753H2.32204C2.24597 28.4798 2.16964 28.476 2.09439 28.464L2.10578 28.4753Z" fill="#333545"/>
<path fill-rule="evenodd" clip-rule="evenodd" d="M18.3708 15.0792C18.243 15.057 18.1135 15.0457 17.9838 15.0453C17.6885 15.0423 17.3956 15.0978 17.1221 15.2085C16.8487 15.3193 16.6003 15.4831 16.3915 15.6903C16.1827 15.8975 16.0176 16.144 15.906 16.4153C15.7944 16.6867 15.7385 16.9774 15.7415 17.2704V24.0586C15.74 24.3512 15.797 24.6413 15.9091 24.9119C16.0213 25.1825 16.1864 25.4284 16.3949 25.6353C16.6034 25.8422 16.8512 26.0061 17.1239 26.1174C17.3967 26.2287 17.6889 26.2852 17.9838 26.2837C18.5785 26.2837 19.1488 26.0493 19.5693 25.632C19.9898 25.2147 20.2261 24.6487 20.2261 24.0586V17.2817C20.2261 16.1861 19.4407 15.2712 18.3708 15.0792ZM17.1757 28.5766C16.1085 28.3903 15.1419 27.836 14.4464 27.0115C13.7508 26.1869 13.3711 25.1452 13.374 24.0699V17.2817C13.372 16.6809 13.4908 16.0858 13.7234 15.5311C13.9559 14.9765 14.2977 14.4734 14.7285 14.0514C15.1559 13.6274 15.6635 13.2913 16.2221 13.0626C16.7808 12.8339 17.3795 12.717 17.9838 12.7186C19.2034 12.7186 20.373 13.1993 21.2353 14.0551C22.0977 14.9108 22.5822 16.0715 22.5822 17.2817V24.0699C22.5822 25.2898 22.1041 26.4418 21.2277 27.3115C20.8021 27.7347 20.2964 28.0703 19.7397 28.299C19.183 28.5277 18.5863 28.6451 17.9838 28.6443C17.7129 28.6455 17.4425 28.6228 17.1757 28.5766ZM30.6066 15.0905C30.4788 15.0683 30.3493 15.0569 30.2196 15.0566C29.9243 15.0536 29.6313 15.1091 29.3579 15.2198C29.0845 15.3306 28.8361 15.4944 28.6273 15.7016C28.4184 15.9088 28.2534 16.1553 28.1418 16.4266C28.0302 16.6979 27.9743 16.9886 27.9773 17.2817V24.0699C27.9758 24.3625 28.0328 24.6525 28.1449 24.9232C28.2571 25.1938 28.4222 25.4397 28.6307 25.6466C28.8392 25.8535 29.087 26.0174 29.3597 26.1287C29.6324 26.24 29.9247 26.2965 30.2196 26.295C30.5145 26.2965 30.8067 26.24 31.0794 26.1287C31.3522 26.0174 31.6 25.8535 31.8085 25.6466C32.017 25.4397 32.1821 25.1938 32.2942 24.9232C32.4064 24.6525 32.4634 24.3625 32.4619 24.0699V17.2817C32.4619 16.1974 31.6765 15.2825 30.6066 15.0905ZM29.4114 28.5766C28.3464 28.3879 27.3824 27.8326 26.6892 27.0083C25.9959 26.184 25.6178 25.1435 25.6212 24.0699V17.2817C25.623 16.616 25.7712 15.9588 26.0554 15.3558C26.3396 14.7528 26.753 14.2187 27.2667 13.7906C27.7804 13.3626 28.3821 13.051 29.0297 12.8775C29.6773 12.704 30.3553 12.6729 31.0163 12.7863C32.0837 12.9699 33.0514 13.5215 33.749 14.344C34.4466 15.1664 34.8292 16.2067 34.8293 17.2817V24.0699C34.8307 24.6733 34.7106 25.2708 34.4761 25.8275C34.2415 26.3842 33.8973 26.8887 33.4635 27.3115C33.0378 27.7347 32.5322 28.0703 31.9755 28.299C31.4188 28.5277 30.8221 28.6451 30.2196 28.6443C29.9464 28.6443 29.6732 28.6217 29.4114 28.5766ZM38.8245 28.6217C38.5512 28.5759 38.3034 28.4346 38.1259 28.2233C37.9485 28.012 37.8531 27.7447 37.857 27.4697V7.08242C37.857 6.76616 37.9708 6.4612 38.1984 6.2466C38.3327 6.11507 38.497 6.01764 38.6773 5.96258C38.8576 5.90752 39.0487 5.89646 39.2342 5.93034C39.8033 6.0207 40.2245 6.50638 40.2245 7.08242V19.1453L45.6651 13.0913C45.9383 12.7976 46.348 12.6621 46.7578 12.7299C46.9644 12.7642 47.158 12.8528 47.3183 12.9865C47.4787 13.1202 47.6001 13.2941 47.6698 13.4901C47.7395 13.6861 47.7551 13.8971 47.7148 14.1011C47.6745 14.305 47.5798 14.4946 47.4407 14.65L43.3318 19.2018L47.5773 26.9162C47.6537 27.0463 47.7032 27.1903 47.7227 27.3397C47.7423 27.489 47.7315 27.6408 47.6911 27.7859C47.6471 27.9355 47.573 28.0748 47.4732 28.1951C47.3734 28.3155 47.2501 28.4145 47.1106 28.4862C46.8696 28.6237 46.5873 28.6717 46.3139 28.6217C46.1438 28.5932 45.9822 28.5278 45.8406 28.4302C45.6989 28.3326 45.5807 28.2052 45.4944 28.057L41.67 21.0768L40.2131 22.6693V27.4697C40.2131 27.7812 40.0884 28.08 39.8664 28.3003C39.6444 28.5206 39.3433 28.6443 39.0293 28.6443C38.9497 28.6443 38.8814 28.6443 38.8017 28.6217H38.8245ZM90.9659 28.6105C90.3258 28.5041 89.7178 28.2572 89.1861 27.8879C88.6544 27.5186 88.2126 27.0361 87.8927 26.4757C87.7364 26.2012 87.6955 25.8764 87.7789 25.5721C87.87 25.2785 88.0635 25.03 88.3253 24.8718C88.5683 24.7401 88.85 24.6962 89.122 24.7476C89.4635 24.8041 89.7708 25.0074 89.9415 25.3123C90.2488 25.8319 90.7383 26.1708 91.3415 26.2724C91.6525 26.326 91.9718 26.3092 92.2753 26.2231C92.5788 26.1371 92.8588 25.984 93.0944 25.7754C93.5497 25.3575 93.7773 24.7589 93.7204 24.1716C93.7077 23.8705 93.6239 23.5766 93.4756 23.3137C93.3273 23.0508 93.1187 22.8262 92.8667 22.6581L89.6797 20.4104C89.1605 20.0486 88.7281 19.5775 88.4133 19.0309C88.0985 18.4842 87.9091 17.8754 87.8586 17.2478C87.8174 16.6146 87.9221 15.9804 88.1646 15.3933C88.4072 14.8062 88.7813 14.2816 89.2586 13.8593C89.7242 13.4298 90.2805 13.1086 90.8869 12.9191C91.4933 12.7296 92.1346 12.6765 92.7643 12.7637C94.1074 12.9896 95.2001 13.7577 95.8261 14.842C95.9769 15.113 96.0161 15.4314 95.9355 15.7304C95.8549 16.0295 95.6606 16.2859 95.3936 16.4459C95.1526 16.5834 94.8702 16.6314 94.5968 16.5814C94.4268 16.5529 94.2651 16.4875 94.1235 16.3899C93.9818 16.2922 93.8636 16.1648 93.7773 16.0167C93.6345 15.777 93.44 15.5717 93.2078 15.4155C92.9756 15.2593 92.7114 15.156 92.4342 15.1131C92.1506 15.0621 91.8589 15.0775 91.5823 15.1578C91.3057 15.2382 91.0518 15.3815 90.8407 15.5762C90.6346 15.7692 90.4737 16.0048 90.3695 16.2664C90.2653 16.5279 90.2202 16.809 90.2375 17.0897C90.2602 17.6431 90.5789 18.1853 91.057 18.5015L94.244 20.704C94.785 21.0799 95.2323 21.5734 95.5519 22.147C95.8714 22.7205 96.0547 23.3589 96.0879 24.0134C96.1406 24.6649 96.0394 25.3196 95.7925 25.9255C95.5455 26.5314 95.1595 27.0717 94.6651 27.5036C94.1843 27.9469 93.6099 28.2783 92.9838 28.4737C92.3577 28.6691 91.6956 28.7235 91.0456 28.633L90.9545 28.6105H90.9659ZM100.106 28.6443C99.8324 28.5967 99.5845 28.4552 99.4056 28.2446C99.2267 28.034 99.128 27.7677 99.1269 27.4923V7.10501C99.1254 6.95033 99.155 6.7969 99.2139 6.6537C99.2729 6.5105 99.36 6.38041 99.4702 6.27103C99.5804 6.16165 99.7115 6.07518 99.8558 6.01668C100 5.95818 100.155 5.92883 100.311 5.93034L100.538 5.94163C101.107 6.05458 101.494 6.51767 101.494 7.10501V12.8654H103.737C104.341 12.8639 104.94 12.9809 105.498 13.2097C106.057 13.4385 106.564 13.7746 106.992 14.1986C107.419 14.6226 107.757 15.1262 107.988 15.6805C108.219 16.2348 108.337 16.8289 108.335 17.4285V27.481C108.336 27.6515 108.299 27.8202 108.227 27.975C108.155 28.1299 108.05 28.2671 107.918 28.3771C107.787 28.487 107.633 28.5669 107.467 28.6111C107.301 28.6554 107.127 28.6629 106.958 28.633C106.389 28.5314 105.979 28.0457 105.979 27.4697V17.4172C105.979 17.1256 105.921 16.8368 105.808 16.5674C105.695 16.2981 105.53 16.0536 105.321 15.8478C105.113 15.6421 104.866 15.4793 104.594 15.3687C104.322 15.2581 104.031 15.2019 103.737 15.2034H101.494V27.481C101.496 27.6527 101.459 27.8225 101.386 27.9783C101.313 28.1341 101.207 28.272 101.074 28.3822C100.941 28.4923 100.786 28.5719 100.618 28.6153C100.451 28.6587 100.276 28.6647 100.106 28.633V28.6443ZM116.359 15.1018C116.037 15.0437 115.705 15.0568 115.389 15.1403C115.072 15.2238 114.777 15.3755 114.526 15.5847C114.275 15.7939 114.074 16.0555 113.936 16.3507C113.799 16.646 113.728 16.9677 113.73 17.293V24.0812C113.729 24.3729 113.785 24.662 113.897 24.9319C114.008 25.2018 114.172 25.4471 114.38 25.6539C114.587 25.8607 114.833 26.0247 115.105 26.1367C115.376 26.2487 115.667 26.3063 115.961 26.3063C116.553 26.3063 117.122 26.0804 117.543 25.6625C117.754 25.456 117.921 25.2097 118.034 24.9381C118.148 24.6665 118.205 24.3752 118.203 24.0812V17.2817C118.203 16.1974 117.429 15.2712 116.348 15.0905L116.359 15.1018ZM115.153 28.5653C114.089 28.379 113.125 27.8259 112.432 27.0035C111.738 26.1811 111.36 25.1422 111.363 24.0699V17.2817C111.363 16.6151 111.51 15.9565 111.793 15.3522C112.077 14.7478 112.49 14.2123 113.004 13.783C113.518 13.3537 114.12 13.041 114.768 12.8669C115.417 12.6928 116.096 12.6615 116.758 12.775C117.827 12.959 118.796 13.5122 119.494 14.337C120.192 15.1617 120.573 16.2048 120.571 17.2817V24.0699C120.571 24.6715 120.451 25.2671 120.216 25.8218C119.982 26.3765 119.638 26.8792 119.205 27.3002C118.683 27.8205 118.042 28.2073 117.336 28.4276C116.63 28.648 115.881 28.6952 115.153 28.5653Z" fill="#333545"/>
<path fill-rule="evenodd" clip-rule="evenodd" d="M138.748 14.1644C138.787 14.0209 138.797 13.8712 138.777 13.7239C138.758 13.5766 138.709 13.4346 138.634 13.306C138.548 13.1689 138.436 13.0503 138.303 12.9571C138.17 12.864 138.019 12.7983 137.86 12.7638C137.567 12.7087 137.263 12.7669 137.011 12.9265C136.76 13.086 136.579 13.3348 136.506 13.6222C136.506 13.6787 135.231 18.7727 134.229 22.6468L134.207 22.7259L134.184 22.6468L131.907 13.6335C131.864 13.4135 131.753 13.2121 131.59 13.0566C131.427 12.901 131.22 12.7989 130.997 12.7638C130.929 12.7506 130.861 12.743 130.792 12.7412C130.268 12.7412 129.813 13.1026 129.665 13.6222C129.654 13.6787 128.379 18.7727 127.389 22.6468L127.366 22.7259L127.343 22.6468C126.376 18.7727 125.067 13.6787 125.067 13.6222C125.013 13.406 124.897 13.2099 124.734 13.0576C124.57 12.9052 124.366 12.8032 124.145 12.7638C123.955 12.7306 123.76 12.7446 123.578 12.8046C123.395 12.8646 123.23 12.9687 123.098 13.1076C122.966 13.2465 122.871 13.4158 122.821 13.6003C122.771 13.7847 122.769 13.9786 122.813 14.1644L126.239 27.7521C126.304 28.0011 126.449 28.2221 126.653 28.3813C126.856 28.5404 127.107 28.6289 127.366 28.6331C127.924 28.6331 128.368 28.2717 128.481 27.7521L130.758 18.7275L130.792 18.6484L130.815 18.7275C131.816 22.6468 133.091 27.7634 133.091 27.7634C133.159 28.0076 133.304 28.2237 133.505 28.3802C133.706 28.5367 133.951 28.6254 134.207 28.6331C134.469 28.6412 134.726 28.5573 134.932 28.3962C135.138 28.2351 135.28 28.007 135.333 27.7521L138.748 14.1644Z" fill="#333545"/>
</svg>
