<svg width="50" height="50" viewBox="0 0 50 50" fill="none" xmlns="http://www.w3.org/2000/svg">
<path d="M29.1667 18.5615L47.5208 22.2074C49 22.5199 50 23.7699 50 25.249V46.499C50 48.2282 48.6042 49.624 46.875 49.624H28.125C28.7083 49.624 29.1667 49.1657 29.1667 48.5824V47.5407H46.875C47.4375 47.5407 47.9167 47.0824 47.9167 46.499V25.249C47.9167 24.7699 47.5833 24.3324 47.1042 24.2282L29.1667 20.6865V18.5615Z" fill="#77C6D2"/>
<path d="M40.6234 28.791C41.2067 28.791 41.665 29.2493 41.665 29.8327C41.665 30.416 41.2067 30.8743 40.6234 30.8743H36.4567C35.8734 30.8743 35.415 30.416 35.415 29.8327C35.415 29.2493 35.8734 28.791 36.4567 28.791H40.6234Z" fill="#77C6D2"/>
<path d="M40.6234 35.041C41.2067 35.041 41.665 35.4993 41.665 36.0827C41.665 36.666 41.2067 37.1243 40.6234 37.1243H36.4567C35.8734 37.1243 35.415 36.666 35.415 36.0827C35.415 35.4993 35.8734 35.041 36.4567 35.041H40.6234Z" fill="#77C6D2"/>
<path d="M40.6234 41.291C41.2067 41.291 41.665 41.7493 41.665 42.3327C41.665 42.916 41.2067 43.3743 40.6234 43.3743H36.4567C35.8734 43.3743 35.415 42.916 35.415 42.3327C35.415 41.7493 35.8734 41.291 36.4567 41.291H40.6234Z" fill="#77C6D2"/>
<path d="M29.1683 48.582C29.1683 49.1654 28.71 49.6237 28.1266 49.6237C27.5433 49.6237 27.085 49.1654 27.085 48.582V47.5404V19.4154C27.085 19.1029 27.2308 18.8112 27.46 18.6029C27.71 18.4154 28.0225 18.332 28.335 18.3945L29.1683 18.5612V20.6862V47.5404V48.582Z" fill="#77C6D2"/>
<path d="M27.0817 47.541V48.5827C27.0817 49.166 27.54 49.6244 28.1234 49.6244H19.79C20.3734 49.6244 20.8317 49.166 20.8317 48.5827V47.541H27.0817Z" fill="#77C6D2"/>
<path d="M21.8734 10.041C22.4567 10.041 22.915 10.4993 22.915 11.0827C22.915 11.666 22.4567 12.1244 21.8734 12.1244H17.7067C17.1234 12.1244 16.665 11.666 16.665 11.0827C16.665 10.4993 17.1234 10.041 17.7067 10.041H21.8734Z" fill="#77C6D2"/>
<path d="M22.915 17.3327C22.915 17.916 22.4567 18.3744 21.8734 18.3744H17.7067C17.1234 18.3744 16.665 17.916 16.665 17.3327C16.665 16.7493 17.1234 16.291 17.7067 16.291H21.8734C22.4567 16.291 22.915 16.7493 22.915 17.3327Z" fill="#77C6D2"/>
<path d="M21.8734 22.541C22.4567 22.541 22.915 22.9993 22.915 23.5827C22.915 24.166 22.4567 24.6243 21.8734 24.6243H17.7067C17.1234 24.6243 16.665 24.166 16.665 23.5827C16.665 22.9993 17.1234 22.541 17.7067 22.541H21.8734Z" fill="#77C6D2"/>
<path d="M21.8734 28.791C22.4567 28.791 22.915 29.2493 22.915 29.8327C22.915 30.416 22.4567 30.8743 21.8734 30.8743H17.7067C17.1234 30.8743 16.665 30.416 16.665 29.8327C16.665 29.2493 17.1234 28.791 17.7067 28.791H21.8734Z" fill="#77C6D2"/>
<path d="M12.5 29.8327C12.5 30.416 12.0417 30.8743 11.4583 30.8743H7.29167C6.70833 30.8743 6.25 30.416 6.25 29.8327C6.25 29.2493 6.70833 28.791 7.29167 28.791H11.4583C12.0417 28.791 12.5 29.2493 12.5 29.8327Z" fill="#77C6D2"/>
<path d="M11.4583 10.041C12.0417 10.041 12.5 10.4993 12.5 11.0827C12.5 11.666 12.0417 12.1244 11.4583 12.1244H7.29167C6.70833 12.1244 6.25 11.666 6.25 11.0827C6.25 10.4993 6.70833 10.041 7.29167 10.041H11.4583Z" fill="#77C6D2"/>
<path d="M11.4583 16.291C12.0417 16.291 12.5 16.7493 12.5 17.3327C12.5 17.916 12.0417 18.3744 11.4583 18.3744H7.29167C6.70833 18.3744 6.25 17.916 6.25 17.3327C6.25 16.7493 6.70833 16.291 7.29167 16.291H11.4583Z" fill="#77C6D2"/>
<path d="M11.4583 22.541C12.0417 22.541 12.5 22.9993 12.5 23.5827C12.5 24.166 12.0417 24.6243 11.4583 24.6243H7.29167C6.70833 24.6243 6.25 24.166 6.25 23.5827C6.25 22.9993 6.70833 22.541 7.29167 22.541H11.4583Z" fill="#77C6D2"/>
<path d="M18.7516 38.166C18.7516 37.5827 18.2725 37.1243 17.71 37.1243H11.46C10.8766 37.1243 10.4183 37.5827 10.4183 38.166V47.541H8.33496V38.166C8.33496 36.4368 9.73079 35.041 11.46 35.041H17.71C19.4391 35.041 20.835 36.4368 20.835 38.166V47.541H18.7516V38.166Z" fill="#77C6D2"/>
<path d="M10.4183 47.541H18.7516H20.835V48.5827C20.835 49.166 20.3766 49.6244 19.7933 49.6244H9.37663C8.79329 49.6244 8.33496 49.166 8.33496 48.5827V47.541H10.4183Z" fill="#77C6D2"/>
<path d="M3.64583 0.0405604L26.5417 3.51973C28.0625 3.76973 29.1667 5.06139 29.1667 6.60306V18.5614L28.3333 18.3947C28.0208 18.3322 27.7083 18.4156 27.4583 18.6031C27.2292 18.8114 27.0833 19.1031 27.0833 19.4156V6.60306C27.0833 6.08223 26.7083 5.64473 26.2083 5.56139L3.3125 2.10306C3.25 2.08223 3.1875 2.08223 3.125 2.08223C2.875 2.08223 2.64583 2.16556 2.45833 2.33223C2.20833 2.54056 2.08333 2.81139 2.08333 3.12389V46.4989C2.08333 47.0822 2.5625 47.5406 3.125 47.5406H8.33333V48.5822C8.33333 49.1656 8.79167 49.6239 9.375 49.6239H3.125C1.39583 49.6239 0 48.2281 0 46.4989V3.12389C0 2.20723 0.395833 1.33223 1.10417 0.748894C1.8125 0.144727 2.72917 -0.105273 3.64583 0.0405604Z" fill="#77C6D2"/>
</svg>
