<svg width="140" height="40" viewBox="0 0 140 40" fill="none" xmlns="http://www.w3.org/2000/svg">
<g clip-path="url(#clip0_1905_5926)">
<path d="M15.1612 6.62207V17.905H4.88077V6.62207H0V33.5555H4.88077V22.6389H15.1612V33.5555H20.042V6.62207H15.1612Z" fill="#33475B"/>
<path d="M35.6623 24.8495C35.6623 25.9289 35.2369 26.9641 34.4797 27.7273C33.7225 28.4906 32.6954 28.9194 31.6245 28.9194C30.5536 28.9194 29.5266 28.4906 28.7694 27.7273C28.0121 26.9641 27.5867 25.9289 27.5867 24.8495V13.3135H22.957V24.8495C22.957 27.1643 23.8693 29.3843 25.4932 31.0211C27.1171 32.6579 29.3196 33.5774 31.6162 33.5774C33.9127 33.5774 36.1152 32.6579 37.7391 31.0211C39.363 29.3843 40.2753 27.1643 40.2753 24.8495V13.3135H35.6623V24.8495Z" fill="#33475B"/>
<path d="M69.9645 14.5016C69.9645 12.137 71.5165 11.3874 73.2168 11.3874C74.587 11.3874 76.3973 12.4383 77.581 13.7134L80.6133 10.1123C79.0995 8.04901 76.029 6.62207 73.5157 6.62207C68.4938 6.62207 64.8613 9.58682 64.8613 14.5016C64.8613 23.62 75.919 20.7275 75.919 25.8303C75.919 27.4042 74.4029 28.795 72.6668 28.795C69.9286 28.795 69.0415 27.4452 67.7836 26.0183L64.4189 29.5446C66.5712 32.2081 69.2256 33.5603 72.4061 33.5603C77.1769 33.5603 81.015 30.5594 81.015 25.8688C81.015 15.7453 69.9573 18.8908 69.9573 14.5016" fill="#33475B"/>
<path d="M138.371 29.2526C135.636 29.2526 134.859 28.0595 134.859 26.2324V18.1457H139.11V14.048H134.859V8.6416L130.164 10.7651V27.2376C130.164 31.4509 133.048 33.5744 137.004 33.5744C137.624 33.5858 138.244 33.5357 138.855 33.425L140 29.1755C139.483 29.2117 138.89 29.2478 138.371 29.2478" fill="#33475B"/>
<path d="M53.2845 13.4479C50.9912 13.4479 49.3913 14.1179 47.8441 15.6485V6.7832H43.2073V23.2147C43.2073 29.3659 47.6193 33.5792 52.5766 33.5792C58.0768 33.5792 62.9145 29.2912 62.9145 23.516C62.9145 17.813 58.4618 13.4503 53.2845 13.4503V13.4479ZM53.2558 28.8766C52.2153 28.8766 51.1981 28.5656 50.3329 27.9829C49.4678 27.4002 48.7934 26.5721 48.3953 25.6031C47.9971 24.6341 47.8929 23.5679 48.0959 22.5393C48.2989 21.5106 48.7999 20.5658 49.5357 19.8242C50.2715 19.0825 51.2089 18.5775 52.2294 18.3729C53.25 18.1683 54.3078 18.2733 55.2691 18.6747C56.2304 19.076 57.0521 19.7557 57.6301 20.6277C58.2082 21.4998 58.5168 22.525 58.5168 23.5738C58.5168 24.9802 57.9625 26.329 56.9759 27.3234C55.9892 28.3179 54.6511 28.8766 53.2558 28.8766Z" fill="#33475B"/>
<path d="M103.632 23.2703C103.632 17.4854 98.8039 13.207 93.2942 13.207C88.3369 13.207 83.9248 17.4203 83.9248 23.5716V40.0127H88.5616V31.1353C90.1065 32.6635 91.7087 33.336 93.9996 33.336C99.1769 33.336 103.63 28.9756 103.63 23.2703H103.632ZM99.2415 23.2125C99.2415 24.2612 98.9329 25.2865 98.3548 26.1585C97.7767 27.0306 96.9551 27.7102 95.9938 28.1116C95.0324 28.513 93.9746 28.618 92.9541 28.4134C91.9336 28.2087 90.9962 27.7037 90.2604 26.9621C89.5246 26.2205 89.0236 25.2756 88.8206 24.247C88.6176 23.2183 88.7218 22.1521 89.12 21.1832C89.5181 20.2142 90.1925 19.386 91.0576 18.8033C91.9228 18.2207 92.9399 17.9097 93.9805 17.9097C95.3758 17.9097 96.7139 18.4683 97.7006 19.4628C98.6872 20.4573 99.2415 21.8061 99.2415 23.2125Z" fill="#33475B"/>
<path d="M118.612 12.9803V8.28488C119.227 7.99494 119.749 7.53472 120.115 6.9578C120.481 6.38087 120.677 5.71096 120.68 5.02607V4.9176C120.68 3.9587 120.302 3.03907 119.63 2.36102C118.957 1.68298 118.045 1.30205 117.093 1.30205H116.986C116.034 1.30205 115.122 1.68298 114.449 2.36102C113.777 3.03907 113.399 3.9587 113.399 4.9176V5.02607C113.402 5.71096 113.598 6.38087 113.964 6.9578C114.33 7.53472 114.852 7.99494 115.467 8.28488V12.9803C113.698 13.2531 112.031 13.9923 110.637 15.1231L97.8619 5.09356C97.9523 4.76282 98.0005 4.42182 98.0054 4.07879C98.0068 3.27303 97.7711 2.48494 97.3281 1.8142C96.8851 1.14347 96.2547 0.620233 95.5167 0.310668C94.7786 0.00110332 93.966 -0.0808791 93.1817 0.0750905C92.3974 0.23106 91.6766 0.617975 91.1105 1.18689C90.5444 1.75581 90.1584 2.48118 90.0014 3.27124C89.8443 4.06131 89.9232 4.88057 90.2282 5.62542C90.5331 6.37026 91.0504 7.00722 91.7145 7.45572C92.3786 7.90422 93.1598 8.14412 93.9592 8.14508C94.6583 8.14193 95.3443 7.9541 95.9488 7.60034L108.53 17.466C107.399 19.1869 106.81 21.2112 106.837 23.275C106.865 25.3388 107.509 27.3462 108.685 29.0357L104.859 32.8923C104.55 32.7927 104.227 32.7399 103.903 32.7356C103.246 32.7361 102.605 32.9327 102.059 33.3005C101.514 33.6683 101.089 34.1908 100.838 34.802C100.587 35.4132 100.521 36.0857 100.65 36.7345C100.778 37.3832 101.094 37.9791 101.558 38.4469C102.022 38.9146 102.613 39.2332 103.257 39.3624C103.9 39.4916 104.568 39.4255 105.174 39.1726C105.78 38.9197 106.299 38.4912 106.664 37.9414C107.029 37.3916 107.224 36.7451 107.224 36.0836C107.22 35.7562 107.168 35.4313 107.069 35.1195L110.854 31.3039C112.089 32.2613 113.524 32.9213 115.05 33.2332C116.577 33.5452 118.154 33.5009 119.661 33.1037C121.168 32.7065 122.565 31.9669 123.744 30.9417C124.924 29.9164 125.855 28.6326 126.466 27.1887C127.077 25.7447 127.353 24.1789 127.271 22.6111C127.189 21.0434 126.753 19.5152 125.994 18.1438C125.236 16.7724 124.177 15.594 122.897 14.699C121.618 13.804 120.152 13.2161 118.612 12.9803ZM117.043 28.4211C116.008 28.4201 114.996 28.1098 114.135 27.5293C113.274 26.9488 112.604 26.1242 112.208 25.1597C111.813 24.1952 111.709 23.1341 111.912 22.1105C112.114 21.0869 112.613 20.1468 113.346 19.4089C114.078 18.6711 115.011 18.1686 116.026 17.965C117.042 17.7615 118.095 17.8659 119.051 18.2653C120.008 18.6646 120.826 19.3408 121.401 20.2084C121.977 21.0761 122.284 22.0962 122.285 23.14C122.285 24.54 121.733 25.8826 120.751 26.8726C119.769 27.8625 118.437 28.4187 117.048 28.4187" fill="#FF7A59"/>
</g>
<defs>
<clipPath id="clip0_1905_5926">
<rect width="140" height="40" fill="white"/>
</clipPath>
</defs>
</svg>
