<svg width="112" height="30" viewBox="0 0 112 30" fill="none" xmlns="http://www.w3.org/2000/svg">
<path fill-rule="evenodd" clip-rule="evenodd" d="M0 15C0 6.71573 6.71573 0 15 0H30L28.3333 5H15C9.47715 5 5 9.47715 5 15C5 20.5228 9.47715 25 15 25H28.3333L30 30H15C6.71573 30 0 23.2843 0 15Z" fill="white"/>
<path fill-rule="evenodd" clip-rule="evenodd" d="M8.47803 15.0002C8.47803 11.2182 11.1903 8.15234 14.5361 8.15234H27.3911L25.732 13.1629H14.5361C13.6385 13.1629 12.9108 13.9855 12.9108 15.0002C12.9108 16.0148 13.6385 16.8374 14.5361 16.8374H25.732L27.3911 21.848H14.5361C11.1903 21.848 8.47803 18.7821 8.47803 15.0002Z" fill="white"/>
<path d="M53.704 18.104L56.488 20.312C54.584 22.328 52.312 23.336 49.672 23.336C47.336 23.336 45.272 22.488 43.48 20.792C41.688 19.096 40.792 17.064 40.792 14.696C40.792 13.224 41.176 11.832 41.944 10.52C42.712 9.19196 43.784 8.11996 45.16 7.30396C46.52 6.48796 48.008 6.07996 49.624 6.07996C51.016 6.07996 52.288 6.35996 53.44 6.91996C54.56 7.46396 55.448 8.18396 56.104 9.07996L53.512 11.144C52.28 9.71996 50.992 9.00796 49.648 9.00796C48.32 9.00796 47.104 9.56796 46 10.688C44.896 11.824 44.344 13.152 44.344 14.672C44.344 16.288 44.856 17.64 45.88 18.728C46.92 19.832 48.176 20.384 49.648 20.384C50.384 20.384 51.112 20.168 51.832 19.736C52.536 19.304 53.16 18.76 53.704 18.104Z" fill="white"/>
<path d="M61.4181 23H58.1541V5.95996H61.4181V23Z" fill="white"/>
<path d="M71.167 19.616L73.519 20.792C73.023 21.608 72.367 22.224 71.551 22.64C70.687 23.056 69.751 23.264 68.743 23.264C67.143 23.264 65.751 22.768 64.567 21.776C63.367 20.768 62.767 19.408 62.767 17.696C62.767 16.016 63.319 14.672 64.423 13.664C65.527 12.656 66.791 12.152 68.215 12.152C69.831 12.152 71.143 12.68 72.151 13.736C73.159 14.792 73.663 16.096 73.663 17.648C73.663 18.048 73.631 18.344 73.567 18.536H65.983C66.079 19.208 66.399 19.768 66.943 20.216C67.487 20.664 68.159 20.888 68.959 20.888C69.423 20.888 69.855 20.768 70.255 20.528C70.671 20.288 70.975 19.984 71.167 19.616ZM65.911 16.496L70.471 16.472C70.391 15.912 70.143 15.456 69.727 15.104C69.279 14.736 68.751 14.552 68.143 14.552C67.647 14.552 67.167 14.744 66.703 15.128C66.239 15.512 65.975 15.968 65.911 16.496Z" fill="white"/>
<path d="M78.3786 12.44V13.544C78.6666 13.112 79.0506 12.776 79.5306 12.536C80.0106 12.296 80.5306 12.176 81.0906 12.176C81.7626 12.176 82.3546 12.352 82.8666 12.704C83.4106 13.072 83.7866 13.584 83.9946 14.24C84.2346 13.664 84.7066 13.16 85.4106 12.728C86.0986 12.296 86.8586 12.08 87.6906 12.08C88.0426 12.08 88.3866 12.104 88.7226 12.152C89.0746 12.2 89.4346 12.328 89.8026 12.536C90.2026 12.76 90.5386 13.032 90.8106 13.352C91.0986 13.688 91.3386 14.176 91.5306 14.816C91.7226 15.472 91.8186 16.216 91.8186 17.048V22.952H88.5546V17.048C88.5546 15.464 88.0426 14.672 87.0186 14.672C86.5386 14.672 86.0986 14.864 85.6986 15.248C85.2986 15.632 85.0986 16.24 85.0986 17.072V22.976H81.8586V17.072C81.8586 15.488 81.3546 14.696 80.3466 14.696C79.8346 14.696 79.3786 14.888 78.9786 15.272C78.5786 15.656 78.3786 16.264 78.3786 17.096V23H75.1146V12.44H78.3786Z" fill="white"/>
<path d="M98.0744 12.44H100.594V14.96H98.0744V23H94.8104V14.96H92.6744L98.0744 7.23196V12.44Z" fill="white"/>
<path d="M103.344 15.44L101.712 13.736C102.8 12.68 104.224 12.152 105.984 12.152C107.232 12.152 108.344 12.496 109.32 13.184C110.296 13.872 110.784 14.784 110.784 15.92V20.264C110.784 21.32 110.864 22.224 111.024 22.976H108.096C107.984 22.544 107.928 22.064 107.928 21.536C107.656 22.112 107.248 22.544 106.704 22.832C106.128 23.104 105.552 23.24 104.976 23.24C103.76 23.24 102.776 22.912 102.024 22.256C101.256 21.584 100.872 20.752 100.872 19.76C100.872 17.856 102.192 16.776 104.832 16.52C105.952 16.392 106.864 16.248 107.568 16.088V15.992C107.568 15.544 107.424 15.184 107.136 14.912C106.864 14.656 106.496 14.528 106.032 14.528C104.992 14.528 104.096 14.832 103.344 15.44ZM107.52 18.896V18.224C107.168 18.304 106.424 18.424 105.288 18.584C104.456 18.696 104.04 19.104 104.04 19.808C104.04 20.096 104.152 20.336 104.376 20.528C104.584 20.72 104.92 20.816 105.384 20.816C105.992 20.816 106.504 20.656 106.92 20.336C107.32 20.032 107.52 19.552 107.52 18.896Z" fill="white"/>
</svg>
