<svg width="50" height="50" viewBox="0 0 50 50" fill="none" xmlns="http://www.w3.org/2000/svg">
<path d="M25 50C20.0555 50 15.222 48.5338 11.1108 45.7867C6.99952 43.0397 3.79521 39.1352 1.90302 34.5671C0.0108322 29.9989 -0.484251 24.9723 0.480379 20.1227C1.44501 15.2732 3.82603 10.8187 7.32234 7.32234C10.8187 3.82603 15.2732 1.44501 20.1227 0.480379C24.9723 -0.484251 29.9989 0.0108322 34.5671 1.90302C39.1352 3.79521 43.0397 6.99952 45.7867 11.1108C48.5338 15.222 50 20.0555 50 25C49.9924 31.6281 47.3561 37.9825 42.6693 42.6693C37.9825 47.3561 31.6281 49.9924 25 50ZM25 1.42858C20.338 1.42858 15.7807 2.81102 11.9044 5.40108C8.02812 7.99114 5.00692 11.6725 3.22285 15.9796C1.43878 20.2867 0.971992 25.0262 1.8815 29.5986C2.79101 34.171 5.03597 38.371 8.33249 41.6675C11.629 44.964 15.829 47.209 20.4014 48.1185C24.9739 49.028 29.7133 48.5612 34.0204 46.7772C38.3275 44.9931 42.0089 41.9719 44.5989 38.0956C47.189 34.2193 48.5714 29.662 48.5714 25C48.5642 18.7507 46.0785 12.7594 41.6596 8.34043C37.2406 3.92148 31.2493 1.43577 25 1.42858Z" fill="#95D6BE"/>
<path d="M13.4282 41.6429C13.2794 41.6427 13.1343 41.596 13.0133 41.5094C12.4103 41.0772 11.8355 40.607 11.2925 40.1015C11.2239 40.0376 11.1685 39.9607 11.1295 39.8754C11.0905 39.7901 11.0687 39.6979 11.0654 39.6041C11.062 39.5104 11.0772 39.4169 11.11 39.329C11.1428 39.2411 11.1925 39.1605 11.2565 39.0919C11.3204 39.0232 11.3972 38.9678 11.4826 38.9288C11.5679 38.8898 11.6601 38.8681 11.7538 38.8647C11.8476 38.8614 11.9411 38.8765 12.029 38.9093C12.1169 38.9421 12.1974 38.9919 12.2661 39.0558C12.7641 39.5198 13.2914 39.9514 13.8447 40.3479C13.9677 40.436 14.0595 40.5609 14.107 40.7046C14.1545 40.8482 14.1551 41.0033 14.1088 41.1473C14.0625 41.2913 13.9716 41.417 13.8493 41.506C13.727 41.5951 13.5796 41.643 13.4282 41.6429Z" fill="#95D6BE"/>
<path d="M25.0002 45.4145C22.5246 45.4204 20.0693 44.9683 17.7581 44.0809C17.6691 44.0483 17.5875 43.9983 17.518 43.9338C17.4485 43.8693 17.3926 43.7917 17.3534 43.7053C17.3143 43.619 17.2927 43.5258 17.2899 43.431C17.2872 43.3363 17.3033 43.2419 17.3374 43.1535C17.3715 43.065 17.4228 42.9842 17.4885 42.9158C17.5541 42.8474 17.6327 42.7928 17.7196 42.755C17.8066 42.7173 17.9002 42.6973 17.9949 42.6961C18.0897 42.6949 18.1838 42.7126 18.2717 42.7481C20.419 43.5721 22.7003 43.9917 25.0002 43.9859C28.7553 43.9859 32.426 42.8725 35.5481 40.7863C38.6703 38.7001 41.1038 35.7349 42.5408 32.2657C43.9777 28.7966 44.3537 24.9792 43.6212 21.2963C42.8886 17.6134 41.0804 14.2305 38.4252 11.5753C35.77 8.9201 32.387 7.11189 28.7042 6.37932C25.0213 5.64676 21.2039 6.02274 17.7347 7.45972C14.2655 8.8967 11.3004 11.3301 9.21421 14.4523C7.12803 17.5745 6.01454 21.2452 6.01454 25.0002C6.0124 26.1771 6.1229 27.3515 6.34454 28.5074C6.38063 28.6934 6.34134 28.8862 6.23531 29.0432C6.12929 29.2003 5.96521 29.3088 5.77918 29.3449C5.59315 29.381 5.4004 29.3417 5.24334 29.2356C5.08628 29.1296 4.97777 28.9655 4.94168 28.7795C4.70289 27.534 4.58378 26.2685 4.58597 25.0002C4.58597 20.9627 5.78324 17.0158 8.02639 13.6587C10.2695 10.3016 13.4578 7.685 17.188 6.13989C20.9183 4.59478 25.0229 4.19051 28.9829 4.9782C32.9429 5.76589 36.5803 7.71016 39.4353 10.5652C42.2903 13.4201 44.2346 17.0576 45.0223 21.0176C45.81 24.9776 45.4057 29.0822 43.8606 32.8124C42.3155 36.5427 39.6989 39.7309 36.3418 41.9741C32.9847 44.2172 29.0378 45.4145 25.0002 45.4145Z" fill="#95D6BE"/>
<path d="M8.51437 36.4854C8.39625 36.4855 8.27994 36.4563 8.17585 36.4005C8.07176 36.3446 7.98315 36.2639 7.91794 36.1654C7.50816 35.5453 7.13582 34.9013 6.80294 34.2368C6.76015 34.1528 6.7344 34.0612 6.72719 33.9672C6.71998 33.8732 6.73144 33.7787 6.76093 33.6891C6.79041 33.5996 6.83732 33.5168 6.89897 33.4455C6.96061 33.3741 7.03576 33.3157 7.12009 33.2736C7.20441 33.2314 7.29625 33.2064 7.3903 33.1999C7.48434 33.1935 7.57874 33.2057 7.66805 33.2358C7.75736 33.266 7.83981 33.3136 7.91065 33.3758C7.98149 33.438 8.03932 33.5136 8.0808 33.5982C8.38733 34.2124 8.73057 34.8075 9.10866 35.3804C9.17985 35.4879 9.2206 35.6127 9.22657 35.7416C9.23255 35.8704 9.20353 35.9985 9.14259 36.1121C9.08165 36.2258 8.99107 36.3209 8.88046 36.3872C8.76985 36.4535 8.64335 36.4887 8.51437 36.4889V36.4854Z" fill="#95D6BE"/>
<path d="M21.1906 23.334H14.9999C14.621 23.334 14.2576 23.1835 13.9897 22.9156C13.7218 22.6477 13.5713 22.2843 13.5713 21.9054V15.7147C13.5713 15.3358 13.7218 14.9725 13.9897 14.7046C14.2576 14.4366 14.621 14.2861 14.9999 14.2861H21.1906C21.5695 14.2861 21.9328 14.4366 22.2007 14.7046C22.4686 14.9725 22.6191 15.3358 22.6191 15.7147V21.9054C22.6191 22.2843 22.4686 22.6477 22.2007 22.9156C21.9328 23.1835 21.5695 23.334 21.1906 23.334ZM14.9999 15.7147V21.9054H21.1906V15.7147H14.9999Z" fill="#95D6BE"/>
<path d="M35.0001 23.334H28.8094C28.4305 23.334 28.0672 23.1835 27.7993 22.9156C27.5314 22.6477 27.3809 22.2843 27.3809 21.9054V15.7147C27.3809 15.3358 27.5314 14.9725 27.7993 14.7046C28.0672 14.4366 28.4305 14.2861 28.8094 14.2861H35.0001C35.379 14.2861 35.7424 14.4366 36.0103 14.7046C36.2782 14.9725 36.4287 15.3358 36.4287 15.7147V21.9054C36.4287 22.2843 36.2782 22.6477 36.0103 22.9156C35.7424 23.1835 35.379 23.334 35.0001 23.334ZM35.0001 15.7147H28.8094V21.9054H35.0001V15.7147Z" fill="#95D6BE"/>
<path d="M21.1906 35.7148H14.9999C14.621 35.7148 14.2576 35.5643 13.9897 35.2964C13.7218 35.0285 13.5713 34.6652 13.5713 34.2863V28.0956C13.5713 27.7167 13.7218 27.3533 13.9897 27.0854C14.2576 26.8175 14.621 26.667 14.9999 26.667H21.1906C21.5695 26.667 21.9328 26.8175 22.2007 27.0854C22.4686 27.3533 22.6191 27.7167 22.6191 28.0956V34.2863C22.6191 34.6652 22.4686 35.0285 22.2007 35.2964C21.9328 35.5643 21.5695 35.7148 21.1906 35.7148ZM14.9999 28.0956V34.2863H21.1906V28.0956H14.9999Z" fill="#95D6BE"/>
</svg>
