<svg width="110" height="83" viewBox="0 0 110 83" fill="none" xmlns="http://www.w3.org/2000/svg">
<path d="M0 21.887C0 34.1096 7.97927 43.4897 22.228 43.4897C25.6477 43.4897 27.9275 42.3527 28.4974 42.0685C27.3575 55.4281 14.2487 62.8185 4.27461 63.9555V83C23.0829 81.5788 51.0104 67.9349 51.0104 28.7089C51.0104 13.9281 41.3212 0 24.5078 0C9.97409 0 0 9.94864 0 21.887ZM59.2746 21.887C59.2746 34.1096 67.2539 43.4897 81.5026 43.4897C84.6373 43.4897 86.6321 42.637 87.772 42.0685C86.6321 55.4281 73.5233 62.8185 63.5492 63.9555V83C82.3575 81.5788 110 67.9349 110 28.7089C110 13.9281 100.596 0 83.7824 0C69.2487 0 59.2746 9.94864 59.2746 21.887Z" fill="#70BAC9" fill-opacity="0.1"/>
</svg>
