<svg width="79" height="60" viewBox="0 0 79 60" fill="none" xmlns="http://www.w3.org/2000/svg">
<path d="M0.717078 16.326C0.717078 25.012 6.37308 31.678 16.4731 31.678C18.8971 31.678 20.5131 30.87 20.9171 30.668C20.1091 40.162 10.8171 45.414 3.74708 46.222V59.756C17.0791 58.746 36.8751 49.05 36.8751 21.174C36.8751 10.67 30.0071 0.771991 18.0891 0.771991C7.78708 0.771991 0.717078 7.842 0.717078 16.326ZM42.7331 16.326C42.7331 25.012 48.3891 31.678 58.4891 31.678C60.7111 31.678 62.1251 31.072 62.9331 30.668C62.1251 40.162 52.8331 45.414 45.7631 46.222V59.756C59.0951 58.746 78.6891 49.05 78.6891 21.174C78.6891 10.67 72.0231 0.771991 60.1051 0.771991C49.8031 0.771991 42.7331 7.842 42.7331 16.326Z" fill="#2E3B3C"/>
</svg>
