<svg width="39" height="51" viewBox="0 0 39 51" fill="none" xmlns="http://www.w3.org/2000/svg">
<path d="M27.8906 44.9219H10.3594C8.43853 44.9219 6.875 43.3583 6.875 41.4375V31.875C6.875 29.9542 8.43853 28.3906 10.3594 28.3906H27.8906C29.8115 28.3906 31.375 29.9542 31.375 31.875V41.4375C31.375 43.3583 29.8115 44.9219 27.8906 44.9219Z" stroke="#0D659D"/>
<path d="M36.6562 10.3594V7.17188H35.0625V3.98438H33.4688V0.796875H5.57812C2.50219 0.796875 0 3.29986 0 6.375V44.625C0 47.7001 2.50219 50.2031 5.57812 50.2031H38.25V10.3594H36.6562ZM33.4688 5.57812V7.17188H5.57812C5.13905 7.17188 4.78125 6.81488 4.78125 6.375C4.78125 5.93512 5.13905 5.57812 5.57812 5.57812H33.4688ZM5.57812 2.39062H31.875V3.98438H5.57812C4.26009 3.98438 3.1875 5.05697 3.1875 6.375C3.1875 7.69303 4.26009 8.76562 5.57812 8.76562H35.0625V10.3594H5.57812C3.38114 10.3594 1.59375 8.57198 1.59375 6.375C1.59375 4.17802 3.38114 2.39062 5.57812 2.39062ZM36.6562 48.6094H5.57812C3.38114 48.6094 1.59375 46.822 1.59375 44.625V10.2757C2.60658 11.31 4.01864 11.9531 5.57812 11.9531H36.6562V48.6094Z" fill="#0D659D"/>
<path d="M13.7754 40.873L23.3367 31.3118L24.4635 32.4385L14.9022 41.9998L13.7754 40.873Z" fill="#0D659D"/>
<path d="M13.5469 33.4688C13.5469 34.7868 14.6195 35.8594 15.9375 35.8594C17.2555 35.8594 18.3281 34.7868 18.3281 33.4688C18.3281 32.1507 17.2555 31.0781 15.9375 31.0781C14.6195 31.0781 13.5469 32.1507 13.5469 33.4688ZM15.9375 32.6719C16.3766 32.6719 16.7344 33.0289 16.7344 33.4688C16.7344 33.9086 16.3766 34.2656 15.9375 34.2656C15.4984 34.2656 15.1406 33.9086 15.1406 33.4688C15.1406 33.0289 15.4984 32.6719 15.9375 32.6719Z" fill="#0D659D"/>
<path d="M22.3125 37.4531C20.9945 37.4531 19.9219 38.5257 19.9219 39.8438C19.9219 41.1618 20.9945 42.2344 22.3125 42.2344C23.6305 42.2344 24.7031 41.1618 24.7031 39.8438C24.7031 38.5257 23.6305 37.4531 22.3125 37.4531ZM22.3125 40.6406C21.8734 40.6406 21.5156 40.2836 21.5156 39.8438C21.5156 39.4039 21.8734 39.0469 22.3125 39.0469C22.7516 39.0469 23.1094 39.4039 23.1094 39.8438C23.1094 40.2836 22.7516 40.6406 22.3125 40.6406Z" fill="#0D659D"/>
<path d="M27.0938 23.3747L28.6875 21.2495L30.2812 23.3747V24.7031H31.875V22.844L29.6836 19.9219L31.875 16.9997V15.1406H30.2812V16.469L28.6875 18.5943L27.0938 16.469V15.1406H25.5V16.9997L27.6914 19.9219L25.5 22.844V24.7031H27.0938V23.3747Z" fill="#0D659D"/>
<path d="M17.5312 23.1094H20.7188V24.7031H22.3125V22.3125L20.5442 15.1406H17.7058L15.9614 22.1197L15.9375 24.7031H17.5312V23.1094ZM19.2995 16.7344L20.4948 21.5156H17.7552L18.9505 16.7344H19.2995Z" fill="#0D659D"/>
<path d="M9.5625 24.7031H11.1562V16.7344H14.3438V15.1406H6.375V16.7344H9.5625V24.7031Z" fill="#0D659D"/>
</svg>
