<svg width="23" height="23" viewBox="0 0 23 23" fill="none" xmlns="http://www.w3.org/2000/svg">
<path d="M23 6.76471V0H16.2353V2.70588H10.8235V7.49787C9.12644 7.78383 7.78383 9.12644 7.49787 10.8235H4.05882V6.76471H6.76471V0H0V6.76471H2.70588V12.1765H7.49787C7.78383 13.8736 9.12644 15.2162 10.8235 15.5021V18.9412H6.76471V16.2353H0V23H6.76471V20.2941H12.1765V15.5021C13.8736 15.2162 15.2162 13.8736 15.5021 12.1765H18.9412V16.2353H16.2353V23H23V16.2353H20.2941V10.8235H15.5021C15.2162 9.12644 13.8736 7.78383 12.1765 7.49787V4.05882H16.2353V6.76471H23ZM1.35294 1.35294H5.41176V5.41176H1.35294V1.35294ZM5.41176 21.6471H1.35294V17.5882H5.41176V21.6471ZM21.6471 21.6471H17.5882V17.5882H21.6471V21.6471ZM14.2059 11.5C14.2059 12.992 12.992 14.2059 11.5 14.2059C10.008 14.2059 8.79412 12.992 8.79412 11.5C8.79412 10.008 10.008 8.79412 11.5 8.79412C12.992 8.79412 14.2059 10.008 14.2059 11.5ZM17.5882 1.35294H21.6471V5.41176H17.5882V1.35294Z" fill="#2E3B3C"/>
<path d="M2.70703 2.70508H4.05997V4.05802H2.70703V2.70508Z" fill="#2E3B3C"/>
<path d="M18.9414 2.70508H20.2943V4.05802H18.9414V2.70508Z" fill="#2E3B3C"/>
<path d="M18.9414 18.9414H20.2943V20.2943H18.9414V18.9414Z" fill="#2E3B3C"/>
<path d="M2.70703 18.9414H4.05997V20.2943H2.70703V18.9414Z" fill="#2E3B3C"/>
<path d="M10.8242 10.8242H12.1772V12.1772H10.8242V10.8242Z" fill="#2E3B3C"/>
</svg>
