<svg width="24" height="30" viewBox="0 0 24 30" fill="none" xmlns="http://www.w3.org/2000/svg">
<path d="M0.945116 27.3419H2.83076V4.24271C2.83076 3.72203 3.25286 3.29988 3.77359 3.29988H10.8448V0.942824C10.8448 0.422149 11.2669 0 11.7876 0H18.3284C18.8491 0 19.2713 0.422149 19.2713 0.942824V3.29988H20.0373C20.558 3.29988 20.9801 3.72203 20.9801 4.24271V27.3419H22.8658C23.3864 27.3419 23.8086 27.764 23.8086 28.2847C23.8086 28.8054 23.3864 29.2275 22.8658 29.2275H0.945116C0.424383 29.2275 0.00229263 28.8054 0.00229263 28.2847C0.00229263 27.764 0.424383 27.3419 0.945116 27.3419ZM17.3856 1.88565H12.7304V3.29988H17.3856V1.88565ZM13.7911 27.3419V23.3349H10.0198V27.3419H13.7911ZM8.13415 27.3419V23.3349H7.72166C7.20093 23.3349 6.77884 22.9127 6.77884 22.3921C6.77884 21.8714 7.20093 21.4492 7.72166 21.4492C11.0012 21.4492 13.0517 21.4492 16.0892 21.4492C16.6099 21.4492 17.032 21.8714 17.032 22.3921C17.032 22.9127 16.6099 23.3349 16.0892 23.3349H15.6767V27.3419H19.0945V5.18553H4.71641V27.3419H8.13415ZM13.2608 7.95508C13.2608 8.47575 13.6829 8.8979 14.2036 8.8979H15.2643C15.7849 8.8979 16.2071 8.47575 16.2071 7.95508C16.2071 7.4344 15.7849 7.01225 15.2643 7.01225H14.2036C13.6829 7.01225 13.2608 7.4344 13.2608 7.95508ZM7.66273 7.95508C7.66273 8.47575 8.08483 8.8979 8.60556 8.8979H9.66624C10.187 8.8979 10.6091 8.47575 10.6091 7.95508C10.6091 7.4344 10.187 7.01225 9.66624 7.01225H8.60556C8.08483 7.01225 7.66273 7.4344 7.66273 7.95508ZM13.2608 11.4907C13.2608 12.0113 13.6829 12.4335 14.2036 12.4335H15.2643C15.7849 12.4335 16.2071 12.0113 16.2071 11.4907C16.2071 10.97 15.7849 10.5478 15.2643 10.5478H14.2036C13.6829 10.5478 13.2608 10.97 13.2608 11.4907ZM7.66273 11.4907C7.66273 12.0113 8.08483 12.4335 8.60556 12.4335H9.66624C10.187 12.4335 10.6091 12.0113 10.6091 11.4907C10.6091 10.97 10.187 10.5478 9.66624 10.5478H8.60556C8.08483 10.5478 7.66273 10.97 7.66273 11.4907ZM13.2608 15.0263C13.2608 15.5469 13.6829 15.9691 14.2036 15.9691H15.2643C15.7849 15.9691 16.2071 15.5469 16.2071 15.0263C16.2071 14.5056 15.7849 14.0834 15.2643 14.0834H14.2036C13.6829 14.0834 13.2608 14.5056 13.2608 15.0263ZM7.66273 15.0263C7.66273 15.5469 8.08483 15.9691 8.60556 15.9691H9.66624C10.187 15.9691 10.6091 15.5469 10.6091 15.0263C10.6091 14.5056 10.187 14.0834 9.66624 14.0834H8.60556C8.08483 14.0834 7.66273 14.5056 7.66273 15.0263ZM13.2608 18.5618C13.2608 19.0825 13.6829 19.5047 14.2036 19.5047H15.2643C15.7849 19.5047 16.2071 19.0825 16.2071 18.5618C16.2071 18.0412 15.7849 17.619 15.2643 17.619H14.2036C13.6829 17.619 13.2608 18.0412 13.2608 18.5618ZM7.66273 18.5618C7.66273 19.0825 8.08483 19.5047 8.60556 19.5047H9.66624C10.187 19.5047 10.6091 19.0825 10.6091 18.5618C10.6091 18.0412 10.187 17.619 9.66624 17.619H8.60556C8.08483 17.619 7.66273 18.0412 7.66273 18.5618Z" fill="#2E3B3C"/>
</svg>
