<svg width="21" height="30" viewBox="0 0 21 30" fill="none" xmlns="http://www.w3.org/2000/svg">
<path d="M2.28768 19.0479C1.67378 19.0479 1.12126 18.8023 0.630137 18.2498C-0.16794 17.329 -0.229329 16.1625 0.568747 15.2417C1.18265 14.4436 2.41046 13.7683 4.1294 13.1544C4.7433 12.9702 5.4186 12.7247 6.09389 12.6019C6.52362 11.8038 6.95336 10.9443 7.3217 10.0235C7.69004 9.16402 7.997 8.36594 8.24256 7.56787C7.26031 5.91032 6.33945 3.94583 6.40084 2.41107C6.40084 1.06047 7.19892 0.201008 8.48812 0.0168363C9.65454 -0.105945 10.514 0.446569 10.8823 1.5516C11.3735 3.02497 10.8823 5.29642 10.3298 7.26092C10.821 8.05899 11.3735 8.85707 12.0488 9.65514C12.6013 10.3304 13.0924 10.9443 13.6449 11.5583C15.7936 11.5583 17.8195 11.7424 19.0473 12.4177C20.1523 13.0316 20.5821 13.9525 20.2751 15.0575C19.9068 16.2853 18.9245 16.8992 17.6967 16.7151C16.1005 16.5309 14.2588 14.9961 12.8468 13.5227C11.8646 13.5841 10.7596 13.6455 9.65454 13.8297C8.85646 13.9525 8.05839 14.0753 7.3217 14.2594C7.07614 14.7506 6.76919 15.1803 6.52363 15.5486C5.47999 17.0834 4.49774 18.127 3.57688 18.6795C3.14715 18.9251 2.71741 19.0479 2.28768 19.0479ZM4.68191 14.9961C3.39271 15.4259 2.41046 15.9784 1.98073 16.4695C1.79656 16.6537 1.79656 16.7764 2.04212 17.0834C2.1649 17.2062 2.22629 17.329 2.71741 17.0834C3.26993 16.7151 4.00662 15.9784 4.68191 14.9961ZM15.6094 13.5841C16.5303 14.3822 17.3284 14.8733 17.9423 14.9347C18.1878 14.9961 18.3106 14.9961 18.4948 14.5664C18.5562 14.4436 18.5562 14.3822 18.1878 14.1366C17.6353 13.8911 16.7144 13.6455 15.6094 13.5841ZM9.59315 9.59375C9.40898 10.0849 9.2248 10.5146 9.10202 10.8216C8.91785 11.3127 8.67229 11.7424 8.48812 12.1722C8.79507 12.1108 9.10202 12.0494 9.40898 12.0494C10.0229 11.988 10.6368 11.8652 11.2507 11.8652C10.9437 11.4969 10.6982 11.1899 10.5754 11.0057C10.3298 10.6374 9.96149 10.1463 9.59315 9.59375ZM8.73368 1.91994C8.48812 1.98133 8.30395 1.98133 8.30395 2.47245C8.30395 3.08636 8.54951 3.94583 9.04064 4.98947C9.2862 3.76166 9.34759 2.77941 9.16342 2.22689C9.04064 1.91994 8.97924 1.91994 8.73368 1.91994Z" fill="white"/>
<path d="M1.61133 23.2844C1.61133 22.7319 1.97967 22.4863 2.4094 22.4863H4.43529C5.72449 22.4863 6.9523 23.2844 6.9523 24.9419C6.9523 26.3539 6.09283 27.3976 4.49668 27.3976H3.26887V28.9323C3.26887 29.4848 2.90053 29.7918 2.47079 29.7918C1.97967 29.7918 1.67272 29.4848 1.67272 28.9323V23.2844H1.61133ZM3.26887 25.9242H4.12834C4.80363 25.9242 5.23337 25.4331 5.23337 24.9419C5.23337 24.2667 4.80363 23.9597 4.12834 23.9597H3.26887V25.9242Z" fill="white"/>
<path d="M7.8125 23.2844C7.8125 22.7319 8.18084 22.4863 8.61058 22.4863H10.5751C12.7237 22.4863 13.9516 24.2053 13.9516 26.047C13.9516 28.4412 12.3554 29.7304 10.5751 29.7304H8.61058C8.18084 29.7304 7.8125 29.4235 7.8125 28.9323V23.2844ZM9.47004 28.1956H10.3295C11.6187 28.1956 12.2326 27.3362 12.2326 26.047C12.2326 24.8192 11.6187 24.0211 10.3909 24.0211H9.47004V28.1956Z" fill="white"/>
<path d="M14.9336 23.2844C14.9336 22.7319 15.3019 22.4863 15.7317 22.4863H18.2487C18.7398 22.4863 19.0468 22.7933 19.0468 23.223C19.0468 23.7141 18.7398 23.9597 18.2487 23.9597H16.5297V25.2489H18.0031C18.4942 25.2489 18.8012 25.5559 18.8012 25.9856C18.8012 26.4767 18.4942 26.7223 18.0031 26.7223H16.5297V28.8096C16.5297 29.3621 16.1614 29.669 15.7317 29.669C15.2405 29.669 14.9336 29.3621 14.9336 28.8096V23.2844Z" fill="white"/>
</svg>
