<svg width="24" height="24" viewBox="0 0 24 24" fill="none" xmlns="http://www.w3.org/2000/svg">
<path d="M12.0003 17.1412C10.9831 17.1412 9.9888 16.8396 9.14306 16.2745C8.29732 15.7094 7.63815 14.9061 7.2489 13.9664C6.85965 13.0267 6.7578 11.9926 6.95624 10.995C7.15468 9.99739 7.64449 9.08102 8.36373 8.36178C9.08297 7.64254 9.99934 7.15273 10.997 6.95429C11.9946 6.75585 13.0286 6.8577 13.9684 7.24695C14.9081 7.6362 15.7113 8.29537 16.2764 9.14111C16.8415 9.98685 17.1431 10.9812 17.1431 11.9983C17.1415 13.3618 16.5992 14.669 15.6351 15.6331C14.6709 16.5972 13.3638 17.1396 12.0003 17.1412ZM12.0003 8.56976C11.3222 8.56976 10.6593 8.77084 10.0955 9.14757C9.53164 9.52431 9.09219 10.0598 8.83269 10.6863C8.57319 11.3128 8.5053 12.0021 8.63759 12.6672C8.76988 13.3323 9.09642 13.9432 9.57591 14.4227C10.0554 14.9022 10.6663 15.2287 11.3314 15.361C11.9965 15.4933 12.6858 15.4254 13.3123 15.1659C13.9388 14.9064 14.4743 14.467 14.851 13.9031C15.2278 13.3393 15.4289 12.6764 15.4289 11.9983C15.4277 11.0894 15.0661 10.218 14.4234 9.57521C13.7807 8.93248 12.9092 8.57089 12.0003 8.56976Z" fill="#2E3B3C"/>
<path d="M11.9996 20.5725C10.7939 20.5716 9.60186 20.3168 8.50117 19.8246C7.40049 19.3323 6.41583 18.6138 5.61133 17.7157L6.88847 16.5723C7.65098 17.4249 8.61466 18.0732 9.69176 18.4582C10.7689 18.8432 11.9252 18.9526 13.0554 18.7765C14.1856 18.6004 15.2538 18.1444 16.1627 17.45C17.0716 16.7556 17.7924 15.8448 18.2594 14.8006C18.7264 13.7565 18.9247 12.6121 18.8364 11.4717C18.7481 10.3312 18.3759 9.23103 17.7537 8.27121C17.1315 7.31139 16.2791 6.52246 15.2741 5.97627C14.2691 5.43007 13.1434 5.14395 11.9996 5.14397V3.42969C14.2729 3.42969 16.4531 4.33275 18.0605 5.9402C19.668 7.54766 20.571 9.72783 20.571 12.0011C20.571 14.2744 19.668 16.4546 18.0605 18.062C16.4531 19.6695 14.2729 20.5725 11.9996 20.5725Z" fill="#2E3B3C"/>
<path d="M12 24C9.62663 24 7.30655 23.2962 5.33316 21.9776C3.35977 20.6591 1.8217 18.7849 0.913451 16.5922C0.0051994 14.3995 -0.232441 11.9867 0.230582 9.65892C0.693605 7.33115 1.83649 5.19295 3.51472 3.51472C5.19295 1.83649 7.33115 0.693605 9.65892 0.230582C11.9867 -0.232441 14.3995 0.0051994 16.5922 0.913451C18.7849 1.8217 20.6591 3.35977 21.9776 5.33316C23.2962 7.30655 24 9.62663 24 12C23.9964 15.1815 22.7309 18.2316 20.4813 20.4813C18.2316 22.7309 15.1815 23.9964 12 24ZM12 1.71429C9.96568 1.71429 7.97704 2.31754 6.28557 3.44775C4.59409 4.57795 3.27575 6.18436 2.49724 8.06383C1.71874 9.9433 1.51505 12.0114 1.91193 14.0066C2.3088 16.0019 3.28842 17.8346 4.72691 19.2731C6.16539 20.7116 7.99813 21.6912 9.99336 22.0881C11.9886 22.485 14.0567 22.2813 15.9362 21.5028C17.8156 20.7243 19.4221 19.4059 20.5523 17.7144C21.6825 16.023 22.2857 14.0343 22.2857 12C22.2825 9.27304 21.1978 6.65867 19.2696 4.73041C17.3413 2.80216 14.727 1.71747 12 1.71429Z" fill="#2E3B3C"/>
</svg>
