<svg width="24" height="25" viewBox="0 0 24 25" fill="none" xmlns="http://www.w3.org/2000/svg">
<path d="M21.6442 10.5811H20.5371V0.721443C20.5371 0.323014 20.2141 0 19.8156 0H0.721443C0.323014 0 0 0.323014 0 0.721443V19.2014C0 20.5128 1.06663 21.5913 2.37768 21.6057C2.38033 21.6057 2.38297 21.6057 2.38562 21.6057H2.39187H6.59933V23.8076C6.59933 24.206 6.92234 24.5291 7.32077 24.5291H23.2786C23.677 24.5291 24 24.206 24 23.8076V12.9373C24 11.6381 22.9432 10.5811 21.6442 10.5811ZM1.44289 1.44289H19.0942V10.5811H5.68641C5.68608 10.5811 5.68579 10.5812 5.6855 10.5812H5.68213C4.41547 10.5812 3.3816 11.572 3.32845 12.8368C3.32802 12.8469 3.32782 12.857 3.32782 12.8671V19.2014C3.32782 19.723 2.9041 20.1535 2.38336 20.1625C1.86392 20.1513 1.44293 19.7224 1.44293 19.2014V1.44289H1.44289ZM4.56851 20.1629C4.6965 19.8722 4.77066 19.5402 4.77066 19.2015V12.8845C4.79764 12.4022 5.19453 12.024 5.68641 12.024C6.18979 12.024 6.59928 12.4338 6.59928 12.9374V20.1629H4.56851ZM22.5571 23.0862H8.04216C8.04216 22.8173 8.04216 13.1998 8.04216 12.9374V12.9373C8.04216 12.6198 7.97656 12.305 7.858 12.024C8.31121 12.024 21.2061 12.024 21.6442 12.024C22.1476 12.024 22.5571 12.4337 22.5571 12.9373V23.0862Z" fill="#2E3B3C"/>
<path d="M3.72926 4.90968H4.46426V7.72802C4.46426 8.12645 4.78728 8.44947 5.1857 8.44947C5.58413 8.44947 5.90715 8.12645 5.90715 7.72802V4.90968H6.64215C7.04058 4.90968 7.3636 4.58667 7.3636 4.18824C7.3636 3.78981 7.04058 3.4668 6.64215 3.4668H3.72926C3.33083 3.4668 3.00781 3.78981 3.00781 4.18824C3.00781 4.58667 3.33083 4.90968 3.72926 4.90968Z" fill="#2E3B3C"/>
<path d="M8.60621 8.44942C9.00464 8.44942 9.32765 8.1264 9.32765 7.72798V7.3104H10.7977V7.72798C10.7977 8.1264 11.1207 8.44942 11.5191 8.44942C11.9175 8.44942 12.2406 8.1264 12.2406 7.72798V5.64469C12.2406 4.44377 11.2636 3.4668 10.0627 3.4668C8.86174 3.4668 7.88477 4.44377 7.88477 5.64469V7.72798C7.88477 8.1264 8.20778 8.44942 8.60621 8.44942ZM10.0627 4.90963C10.4679 4.90963 10.7977 5.23933 10.7977 5.64464V5.86752H9.32765V5.64464C9.32765 5.23933 9.65735 4.90963 10.0627 4.90963Z" fill="#2E3B3C"/>
<path d="M13.4369 8.28515C13.7444 8.53828 14.1992 8.49422 14.4524 8.1865L15.3517 7.09356L16.2511 8.1865C16.5044 8.49427 16.959 8.53823 17.2666 8.28515C17.5743 8.03197 17.6184 7.57732 17.3652 7.26969L16.286 5.95821L17.3652 4.64672C17.6184 4.3391 17.5743 3.88439 17.2666 3.63126C16.959 3.37799 16.5043 3.42214 16.2511 3.72991L15.3517 4.82285L14.4524 3.72991C14.1992 3.42229 13.7446 3.37813 13.4369 3.63126C13.1292 3.88439 13.0851 4.3391 13.3382 4.64672L14.4175 5.95821L13.3382 7.26969C13.085 7.57732 13.1292 8.03197 13.4369 8.28515Z" fill="#2E3B3C"/>
<path d="M15.3277 15.1504H10.3582C9.95973 15.1504 9.63672 15.4734 9.63672 15.8718C9.63672 16.2703 9.95973 16.5933 10.3582 16.5933H15.3277C15.7262 16.5933 16.0492 16.2703 16.0492 15.8718C16.0492 15.4734 15.7262 15.1504 15.3277 15.1504Z" fill="#2E3B3C"/>
<path d="M15.3277 18.6133H10.3582C9.95973 18.6133 9.63672 18.9363 9.63672 19.3347C9.63672 19.7332 9.95973 20.0562 10.3582 20.0562H15.3277C15.7262 20.0562 16.0492 19.7332 16.0492 19.3347C16.0492 18.9363 15.7262 18.6133 15.3277 18.6133Z" fill="#2E3B3C"/>
<path d="M20.7326 15.1504H18.2957C17.8972 15.1504 17.5742 15.4734 17.5742 15.8718C17.5742 16.2703 17.8972 16.5933 18.2957 16.5933H20.7326C21.131 16.5933 21.454 16.2703 21.454 15.8718C21.454 15.4734 21.131 15.1504 20.7326 15.1504Z" fill="#2E3B3C"/>
<path d="M20.7326 18.6133H18.2957C17.8972 18.6133 17.5742 18.9363 17.5742 19.3347C17.5742 19.7332 17.8972 20.0562 18.2957 20.0562H20.7326C21.131 20.0562 21.454 19.7332 21.454 19.3347C21.454 18.9363 21.131 18.6133 20.7326 18.6133Z" fill="#2E3B3C"/>
</svg>
