<svg width="45" height="45" viewBox="0 0 50 50" fill="none" xmlns="http://www.w3.org/2000/svg">
<rect width="50" height="50" rx="15" fill="#2E3B3C"/>
<path d="M17.2877 29.0479C16.6738 29.0479 16.1213 28.8023 15.6301 28.2498C14.8321 27.329 14.7707 26.1625 15.5687 25.2417C16.1827 24.4436 17.4105 23.7683 19.1294 23.1544C19.7433 22.9702 20.4186 22.7247 21.0939 22.6019C21.5236 21.8038 21.9534 20.9443 22.3217 20.0235C22.69 19.164 22.997 18.3659 23.2426 17.5679C22.2603 15.9103 21.3395 13.9458 21.4008 12.4111C21.4008 11.0605 22.1989 10.201 23.4881 10.0168C24.6545 9.89406 25.514 10.4466 25.8823 11.5516C26.3735 13.025 25.8823 15.2964 25.3298 17.2609C25.821 18.059 26.3735 18.8571 27.0488 19.6551C27.6013 20.3304 28.0924 20.9443 28.6449 21.5583C30.7936 21.5583 32.8195 21.7424 34.0473 22.4177C35.1523 23.0316 35.5821 23.9525 35.2751 25.0575C34.9068 26.2853 33.9245 26.8992 32.6967 26.7151C31.1005 26.5309 29.2588 24.9961 27.8468 23.5227C26.8646 23.5841 25.7596 23.6455 24.6545 23.8297C23.8565 23.9525 23.0584 24.0753 22.3217 24.2594C22.0761 24.7506 21.7692 25.1803 21.5236 25.5486C20.48 27.0834 19.4977 28.127 18.5769 28.6795C18.1471 28.9251 17.7174 29.0479 17.2877 29.0479ZM19.6819 24.9961C18.3927 25.4259 17.4105 25.9784 16.9807 26.4695C16.7966 26.6537 16.7966 26.7764 17.0421 27.0834C17.1649 27.2062 17.2263 27.329 17.7174 27.0834C18.2699 26.7151 19.0066 25.9784 19.6819 24.9961ZM30.6094 23.5841C31.5303 24.3822 32.3284 24.8733 32.9423 24.9347C33.1878 24.9961 33.3106 24.9961 33.4948 24.5664C33.5562 24.4436 33.5562 24.3822 33.1878 24.1366C32.6353 23.8911 31.7144 23.6455 30.6094 23.5841ZM24.5932 19.5938C24.409 20.0849 24.2248 20.5146 24.102 20.8216C23.9179 21.3127 23.6723 21.7424 23.4881 22.1722C23.7951 22.1108 24.102 22.0494 24.409 22.0494C25.0229 21.988 25.6368 21.8652 26.2507 21.8652C25.9437 21.4969 25.6982 21.1899 25.5754 21.0057C25.3298 20.6374 24.9615 20.1463 24.5932 19.5938ZM23.7337 11.9199C23.4881 11.9813 23.3039 11.9813 23.3039 12.4725C23.3039 13.0864 23.5495 13.9458 24.0406 14.9895C24.2862 13.7617 24.3476 12.7794 24.1634 12.2269C24.0406 11.9199 23.9792 11.9199 23.7337 11.9199Z" fill="white"/>
<path d="M16.6133 33.2844C16.6133 32.7319 16.9816 32.4863 17.4114 32.4863H19.4372C20.7264 32.4863 21.9543 33.2844 21.9543 34.9419C21.9543 36.3539 21.0948 37.3976 19.4986 37.3976H18.2708V38.9323C18.2708 39.4848 17.9025 39.7918 17.4727 39.7918C16.9816 39.7918 16.6747 39.4848 16.6747 38.9323V33.2844H16.6133ZM18.2708 35.9242H19.1303C19.8056 35.9242 20.2353 35.4331 20.2353 34.9419C20.2353 34.2667 19.8056 33.9597 19.1303 33.9597H18.2708V35.9242Z" fill="white"/>
<path d="M22.8125 33.2844C22.8125 32.7319 23.1808 32.4863 23.6106 32.4863H25.5751C27.7237 32.4863 28.9516 34.2053 28.9516 36.047C28.9516 38.4412 27.3554 39.7304 25.5751 39.7304H23.6106C23.1808 39.7304 22.8125 39.4235 22.8125 38.9323V33.2844ZM24.47 38.1956H25.3295C26.6187 38.1956 27.2326 37.3362 27.2326 36.047C27.2326 34.8192 26.6187 34.0211 25.3909 34.0211H24.47V38.1956Z" fill="white"/>
<path d="M29.9336 33.2844C29.9336 32.7319 30.3019 32.4863 30.7317 32.4863H33.2487C33.7398 32.4863 34.0468 32.7933 34.0468 33.223C34.0468 33.7141 33.7398 33.9597 33.2487 33.9597H31.5297V35.2489H33.0031C33.4942 35.2489 33.8012 35.5559 33.8012 35.9856C33.8012 36.4767 33.4942 36.7223 33.0031 36.7223H31.5297V38.8096C31.5297 39.3621 31.1614 39.669 30.7317 39.669C30.2405 39.669 29.9336 39.3621 29.9336 38.8096V33.2844Z" fill="white"/>
</svg>
