<svg width="45" height="45" viewBox="0 0 50 50" fill="none" xmlns="http://www.w3.org/2000/svg">
<rect width="50" height="50" rx="15" fill="#2E3B3C"/>
<path d="M15.6641 19.7507V14.5007C15.6641 14.1912 15.787 13.8945 16.0058 13.6757C16.2246 13.4569 16.5213 13.334 16.8307 13.334H33.1641C33.4735 13.334 33.7702 13.4569 33.989 13.6757C34.2078 13.8945 34.3307 14.1912 34.3307 14.5007V35.5007C34.3307 35.8101 34.2078 36.1068 33.989 36.3256C33.7702 36.5444 33.4735 36.6673 33.1641 36.6673H16.8307C16.5213 36.6673 16.2246 36.5444 16.0058 36.3256C15.787 36.1068 15.6641 35.8101 15.6641 35.5007V30.2507" stroke="white" stroke-width="2" stroke-linecap="round" stroke-linejoin="round"/>
<path d="M27.332 29.0833H30.832M29.082 19.75H30.832H29.082ZM27.332 24.4167H30.832H27.332Z" stroke="white" stroke-width="2" stroke-linecap="round"/>
<path d="M20.332 23.25L16.832 26.75M13.332 19.75H23.832V30.25H13.332V19.75ZM16.832 23.25L20.332 26.75L16.832 23.25Z" stroke="white" stroke-width="2" stroke-linecap="round" stroke-linejoin="round"/>
</svg>
