<svg width="17" height="17" viewBox="0 0 17 17" fill="none" xmlns="http://www.w3.org/2000/svg">
<path d="M7.70938 2.58203H2.49097C2.09554 2.58203 1.71631 2.73912 1.4367 3.01873C1.15708 3.29834 1 3.67757 1 4.073V14.5098C1 14.9052 1.15708 15.2845 1.4367 15.5641C1.71631 15.8437 2.09554 16.0008 2.49097 16.0008H12.9278C13.3232 16.0008 13.7024 15.8437 13.9821 15.5641C14.2617 15.2845 14.4188 14.9052 14.4188 14.5098V9.29141" stroke="#979DA2" stroke-width="2" stroke-linecap="round" stroke-linejoin="round"/>
<path d="M13.3003 1.46319C13.5968 1.16661 13.9991 1 14.4185 1C14.8379 1 15.2401 1.16661 15.5367 1.46319C15.8333 1.75976 15.9999 2.162 15.9999 2.58142C15.9999 3.00083 15.8333 3.40307 15.5367 3.69964L8.4546 10.7818L5.47266 11.5273L6.21814 8.54531L13.3003 1.46319Z" stroke="#979DA2" stroke-width="2" stroke-linecap="round" stroke-linejoin="round"/>
</svg>
