<svg width="40" height="40" viewBox="0 0 40 40" fill="none" xmlns="http://www.w3.org/2000/svg">
<path fill-rule="evenodd" clip-rule="evenodd" d="M0 20C0 8.9543 8.9543 0 20 0H40L37.7778 6.66667H20C12.6362 6.66667 6.66667 12.6362 6.66667 20C6.66667 27.3638 12.6362 33.3333 20 33.3333H37.7778L40 40H20C8.9543 40 0 31.0457 0 20Z" fill="#2E3B3C"/>
<path fill-rule="evenodd" clip-rule="evenodd" d="M11.3047 19.9996C11.3047 14.957 14.9211 10.8691 19.3821 10.8691H36.5221L34.31 17.5499H19.3821C18.1853 17.5499 17.215 18.6467 17.215 19.9996C17.215 21.3525 18.1853 22.4492 19.3821 22.4492H34.31L36.5221 29.13H19.3821C14.9211 29.13 11.3047 25.0422 11.3047 19.9996Z" fill="#2E3B3C"/>
</svg>
