<svg width="40" height="40" viewBox="0 0 40 40" fill="none" xmlns="http://www.w3.org/2000/svg">
<path fill-rule="evenodd" clip-rule="evenodd" d="M0 20C0 8.9543 8.9543 0 20 0H40L37.7778 6.66667H20C12.6362 6.66667 6.66667 12.6362 6.66667 20C6.66667 27.3638 12.6362 33.3333 20 33.3333H37.7778L40 40H20C8.9543 40 0 31.0457 0 20Z" fill="white"/>
<path fill-rule="evenodd" clip-rule="evenodd" d="M11.3047 20.0015C11.3047 14.9589 14.9211 10.8711 19.3821 10.8711H36.5221L34.31 17.5519H19.3821C18.1853 17.5519 17.215 18.6486 17.215 20.0015C17.215 21.3544 18.1853 22.4512 19.3821 22.4512H34.31L36.5221 29.132H19.3821C14.9211 29.132 11.3047 25.0441 11.3047 20.0015Z" fill="white"/>
</svg>
