<svg width="10" height="10" viewBox="0 0 10 10" fill="none" xmlns="http://www.w3.org/2000/svg">
<path d="M0.605573 6.663L0.0147843 9.21786C-0.00559589 9.31125 -0.00489724 9.40803 0.0168292 9.50112C0.0385556 9.59421 0.0807609 9.68126 0.140362 9.75591C0.199963 9.83056 0.275454 9.89093 0.361321 9.9326C0.447187 9.97427 0.54126 9.9962 0.636667 9.99678C0.681122 10.0013 0.725916 10.0013 0.770371 9.99678L3.33564 9.4048L8.26094 4.48826L5.51222 1.74023L0.605573 6.663Z" fill="#2E3B3C"/>
<path d="M9.80926 2.026L7.97471 0.187747C7.8541 0.0675018 7.69088 0 7.52074 0C7.35059 0 7.18737 0.0675018 7.06676 0.187747L6.04688 1.20969L8.79249 3.96083L9.81237 2.93889C9.87206 2.87878 9.91933 2.80747 9.95148 2.72904C9.98363 2.6506 10 2.56659 9.99974 2.4818C9.99945 2.39701 9.98248 2.3131 9.9498 2.23489C9.91711 2.15668 9.86936 2.08569 9.80926 2.026Z" fill="#2E3B3C"/>
</svg>
